<!DOCTYPE svg PUBLIC "-//W3C//DTD SVG 1.1//EN" "http://www.w3.org/Graphics/SVG/1.1/DTD/svg11.dtd">
<!-- Uploaded to: SVG Repo, www.svgrepo.com, Transformed by: SVG Repo Mixer Tools -->
<svg fill="#ffffff" height="800px" width="800px" version="1.1" id="Layer_1" xmlns="http://www.w3.org/2000/svg" xmlns:xlink="http://www.w3.org/1999/xlink" viewBox="0 0 512 512" xml:space="preserve" stroke="#ffffff" stroke-width="0.00512" transform="rotate(0)">
<g id="SVGRepo_bgCarrier" stroke-width="0"/>
<g id="SVGRepo_tracerCarrier" stroke-linecap="round" stroke-linejoin="round"/>
<g id="SVGRepo_iconCarrier"> <g> <g> <path d="M349.905,51.2c5.12,0,8.533-3.413,8.533-8.533V8.533c0-5.12-3.413-8.533-8.533-8.533H162.172 c-5.12,0-8.533,3.413-8.533,8.533v34.133c0,5.12,3.413,8.533,8.533,8.533h8.533v51.2h-8.533c-2.56,0-5.12,1.707-6.827,3.413 c-1.707,2.56-2.56,5.12-0.853,7.68l17.067,51.2c0.853,3.413,4.267,5.973,7.68,5.973h25.6v42.667c0,5.12,3.413,8.533,8.533,8.533 h8.533v17.067h-8.533c-5.12,0-8.533,3.413-8.533,8.533s3.413,8.533,8.533,8.533h8.533v17.067h-8.533 c-5.12,0-8.533,3.413-8.533,8.533s3.413,8.533,8.533,8.533h8.533V307.2h-8.533c-5.12,0-8.533,3.413-8.533,8.533 s3.413,8.533,8.533,8.533h8.533v17.067h-8.533c-5.12,0-8.533,3.413-8.533,8.533s3.413,8.533,8.533,8.533h8.533v17.067h-8.533 c-5.12,0-8.533,3.413-8.533,8.533s3.413,8.533,8.533,8.533h8.533V409.6h-8.533c-5.12,0-8.533,3.413-8.533,8.533 s3.413,8.533,8.533,8.533h8.533v17.067h-8.533c-5.12,0-8.533,3.413-8.533,8.533c0,5.12,3.413,8.533,8.533,8.533h8.533v17.067 h-8.533c-5.12,0-8.533,3.413-8.533,8.533s3.413,8.533,8.533,8.533h13.653c5.973,10.24,17.067,17.067,29.013,17.067 s23.893-6.827,29.013-17.067h13.653c5.12,0,8.533-3.413,8.533-8.533s-3.413-8.533-8.533-8.533h-8.533V460.8h8.533 c5.12,0,8.533-3.413,8.533-8.533c0-5.12-3.413-8.533-8.533-8.533h-8.533v-17.067h8.533c5.12,0,8.533-3.413,8.533-8.533 s-3.413-8.533-8.533-8.533h-8.533v-17.067h8.533c5.12,0,8.533-3.413,8.533-8.533s-3.413-8.533-8.533-8.533h-8.533V358.4h8.533 c5.12,0,8.533-3.413,8.533-8.533s-3.413-8.533-8.533-8.533h-8.533v-17.067h8.533c5.12,0,8.533-3.413,8.533-8.533 s-3.413-8.533-8.533-8.533h-8.533v-17.067h8.533c5.12,0,8.533-3.413,8.533-8.533s-3.413-8.533-8.533-8.533h-8.533V256h8.533 c5.12,0,8.533-3.413,8.533-8.533s-3.413-8.533-8.533-8.533h-8.533v-17.067h8.533c5.12,0,8.533-3.413,8.533-8.533v-42.667h25.6 c3.413,0,6.827-2.56,7.68-5.973l17.067-51.2c0.853-2.56,0.853-5.12-0.853-7.68c-1.707-1.707-4.267-3.413-6.827-3.413h-8.533V51.2 H349.905z M290.172,204.8h-8.533h-51.2h-8.533v-34.133h68.267V204.8z M324.305,102.4H187.772V51.2h136.533V102.4z"/> </g> </g> </g>
</svg>