<?xml version="1.0" encoding="iso-8859-1"?>
<!-- Uploaded to: SVG Repo, www.svgrepo.com, Generator: SVG Repo Mixer Tools -->
<svg fill="#000000" version="1.1" id="Layer_1" xmlns="http://www.w3.org/2000/svg" xmlns:xlink="http://www.w3.org/1999/xlink" 
	 viewBox="0 0 496 496" xml:space="preserve">
<g>
	<g>
		<g>
			<rect x="480" y="480" width="16" height="16"/>
			<path d="M424,128h33.296L488,117.768V0H280v117.768L310.704,128H344v16H173.152C189.504,130.792,200,110.608,200,88v-8V64
				c0-28.864-21.96-52.696-50.048-55.672C147.224,3.392,142.032,0,136,0h-16c-6.032,0-11.224,3.392-13.952,8.328
				C77.96,11.304,56,35.136,56,64v16v8c0,22.608,10.496,42.792,26.848,56H72c-39.696,0-72,32.296-72,72v80c0,26.472,21.528,48,48,48
				v136H0v16h48h160h136h80h40v-16h-40V128z M152,24.808C170.232,28.52,184,44.68,184,64h-32V24.808z M120,16h16v48h-16V16z M120,80
				h16h16h16.336C159.28,84.272,146.2,88,128,88c-18.448,0-31.584-3.72-40.6-8H104H120z M104,24.808V64H72
				C72,44.68,85.768,28.52,104,24.808z M72.08,89.648C83.096,96.728,100.936,104,128,104s44.904-7.272,55.92-14.352
				C183.032,119.76,158.32,144,128,144S72.968,119.76,72.08,89.648z M139.872,160L128,187.688L116.128,160H139.872z M80,192v-32
				h18.728L120,209.64V248H64v-33.472C73.288,211.216,80,202.416,80,192z M64,312v-16h56v16H64z M80,328v8c0,8.824-7.176,16-16,16
				v-24H80z M64,280v-16h56v16H64z M48,328c-11.792,0-22-6.48-27.552-16H48V328z M56,200h-8v96H16v-80
				c0-28.152,20.904-51.456,48-55.36V192C64,196.416,60.408,200,56,200z M120,480H64v-16h56V480z M192,480h-56v-16h56V480z M192,448
				h-56v-88h-16v88H64v-80c17.648,0,32-14.352,32-32v-8h64v8c0,17.648,14.352,32,32,32V448z M192,352c-8.824,0-16-7.176-16-16v-8h16
				V352z M192,312h-56v-16h56V312z M192,280h-56v-16h56V280z M192,248h-56v-38.36L157.272,160H176v32
				c0,10.416,6.712,19.216,16,22.528V248z M200,200c-4.408,0-8-3.584-8-8v-32h112v40H200z M344,480H208V216h136V480z M344,200h-24
				v-40h24V200z M408,147.056l-27.576,13.792l7.16,14.312L408,164.944v78.112l-27.576,13.792l7.16,14.312L408,260.944v78.112
				l-27.576,13.792l7.16,14.312L408,356.944v78.112l-27.576,13.792l7.16,14.312L408,452.944V480h-48v-59.056l27.576-13.792
				l-7.16-14.312L360,403.056v-78.112l27.576-13.792l-7.16-14.312L360,307.056v-78.112l27.576-13.792l-7.16-14.312L360,211.056V128
				h48V147.056z M408,80v32h-16V80h-16v32h-16V80h-16v32h-16V80h-16v31.568l-16-5.336V48h144V32H296V16h176v16h-16v16h16v58.232
				l-16,5.336V80h-16v32h-16V80H408z"/>
			<path d="M288,440v16h1.368c12.456,0,24.168,4.848,32.976,13.656l11.312-11.312C321.824,446.512,306.096,440,289.368,440H288z"/>
			<path d="M310.656,416.408l2.688,4.032l13.312-8.872l-2.688-4.032C314.152,392.8,297.712,384,280,384v16
				C292.344,400,303.808,406.136,310.656,416.408z"/>
			<path d="M480,440h-1.368c-16.728,0-32.456,6.512-44.288,18.344l11.312,11.312c8.808-8.808,20.52-13.656,32.976-13.656H480V440z"
				/>
			<path d="M444.032,407.528l-2.688,4.032l13.312,8.872l2.688-4.032C464.192,406.136,475.656,400,488,400v-16
				C470.288,384,453.848,392.8,444.032,407.528z"/>
		</g>
	</g>
</g>
</svg>