<svg xmlns="http://www.w3.org/2000/svg" viewBox="0 0 100 100" id="radar"><path d="m83.2 19.63 7.21-7.22c.79-.78.79-2.04 0-2.82-.78-.79-2.04-.79-2.82 0l-7.22 7.21C72.06 9.18 61.35 5 50 5c-9.35 0-18.25 2.84-25.75 8.1-3.12-2.24-7.51-1.97-10.31.84-2.81 2.8-3.08 7.19-.84 10.31C7.84 31.75 5 40.65 5 50c0 12.02 4.68 23.32 13.18 31.82S37.98 95 50 95s23.32-4.68 31.82-13.18S95 62.02 95 50c0-11.35-4.18-22.06-11.8-30.37zm-66.43-2.86c.78-.78 1.8-1.17 2.82-1.17 1.03 0 2.05.39 2.83 1.17a3.94 3.94 0 0 1 1.17 2.82c0 1.07-.41 2.08-1.17 2.83-.75.76-1.76 1.17-2.83 1.17a3.94 3.94 0 0 1-2.82-1.17 3.996 3.996 0 0 1 0-5.65zm62.22 62.22C71.25 86.74 60.95 91 50 91s-21.25-4.26-28.99-12.01C13.26 71.25 9 60.95 9 50c0-8.4 2.52-16.41 7.18-23.18 1.05.5 2.21.77 3.41.77 2.14 0 4.15-.83 5.66-2.34s2.34-3.52 2.34-5.66c0-1.2-.27-2.36-.77-3.41C33.59 11.52 41.6 9 50 9c10.28 0 19.99 3.76 27.54 10.63l-5.68 5.68C66.04 20.15 58.38 17 50 17c-18.2 0-33 14.8-33 33s14.8 33 33 33c15.46 0 28.47-10.69 32.03-25.07C85.96 57.42 89 54.06 89 50s-3.04-7.42-6.97-7.93a32.901 32.901 0 0 0-7.34-13.93l5.68-5.68C87.24 30.01 91 39.72 91 50c0 10.95-4.26 21.25-12.01 28.99zM73 50c0 3.36 2.09 6.24 5.03 7.42C74.74 69.83 63.42 79 50 79c-15.99 0-29-13.01-29-29s13.01-29 29-29c7.28 0 13.93 2.7 19.03 7.14l-5.67 5.67C59.73 30.81 55.07 29 50 29c-11.58 0-21 9.42-21 21s9.42 21 21 21 21-9.42 21-21c0-5.07-1.81-9.73-4.81-13.36l5.67-5.67c2.87 3.3 5.02 7.25 6.17 11.61C75.09 43.76 73 46.64 73 50zm8-4c2.21 0 4 1.79 4 4s-1.79 4-4 4-4-1.79-4-4 1.79-4 4-4zm-32.41 5.41c.39.39.9.59 1.41.59s1.02-.2 1.41-.59l11.93-11.92C65.62 42.39 67 46.03 67 50c0 9.37-7.63 17-17 17s-17-7.63-17-17 7.63-17 17-17c3.97 0 7.61 1.38 10.51 3.66L48.59 48.59c-.79.78-.79 2.04 0 2.82z"></path></svg>
