<?xml version="1.0" encoding="UTF-8" standalone="no"?>
<!-- Created with Inkscape (http://www.inkscape.org/) -->

<svg
   width="189.3746"
   height="296.21671"
   viewBox="0 0 50.105363 78.374004"
   version="1.1"
   id="svg5"
   inkscape:version="1.3.2 (091e20e, 2023-11-25, custom)"
   sodipodi:docname="small-container.svg"
   inkscape:export-filename="small-container.svg"
   inkscape:export-xdpi="90.171371"
   inkscape:export-ydpi="90.171371"
   xmlns:inkscape="http://www.inkscape.org/namespaces/inkscape"
   xmlns:sodipodi="http://sodipodi.sourceforge.net/DTD/sodipodi-0.dtd"
   xmlns="http://www.w3.org/2000/svg"
   xmlns:svg="http://www.w3.org/2000/svg">
  <sodipodi:namedview
     id="namedview7"
     pagecolor="#505050"
     bordercolor="#eeeeee"
     borderopacity="1"
     inkscape:pageshadow="0"
     inkscape:pageopacity="0"
     inkscape:pagecheckerboard="0"
     inkscape:document-units="px"
     showgrid="true"
     inkscape:zoom="2.8284271"
     inkscape:cx="134.17351"
     inkscape:cy="119.32427"
     inkscape:window-width="3440"
     inkscape:window-height="1369"
     inkscape:window-x="1912"
     inkscape:window-y="-8"
     inkscape:window-maximized="1"
     inkscape:current-layer="layer3"
     fit-margin-top="2"
     fit-margin-left="2"
     fit-margin-right="2"
     fit-margin-bottom="2"
     lock-margins="true"
     inkscape:showpageshadow="0"
     inkscape:deskcolor="#505050">
    <inkscape:grid
       type="xygrid"
       id="grid843"
       originx="-76.298882"
       originy="-34.240845"
       spacingy="1"
       spacingx="1"
       units="px"
       visible="true" />
  </sodipodi:namedview>
  <defs
     id="defs2" />
  <g
     inkscape:groupmode="layer"
     id="layer3"
     inkscape:label="Calque 4"
     style="display:inline"
     transform="translate(-70.493672,-1.448134)">
    <path
       style="display:inline;fill:#075b80;fill-opacity:0.25;fill-rule:evenodd;stroke:none;stroke-width:0.140316;stroke-linecap:butt;stroke-linejoin:miter;stroke-dasharray:none;stroke-opacity:1"
       d="m 73.391041,76.349012 c 0,0 -0.08305,-31.319705 -0.08941,-31.256718 l -2.289829,-2.26945 0.03897,-25.390499 0.116075,-8.9824832 6.556491,-6.678366 4.423162,-0.029233 2.242137,2.1922861 8.716161,-0.047483 2.126101,-2.1331086 6.710401,-0.028327 10.86245,-0.00361 6.59244,6.5348189 c 0.0538,17.2343068 0.046,51.8171578 0.046,51.8171578 l -0.47909,16.486788 -1.95433,2.00482 -8.46523,0.105185 -2.32106,-2.315226 H 86.417637 l -2.104149,2.256761 c -2.517029,0.05921 -8.638667,0.04677 -8.638667,0.04677 z"
       id="path184"
       sodipodi:nodetypes="cccccccccccccccccccccc"
       inkscape:label="background"
       inkscape:export-filename="small-container.svg"
       inkscape:export-xdpi="90.171371"
       inkscape:export-ydpi="90.171371" />
    <path
       style="fill:none;stroke:#ffffff;stroke-width:0.264583;stroke-linecap:round;stroke-linejoin:miter;stroke-dasharray:none;stroke-opacity:1"
       d="m 71.022743,8.2191065 6.68073,-6.5153645 4.40507,0.00344 2.22167,2.1982939 8.76978,-0.023386 2.15152,-2.1515197 17.633107,-0.023386 6.57149,6.5481032 0.0234,17.4226316 -1e-5,20.018488 -0.0468,22.801431 0.0702,7.810952 -2.19831,2.315222 -8.79317,0.07016 -2.3386,-2.315224 H 86.434963 l -2.15152,2.26845 -8.62946,0.02339 -2.33861,-2.29184 -0.0468,-25.3739 0.0234,-5.963452 -2.28577,-2.261292 -0.0165,-11.790495 -3e-5,-12.7 z"
       id="path1" />
    <path
       style="fill:none;stroke:#ffffff;stroke-width:0.264583;stroke-linecap:round;stroke-linejoin:miter;stroke-dasharray:none;stroke-opacity:1"
       d="m 108.5605,1.7368149 0.81029,0.9260416 h 3.12539 l 3.30729,3.3072917 1.37252,0.1157552"
       id="path3" />
    <path
       style="fill:none;stroke:#ffffff;stroke-width:0.264583;stroke-linecap:round;stroke-linejoin:miter;stroke-dasharray:none;stroke-opacity:1"
       d="m 119.40842,20.985252 -1.09141,1.12448 v 6.746874 l 1.05833,1.008724"
       id="path4" />
    <path
       style="fill:none;stroke:#ffffff;stroke-width:0.264583;stroke-linecap:round;stroke-linejoin:miter;stroke-dasharray:none;stroke-opacity:1"
       d="m 119.47456,44.053611 -0.92604,0.711068 0.0331,15.279687 0.0165,15.792318 -1.86861,1.918229 -3.27422,0.01654 -0.97565,0.909501"
       id="path5" />
    <path
       style="fill:none;stroke:#fefefe;stroke-width:0.264583;stroke-linecap:round;stroke-linejoin:miter;stroke-dasharray:none;stroke-opacity:1"
       d="m 73.329583,74.075551 0.87643,0.760677 -0.008,1.198893 2.57115,2.538346"
       id="path6" />
    <path
       style="fill:none;stroke:#ffffff;stroke-width:0.264583;stroke-linecap:round;stroke-linejoin:miter;stroke-dasharray:none;stroke-opacity:1"
       d="m 73.321313,63.20283 0.99218,-0.909505 0.0331,-9.475392 -0.99221,-0.909505"
       id="path8" />
    <path
       style="fill:none;stroke:#ffffff;stroke-width:0.264583;stroke-linecap:round;stroke-linejoin:miter;stroke-dasharray:none;stroke-opacity:1"
       d="m 71.022743,17.347231 1.15755,-1.174088 0.0165,-7.5571616 3.20811,-3.2080729 0.19844,-1.6040364"
       id="path9" />
    <path
       style="fill:#ffffff;fill-rule:evenodd;stroke:#ffffff;stroke-width:0.0330729;stroke-linecap:round;stroke-dasharray:none;stroke-opacity:1"
       d="m 71.084755,12.658088 0.05788,-4.4691152 2.025716,-2.0133505 c 1.148442,-1.1414342 2.158383,-2.2656999 2.339832,-2.2002057 0.09441,0.034079 0.0285,0.4071723 -0.0048,0.7034337 l -0.07502,0.6670466 -1.628158,1.6003481 -1.648826,1.5879456 0.01241,3.7951304 -0.0041,3.799266 -0.504362,0.453833 -0.570386,0.568636 z"
       id="path10"
       sodipodi:nodetypes="ccssscccccccc" />
    <path
       style="fill:#ffffff;fill-rule:evenodd;stroke:#ffffff;stroke-width:0.0330729;stroke-linecap:round;stroke-dasharray:none;stroke-opacity:1"
       d="m 116.24136,5.8580982 -0.41625,0.05969 -1.6861,-1.6892265 -1.61009,-1.6249147 -1.47542,-0.023386 -1.63913,0.00292 -0.3056,-0.3633866 -0.31437,-0.413082 2.06515,2.38e-4 1.99499,-0.043611 2.05864,2.0849465 c 0.0197,0.01996 2.14923,2.1801581 2.20993,2.1710041 0.0385,-0.00581 -0.72524,-0.017039 -0.77067,-0.058881 z"
       id="path11"
       sodipodi:nodetypes="ccccccccccsssc" />
    <path
       style="fill:#ffffff;fill-rule:evenodd;stroke:#ffffff;stroke-width:0.0330729;stroke-linecap:round;stroke-dasharray:none;stroke-opacity:1"
       d="m 118.82344,29.244078 -0.45268,-0.425355 0.0512,-3.30902 -0.005,-3.379301 0.38735,-0.424068 0.54652,-0.484012 0.0986,0.610103 c 0.005,0.03366 0.0616,4.158442 0.0616,4.158442 l -0.0991,3.759179 z"
       id="path12"
       sodipodi:nodetypes="ccccccsccc" />
    <path
       style="fill:#ffffff;fill-rule:evenodd;stroke:#ffffff;stroke-width:0.0330729;stroke-linecap:round;stroke-dasharray:none;stroke-opacity:1"
       d="m 113.14729,78.158826 0.27862,-0.307703 1.8013,-0.04976 1.52652,-0.04394 0.96994,-0.892212 0.98164,-0.98576 -0.073,-15.388593 -0.0558,-15.738213 0.37703,-0.195302 c 0,0 0.4572,-0.318209 0.46195,-0.313359 0.005,0.0048 0.0541,12.190595 0.0541,12.190595 l -0.007,14.848736 -2.7e-4,3.908452 -0.0298,1.092409 -1.05653,1.161566 -1.06822,1.126484 -0.45109,0.02675 -2.22834,0.05238 -1.86495,-0.07362 z"
       id="path13"
       sodipodi:nodetypes="cccccccccscccccccccc" />
    <path
       style="fill:#ffffff;fill-rule:evenodd;stroke:#ffffff;stroke-width:0.0330729;stroke-linecap:round;stroke-dasharray:none;stroke-opacity:1"
       d="m 74.550051,77.494462 -1.155597,-1.161685 0.0089,-0.980397 0.02958,-1.03414 0.383976,0.314804 0.334368,0.227989 -0.08629,0.645864 5.29e-4,0.596254 1.331185,1.17302 1.347721,1.247433 -0.519356,0.09521 -0.548293,1.27e-4 z"
       id="path14"
       sodipodi:nodetypes="ccccccccccccc" />
    <path
       style="fill:#ffffff;fill-rule:evenodd;stroke:#ffffff;stroke-width:0.0330729;stroke-linecap:round;stroke-dasharray:none;stroke-opacity:1"
       d="m 73.308009,57.540289 0.03066,-5.484506 c 0,0 0.546971,0.400976 0.551937,0.405731 l 0.429157,0.410874 0.02365,1.644647 -0.01577,4.274534 -0.02199,3.518562 -0.432353,0.354761 -0.508357,0.383993 z"
       id="path15"
       sodipodi:nodetypes="cccccccccc" />
    <path
       id="rect16"
       style="display:inline;fill:#ffffff;fill-rule:evenodd;stroke:#ffffff;stroke-width:0.264583;stroke-linecap:round;stroke-dasharray:none;stroke-opacity:1"
       d="m 85.994953,1.5812688 -0.66353,1.3291178 0.70435,0.00672 0.66353,-1.3286011 z m 1.51205,0.015503 -0.66301,1.3291178 0.70435,0.00672 0.66301,-1.3286011 z m 1.57097,0.016536 -0.66301,1.3291178 0.70435,0.00672 0.66301,-1.328601 z m 1.51308,0.016536 -0.66301,1.3291178 0.70435,0.00672 0.66301,-1.328601 z m 1.46348,0.00827 -0.66301,1.3291178 0.70435,0.00672 0.66301,-1.328601 z m 25.618587,9.2247602 v 1.111043 h 1.11052 v -1.111043 z m 0.004,1.982307 v 1.111044 h 1.11104 v -1.111044 z m -0.006,2.014348 v 1.111043 h 1.11053 v -1.111043 z m 0.004,2.006079 v 1.110526 h 1.11104 v -1.110527 z m -46.256087,30.976403 -0.007,0.70435 1.3286,0.663008 0.007,-0.70435 z m -0.008,1.463476 -0.007,0.70435 1.3286,0.663009 0.007,-0.70435 z m -0.0165,1.513086 -0.007,0.70435 1.3286,0.663009 0.007,-0.70435 z m -0.0165,1.570964 -0.007,0.70435 1.3286,0.663008 0.007,-0.70435 z m -0.0155,1.512052 -0.007,0.70435 1.3286,0.663009 0.007,-0.70435 z m 16.08119,23.448181 v 1.111043 h 1.11104 V 77.34977 Z m 13.998107,0.0083 v 1.111043 h 1.11104 v -1.111076 z m -11.592057,0.0083 v 1.111043 h 1.11105 V 77.36637 Z m 2.38125,0 v 1.111043 h 1.11105 V 77.36637 Z" />
    <path
       style="fill:none;stroke:#ffffff;stroke-width:0.264583px;stroke-linecap:butt;stroke-linejoin:miter;stroke-opacity:1"
       d="m 114.92704,1.7202784 5.4901,5.4570312 0.0496,18.6035154"
       id="path16" />
    <path
       style="fill:none;stroke:#fafafa;stroke-width:0.264583px;stroke-linecap:butt;stroke-linejoin:miter;stroke-opacity:1"
       d="m 85.144873,79.656606 -10.71562,0.03307 -3.79159,-3.673213 -0.0117,-25.034802"
       id="path17" />
    <path
       style="fill:none;stroke:#ffffff;stroke-width:0.396875;stroke-linecap:butt;stroke-linejoin:miter;stroke-dasharray:none;stroke-opacity:1"
       d="m 71.245983,74.612986 0.76068,-0.686263 0.71106,0.653189"
       id="path183" />
    <path
       style="fill:none;stroke:#ffffff;stroke-width:0.396875;stroke-linecap:butt;stroke-linejoin:miter;stroke-dasharray:none;stroke-opacity:1"
       d="m 71.238343,73.58322 0.76068,-0.686263 0.71106,0.653189"
       id="path183-1" />
    <path
       style="fill:none;stroke:#ffffff;stroke-width:0.396875;stroke-linecap:butt;stroke-linejoin:miter;stroke-dasharray:none;stroke-opacity:1"
       d="m 71.221813,72.566228 0.76068,-0.686263 0.71106,0.653189"
       id="path183-7" />
    <path
       style="fill:none;stroke:#ffffff;stroke-width:0.396875;stroke-linecap:butt;stroke-linejoin:miter;stroke-dasharray:none;stroke-opacity:1"
       d="m 71.213543,71.565772 0.76068,-0.686263 0.71106,0.653189"
       id="path183-19" />
    <path
       style="fill:none;stroke:#ffffff;stroke-width:0.396875;stroke-linecap:butt;stroke-linejoin:miter;stroke-dasharray:none;stroke-opacity:1"
       d="m 71.205273,70.590121 0.76068,-0.686263 0.71106,0.653189"
       id="path183-70" />
    <path
       style="fill:none;stroke:#ffffff;stroke-width:0.396875;stroke-linecap:butt;stroke-linejoin:miter;stroke-dasharray:none;stroke-opacity:1"
       d="m 71.202883,69.619028 0.76068,-0.686263 0.71106,0.653189"
       id="path183-2" />
    <path
       style="fill:none;stroke:#ffffff;stroke-width:0.396875;stroke-linecap:butt;stroke-linejoin:miter;stroke-dasharray:none;stroke-opacity:1"
       d="m 71.172733,68.697457 0.76068,-0.686263 0.71106,0.653189"
       id="path183-8" />
    <path
       style="fill:none;stroke:#ffffff;stroke-width:0.396875;stroke-linecap:butt;stroke-linejoin:miter;stroke-dasharray:none;stroke-opacity:1"
       d="m 71.165093,67.667691 0.76068,-0.686263 0.71106,0.653189"
       id="path183-1-7" />
    <path
       style="fill:none;stroke:#ffffff;stroke-width:0.396875;stroke-linecap:butt;stroke-linejoin:miter;stroke-dasharray:none;stroke-opacity:1"
       d="m 71.148563,66.650699 0.76068,-0.686263 0.71106,0.653189"
       id="path183-7-6" />
    <path
       style="fill:none;stroke:#ffffff;stroke-width:0.396875;stroke-linecap:butt;stroke-linejoin:miter;stroke-dasharray:none;stroke-opacity:1"
       d="m 71.140293,65.650243 0.76068,-0.686263 0.71106,0.653189"
       id="path183-19-3" />
  </g>
</svg>
