<!DOCTYPE svg PUBLIC "-//W3C//DTD SVG 1.1//EN" "http://www.w3.org/Graphics/SVG/1.1/DTD/svg11.dtd">
<!-- Uploaded to: SVG Repo, www.svgrepo.com, Transformed by: SVG Repo Mixer Tools -->
<svg fill="#ffffff" version="1.1" id="Layer_1" xmlns="http://www.w3.org/2000/svg" xmlns:xlink="http://www.w3.org/1999/xlink" viewBox="0 0 512 512" xml:space="preserve" width="800px" height="800px" stroke="#ffffff">
<g id="SVGRepo_bgCarrier" stroke-width="0"/>
<g id="SVGRepo_tracerCarrier" stroke-linecap="round" stroke-linejoin="round"/>
<g id="SVGRepo_iconCarrier"> <g> <g> <g> <rect x="315.733" y="375.467" width="17.067" height="17.067"/> <polygon points="366.933,460.8 384,460.8 384,443.733 375.467,443.733 366.933,443.733 "/> <path d="M366.933,426.667v-51.2h-17.067v25.6c0,4.719-3.823,8.533-8.533,8.533H307.2c-4.71,0-8.533-3.814-8.533-8.533v-25.6 H281.6v51.2h8.533h34.133H358.4H366.933z"/> <polygon points="273.067,443.733 264.533,443.733 264.533,460.8 281.6,460.8 281.6,443.733 "/> <path d="M298.667,469.333c0,4.719-3.823,8.533-8.533,8.533H256c-4.71,0-8.533-3.814-8.533-8.533v-25.6H230.4v51.2h85.333v-51.2 h-17.067V469.333z"/> <path d="M401.067,469.333c0,4.719-3.823,8.533-8.533,8.533H358.4c-4.71,0-8.533-3.814-8.533-8.533v-25.6H332.8v51.2h85.333v-51.2 h-17.067V469.333z"/> <path d="M162.133,460.8c-9.412,0-17.067,7.654-17.067,17.067s7.654,17.067,17.067,17.067c9.412,0,17.067-7.654,17.067-17.067 S171.546,460.8,162.133,460.8z"/> <path d="M110.933,460.8c-9.412,0-17.067,7.654-17.067,17.067s7.654,17.067,17.067,17.067c9.412,0,17.067-7.654,17.067-17.067 S120.346,460.8,110.933,460.8z"/> <rect x="59.733" y="196.267" width="392.533" height="17.067"/> <rect x="51.2" y="145.067" width="409.6" height="34.133"/> <path d="M59.733,494.933h21.811c-2.935-5.043-4.745-10.82-4.745-17.067c0-18.825,15.309-34.133,34.133-34.133 c10.24,0,19.337,4.625,25.6,11.793c6.263-7.168,15.36-11.793,25.6-11.793c18.825,0,34.133,15.309,34.133,34.133 c0,6.246-1.809,12.023-4.745,17.067h21.811V435.2c0-4.719,3.823-8.533,8.533-8.533H256h8.533v-59.733 c0-4.719,3.823-8.533,8.533-8.533H307.2h34.133h34.133c4.71,0,8.533,3.814,8.533,8.533v59.733h8.533h34.133 c4.71,0,8.533,3.814,8.533,8.533v59.733h17.067V332.8H59.733V494.933z"/> <rect x="145.067" y="51.2" width="221.867" height="42.667"/> <rect x="59.733" y="298.667" width="392.533" height="17.067"/> <rect x="59.733" y="264.533" width="392.533" height="17.067"/> <rect x="59.733" y="230.4" width="392.533" height="17.067"/> <path d="M477.338,0H34.662C15.548,0,0,15.548,0,34.662v468.804C0,508.186,3.823,512,8.533,512h34.133v-8.533v-8.533V324.267v-128 c-4.71,0-8.533-3.814-8.533-8.533v-51.2c0-4.719,3.823-8.533,8.533-8.533h426.667c4.71,0,8.533,3.814,8.533,8.533v51.2 c0,4.719-3.823,8.533-8.533,8.533v128v170.667v8.533V512h34.133c4.71,0,8.533-3.814,8.533-8.533V34.662 C512,15.548,496.452,0,477.338,0z M384,102.4c0,4.719-3.823,8.533-8.533,8.533H136.533c-4.71,0-8.533-3.814-8.533-8.533V42.667 c0-4.719,3.823-8.533,8.533-8.533h238.933c4.71,0,8.533,3.814,8.533,8.533V102.4z"/> </g> </g> </g> </g>
</svg>