<!DOCTYPE svg PUBLIC "-//W3C//DTD SVG 1.1//EN" "http://www.w3.org/Graphics/SVG/1.1/DTD/svg11.dtd">
<!-- Uploaded to: SVG Repo, www.svgrepo.com, Transformed by: SVG Repo Mixer Tools -->
<svg fill="#000000" height="800px" width="800px" version="1.1" id="Layer_1" xmlns="http://www.w3.org/2000/svg" xmlns:xlink="http://www.w3.org/1999/xlink" viewBox="0 0 512 512" xml:space="preserve" stroke="#00d492" stroke-width="12.8">
<g id="SVGRepo_bgCarrier" stroke-width="0"/>
<g id="SVGRepo_tracerCarrier" stroke-linecap="round" stroke-linejoin="round" stroke="#00d492" stroke-width="1.024"/>
<g id="SVGRepo_iconCarrier"> <g> <g> <path d="M476.92,493.76L240.333,256.32L476.707,18.24c4.16-4.16,4.16-10.88,0-15.04C474.68,1.067,472.013,0,469.24,0H286.627 c-2.88,0-5.547,1.173-7.573,3.2L35.107,248.853c-4.16,4.16-4.16,10.88,0,15.04l244.16,245.013 c2.027,2.027,4.693,3.093,7.573,3.093h182.507c5.867,0,10.667-4.8,10.667-10.667C480.013,498.56,478.947,495.787,476.92,493.76z M291.213,490.667L57.72,256.32L291,21.333h152.533L217.72,248.853c-4.16,4.16-4.16,10.88,0,15.04l225.92,226.773H291.213z"/> </g> </g> </g>
</svg>