<!DOCTYPE svg PUBLIC "-//W3C//DTD SVG 1.1//EN" "http://www.w3.org/Graphics/SVG/1.1/DTD/svg11.dtd">
<!-- Uploaded to: SVG Repo, www.svgrepo.com, Transformed by: SVG Repo Mixer Tools -->
<svg fill="#000000" height="800px" width="800px" version="1.1" id="Layer_1" xmlns="http://www.w3.org/2000/svg" xmlns:xlink="http://www.w3.org/1999/xlink" viewBox="0 0 511.893 511.893" xml:space="preserve" stroke="#00d492" stroke-width="12.797324999999999">
<g id="SVGRepo_bgCarrier" stroke-width="0"/>
<g id="SVGRepo_tracerCarrier" stroke-linecap="round" stroke-linejoin="round"/>
<g id="SVGRepo_iconCarrier"> <g> <g> <path d="M476.84,248.107L233.64,3.2c-2.027-2.027-4.693-3.2-7.573-3.2H42.6c-5.867,0-10.667,4.8-10.667,10.667 c0,2.88,1.173,5.547,3.093,7.573l237.76,237.44L35.24,493.76c-4.16,4.16-4.16,10.88,0,15.04c2.027,2.027,4.693,3.093,7.573,3.093 H226.28c2.88,0,5.547-1.173,7.573-3.2L476.84,263.04C481,258.987,481,252.267,476.84,248.107z M221.8,490.667H68.52 l226.987-227.52c4.16-4.16,4.16-10.88,0-15.04L68.413,21.333h153.28l232.64,234.347L221.8,490.667z"/> </g> </g> </g>
</svg>