<!DOCTYPE svg PUBLIC "-//W3C//DTD SVG 1.1//EN" "http://www.w3.org/Graphics/SVG/1.1/DTD/svg11.dtd">
<!-- Uploaded to: SVG Repo, www.svgrepo.com, Transformed by: SVG Repo Mixer Tools -->
<svg fill="#000000" width="800px" height="800px" viewBox="-2.4 -2.4 28.80 28.80" id="scan-alt" xmlns="http://www.w3.org/2000/svg" class="icon multi-color" stroke="#000000" transform="matrix(1, 0, 0, 1, 0, 0)rotate(180)">

<g id="SVGRepo_bgCarrier" stroke-width="0"/>

<g id="SVGRepo_tracerCarrier" stroke-linecap="round" stroke-linejoin="round"/>

<g id="SVGRepo_iconCarrier">

<path id="primary-stroke" d="M8,21H4a1,1,0,0,1-1-1V16m13,5h4a1,1,0,0,0,1-1V16M8,3H4A1,1,0,0,0,3,4V8M21,8V4a1,1,0,0,0-1-1H16" style="fill: none; stroke: #ffffff; stroke-linecap: round; stroke-linejoin: round; stroke-width:1.8;"/>

<path id="secondary-stroke" d="M12,16V8M8,14V10m8,4V10" style="fill: none; stroke: #00e8e2; stroke-linecap: round; stroke-linejoin: round; stroke-width:1.8;"/>

</g>

</svg>
