<!DOCTYPE svg PUBLIC "-//W3C//DTD SVG 1.1//EN" "http://www.w3.org/Graphics/SVG/1.1/DTD/svg11.dtd">
<!-- Uploaded to: SVG Repo, www.svgrepo.com, Transformed by: SVG Repo Mixer Tools -->
<svg height="800px" width="800px" version="1.1" id="_x32_" xmlns="http://www.w3.org/2000/svg" xmlns:xlink="http://www.w3.org/1999/xlink" viewBox="0 0 512 512" xml:space="preserve" fill="#ffffff" stroke="#ffffff">

<g id="SVGRepo_bgCarrier" stroke-width="0"/>

<g id="SVGRepo_tracerCarrier" stroke-linecap="round" stroke-linejoin="round"/>

<g id="SVGRepo_iconCarrier"> <style type="text/css"> .st0{fill:#ffffff;} </style> <g> <path class="st0" d="M445.507,236.44V66.497h-169.95V0.004h-39.113v66.493H66.492V236.44H0v39.12h66.492v169.95h169.951v66.485 h39.113v-66.485h169.95v-18.339V275.561H512v-39.12H445.507z M408.829,236.44h-55.217v39.12h55.217v133.273H275.556v-55.232 h-39.113v55.232H103.17V275.561h55.232v-39.12H103.17V103.175h133.273v55.217h39.113v-55.217h133.272V236.44z"/> <path class="st0" d="M256,233.997c-12.149,0-22.007,9.857-22.007,22.007c0,12.149,9.858,22.006,22.007,22.006 c12.15,0,22.007-9.858,22.007-22.006C278.006,243.854,268.15,233.997,256,233.997z"/> </g> </g>

</svg>
