<?xml version="1.0" standalone="no"?>
<!DOCTYPE svg PUBLIC "-//W3C//DTD SVG 20010904//EN"
 "http://www.w3.org/TR/2001/REC-SVG-20010904/DTD/svg10.dtd">
<svg version="1.0" xmlns="http://www.w3.org/2000/svg"
 width="512.000000pt" height="512.000000pt" viewBox="0 0 512.000000 512.000000"
 preserveAspectRatio="xMidYMid meet">
<metadata>
Created by potrace 1.16, written by Peter Selinger 2001-2019
</metadata>
<g transform="translate(0.000000,512.000000) scale(0.100000,-0.100000)"
fill="#000000" stroke="none">
<path d="M17 5102 c-15 -16 -17 -45 -16 -203 0 -101 3 -178 6 -171 2 6 11 12
19 12 8 0 14 5 14 11 0 6 7 9 15 6 8 -4 17 -1 21 5 5 7 2 8 -7 4 -8 -4 -3 2
11 13 24 20 36 25 52 22 5 0 7 3 5 7 -3 12 66 79 90 86 13 4 30 20 40 36 9 16
25 31 36 34 10 2 16 9 12 15 -3 7 0 8 9 5 12 -4 16 0 16 15 0 24 28 40 39 23
4 -7 12 -8 21 -2 12 7 12 10 -3 16 -16 6 -15 9 10 25 15 11 34 17 41 14 7 -3
10 0 7 5 -3 6 2 10 12 10 10 0 27 7 37 15 18 13 -8 15 -226 15 -225 0 -246 -2
-261 -18z"/>
<path d="M605 5110 c-3 -5 -2 -10 4 -10 5 0 13 5 16 10 3 6 2 10 -4 10 -5 0
-13 -4 -16 -10z"/>
<path d="M4900 5106 c14 -8 35 -20 48 -25 24 -12 31 -27 7 -17 -20 7 -20 -24
1 -50 8 -10 13 -13 9 -6 -3 6 0 12 7 12 7 0 22 -19 33 -43 25 -53 54 -87 74
-87 14 0 14 -2 1 -10 -12 -7 -11 -10 5 -16 11 -4 23 -9 28 -11 4 -2 7 53 7
122 0 82 -4 124 -10 120 -5 -3 -10 -1 -10 6 0 8 -4 8 -15 -1 -13 -11 -14 -10
-10 1 4 12 -14 15 -97 17 -95 2 -101 2 -78 -12z m88 -41 c-3 -3 -9 2 -12 12
-6 14 -5 15 5 6 7 -7 10 -15 7 -18z"/>
<path d="M1810 5071 c-298 -108 -619 -287 -854 -475 -111 -89 -308 -290 -398
-406 -325 -419 -491 -872 -518 -1409 -5 -97 -16 -212 -24 -256 -13 -76 -14
-302 -2 -364 58 -276 155 -572 236 -716 15 -27 51 -95 80 -149 28 -55 73 -131
98 -170 26 -38 52 -77 57 -85 6 -9 13 -18 16 -21 4 -3 21 -29 38 -58 17 -29
35 -58 41 -65 45 -55 63 -80 82 -114 30 -51 184 -190 224 -202 17 -5 70 -40
117 -79 48 -39 113 -87 147 -108 33 -20 60 -38 60 -40 0 -13 -173 75 -251 128
-35 24 -77 50 -94 58 -47 24 -262 245 -345 354 -228 302 -375 576 -481 896
l-38 115 4 -170 c2 -93 6 -188 9 -210 5 -52 125 -290 214 -425 104 -160 213
-289 393 -465 232 -227 409 -355 670 -487 148 -74 343 -148 389 -147 31 0 25
4 -45 30 -127 47 -225 91 -225 101 0 5 -4 6 -10 3 -5 -3 -10 -3 -11 2 0 4 -2
22 -5 40 -2 18 1 44 6 58 l10 26 41 -22 c143 -73 466 -174 687 -214 123 -23
233 -34 132 -14 -260 53 -511 120 -518 139 -2 5 -10 6 -19 3 -13 -5 -13 -2 2
20 16 25 16 27 -2 45 -10 10 -61 36 -113 56 -217 85 -498 253 -637 381 -141
129 -382 438 -503 645 -185 317 -290 614 -345 977 -8 57 -15 121 -15 143 0 22
-3 39 -7 39 -36 -6 -36 -5 -30 259 4 201 9 283 26 377 73 412 210 723 470
1070 123 163 313 358 451 461 245 183 537 342 820 445 58 21 98 38 90 38 -8 0
-62 -17 -120 -38z"/>
<path d="M405 5050 c-3 -5 -1 -10 4 -10 6 0 11 5 11 10 0 6 -2 10 -4 10 -3 0
-8 -4 -11 -10z"/>
<path d="M4573 4984 c9 -17 14 -34 12 -38 -3 -3 -3 -5 0 -3 5 4 49 -35 232
-202 110 -100 207 -212 272 -315 l31 -50 0 75 0 75 -52 50 c-29 28 -82 73
-118 101 -36 28 -83 70 -105 93 -33 34 -192 170 -269 230 -19 15 -19 14 -3
-16z"/>
<path d="M909 4923 c-13 -16 -12 -17 4 -4 9 7 17 15 17 17 0 8 -8 3 -21 -13z"/>
<path d="M344 4888 l-29 -33 33 29 c30 28 37 36 29 36 -2 0 -16 -15 -33 -32z"/>
<path d="M859 4883 c-13 -16 -12 -17 4 -4 9 7 17 15 17 17 0 8 -8 3 -21 -13z"/>
<path d="M730 4777 c-126 -113 -255 -246 -344 -359 -82 -103 -129 -168 -123
-168 2 0 31 35 63 78 125 167 277 329 454 485 36 31 63 57 60 57 -3 0 -52 -42
-110 -93z"/>
<path d="M4420 4857 c0 -2 15 -16 33 -33 l32 -29 -29 33 c-28 30 -36 37 -36
29z"/>
<path d="M1958 4813 c7 -3 16 -2 19 1 4 3 -2 6 -13 5 -11 0 -14 -3 -6 -6z"/>
<path d="M1825 4776 c-413 -152 -738 -367 -1020 -676 -68 -75 -204 -252 -238
-309 -33 -55 -11 -33 36 38 126 190 352 429 540 570 216 161 428 275 697 372
58 21 98 38 90 38 -8 0 -55 -15 -105 -33z"/>
<path d="M224 4768 l-29 -33 33 29 c30 28 37 36 29 36 -2 0 -16 -15 -33 -32z"/>
<path d="M4535 4750 c10 -11 20 -20 23 -20 3 0 -3 9 -13 20 -10 11 -20 20 -23
20 -3 0 3 -9 13 -20z"/>
<path d="M4630 4645 c19 -19 36 -35 39 -35 3 0 -10 16 -29 35 -19 19 -36 35
-39 35 -3 0 10 -16 29 -35z"/>
<path d="M1740 4445 c-14 -8 -20 -14 -15 -14 6 0 21 6 35 14 14 8 21 14 15 14
-5 0 -21 -6 -35 -14z"/>
<path d="M2390 4400 c-214 -23 -441 -87 -640 -181 -68 -33 -130 -57 -138 -54
-16 6 -163 -90 -266 -174 -74 -61 -180 -168 -256 -261 l-45 -55 45 35 c24 19
58 49 75 65 43 43 259 214 330 262 33 23 96 59 140 81 547 273 1032 311 1624
128 63 -20 116 -34 118 -32 8 7 -180 86 -272 115 -206 63 -504 93 -715 71z"/>
<path d="M1608 4379 c-21 -11 -38 -22 -38 -24 0 -3 18 4 40 15 22 11 40 23 40
25 0 7 0 7 -42 -16z"/>
<path d="M1482 4306 c-289 -179 -556 -455 -723 -749 -61 -108 -169 -356 -168
-387 0 -8 13 20 29 63 39 105 120 272 176 365 164 271 437 545 702 706 53 32
71 46 59 46 -2 0 -35 -20 -75 -44z"/>
<path d="M2398 4283 c7 -3 16 -2 19 1 4 3 -2 6 -13 5 -11 0 -14 -3 -6 -6z"/>
<path d="M2753 4283 c9 -2 23 -2 30 0 6 3 -1 5 -18 5 -16 0 -22 -2 -12 -5z"/>
<path d="M2838 4273 c7 -3 16 -2 19 1 4 3 -2 6 -13 5 -11 0 -14 -3 -6 -6z"/>
<path d="M243 4228 c-15 -20 -25 -38 -20 -38 3 0 12 11 21 25 17 26 16 35 -1
13z"/>
<path d="M3600 4216 c0 -2 8 -10 18 -17 15 -13 16 -12 3 4 -13 16 -21 21 -21
13z"/>
<path d="M2369 4179 c-423 -62 -854 -344 -1127 -737 -56 -80 -121 -208 -143
-280 -7 -23 -16 -42 -22 -42 -5 0 -7 -6 -4 -14 3 -7 2 -17 -3 -22 -12 -13 -46
-136 -67 -239 -25 -130 -25 -437 1 -555 53 -242 191 -529 359 -745 159 -203
342 -358 605 -510 35 -20 66 -43 68 -50 3 -8 12 -11 20 -8 8 3 14 0 14 -5 0
-15 164 -66 275 -87 116 -22 331 -23 445 -2 46 9 86 14 88 12 32 -32 -127 -60
-328 -59 -155 1 -276 20 -417 65 -430 138 -765 410 -1040 844 -90 143 -183
390 -229 610 -68 326 -10 691 161 1023 91 176 179 296 325 444 129 130 123
138 -9 13 -310 -295 -502 -709 -536 -1160 -11 -149 34 -423 100 -605 9 -25 27
-79 40 -120 94 -301 230 -542 413 -731 36 -37 61 -72 58 -78 -4 -7 -1 -9 8 -5
9 3 20 -3 28 -15 7 -12 19 -21 26 -21 7 0 12 -8 10 -18 -2 -14 3 -16 30 -14
26 3 39 -3 61 -27 16 -17 31 -31 34 -31 3 0 35 -18 70 -40 143 -90 418 -178
623 -201 214 -23 482 15 557 80 10 8 27 16 39 18 12 2 26 7 32 12 6 5 22 12
36 16 49 14 106 44 124 64 10 11 24 17 32 14 9 -3 14 2 14 16 l0 20 -46 -20
c-26 -11 -49 -17 -51 -15 -11 11 13 29 90 67 86 43 147 84 147 99 0 5 -42 -13
-92 -40 -116 -61 -236 -106 -353 -131 -107 -24 -382 -39 -371 -20 4 6 10 9 14
7 4 -2 7 7 7 20 0 28 -11 32 -165 59 -391 67 -721 298 -973 680 -151 230 -238
501 -253 790 -14 263 61 579 176 745 9 14 23 42 30 63 6 21 26 57 44 80 17 23
52 72 78 108 70 99 254 256 400 343 184 109 331 162 543 196 191 32 400 22
590 -26 135 -34 382 -154 490 -238 187 -145 361 -354 455 -544 27 -57 66 -124
86 -150 20 -27 33 -54 31 -64 -3 -10 -1 -16 3 -13 5 3 16 -15 25 -40 10 -24
21 -42 26 -39 5 3 6 -1 3 -9 -3 -8 2 -40 11 -72 10 -32 23 -110 31 -174 l13
-116 -5 95 c-9 184 -15 246 -29 295 -7 28 -14 40 -14 28 -1 -13 -5 -23 -9 -23
-9 0 -39 80 -34 93 1 4 -3 7 -9 7 -5 0 -7 5 -4 10 3 6 2 10 -3 10 -6 0 -17 17
-25 38 -25 61 -123 230 -185 315 -73 102 -233 270 -333 351 -423 338 -971 424
-1436 226 -340 -145 -638 -418 -790 -725 -78 -157 -140 -352 -163 -515 -29
-204 -7 -457 55 -639 26 -78 26 -92 -3 -84 -41 10 -107 195 -132 368 -36 258
35 623 172 875 42 76 88 148 110 172 7 7 25 29 39 48 15 20 53 60 85 90 31 30
82 80 113 110 159 156 250 222 414 300 190 91 382 139 582 148 180 7 411 -32
565 -95 89 -36 96 -40 196 -91 34 -18 69 -32 79 -32 9 0 28 -9 42 -20 15 -11
29 -18 32 -14 9 8 -33 37 -137 95 -176 98 -336 155 -517 184 -96 16 -322 18
-416 4z"/>
<path d="M3640 4186 c0 -2 8 -10 18 -17 15 -13 16 -12 3 4 -13 16 -21 21 -21
13z"/>
<path d="M3695 4144 c11 -11 65 -62 120 -114 85 -80 89 -83 30 -22 -38 41 -92
92 -120 115 -27 22 -41 32 -30 21z"/>
<path d="M180 4130 c-6 -11 -8 -20 -6 -20 3 0 10 9 16 20 6 11 8 20 6 20 -3 0
-10 -9 -16 -20z"/>
<path d="M1725 4090 c-3 -6 1 -7 9 -4 18 7 21 14 7 14 -6 0 -13 -4 -16 -10z"/>
<path d="M130 4050 c-6 -11 -8 -20 -6 -20 3 0 10 9 16 20 6 11 8 20 6 20 -3 0
-10 -9 -16 -20z"/>
<path d="M1655 4060 c-3 -6 1 -7 9 -4 18 7 21 14 7 14 -6 0 -13 -4 -16 -10z"/>
<path d="M1539 3989 l-24 -20 28 17 c15 9 27 18 27 20 0 8 -8 4 -31 -17z"/>
<path d="M2420 3983 c-71 -7 -232 -45 -295 -68 -183 -69 -342 -171 -476 -304
-93 -94 -149 -170 -198 -271 -17 -36 -25 -57 -19 -46 183 273 342 419 583 537
415 203 907 164 1302 -102 92 -63 175 -132 292 -244 104 -99 89 -65 -23 53
-223 234 -518 394 -807 436 -96 14 -267 19 -359 9z"/>
<path d="M2396 3893 c-3 -4 -28 -8 -54 -10 -29 -1 -51 -8 -58 -18 -7 -9 -14
-11 -15 -6 -3 7 -14 8 -34 2 -35 -11 -34 -11 20 -17 22 -2 46 -6 53 -9 6 -2
12 0 12 5 0 5 14 7 33 3 17 -3 29 -2 25 2 -17 19 51 37 151 41 58 2 107 6 109
9 3 3 -49 5 -115 5 -66 0 -123 -3 -127 -7z"/>
<path d="M2690 3885 c25 -8 55 -13 66 -10 18 4 23 -1 28 -25 3 -18 12 -30 21
-30 8 0 15 -4 15 -10 0 -5 -7 -10 -17 -10 -9 0 -14 -3 -10 -6 3 -4 12 -4 19
-2 17 7 34 5 31 -3 -1 -4 9 -9 22 -12 25 -4 30 5 25 43 -1 12 1 12 12 -1 17
-22 64 -37 52 -18 -6 12 -5 12 9 0 9 -7 17 -10 17 -5 0 5 4 4 8 -2 4 -5 23
-15 42 -20 19 -6 34 -16 32 -23 -1 -7 2 -10 6 -7 5 3 17 -3 27 -14 10 -11 24
-20 32 -20 18 0 76 -57 69 -68 -2 -4 8 -7 22 -6 15 0 45 -7 67 -17 21 -10 43
-15 49 -12 5 3 6 1 2 -5 -3 -6 7 -15 26 -22 18 -6 49 -26 68 -45 19 -19 39
-35 45 -35 5 0 29 -31 52 -68 24 -37 56 -83 73 -102 l29 -35 24 29 24 29 46
-75 c156 -250 256 -652 227 -906 -31 -268 -113 -480 -282 -728 -69 -103 -173
-211 -283 -295 -79 -61 -229 -150 -290 -174 -46 -17 -48 -19 -25 -25 l25 -7
-27 -13 c-32 -15 -35 -26 -11 -52 15 -17 22 -15 158 56 153 79 208 115 327
214 300 247 497 596 563 997 8 50 14 115 14 145 -1 44 -3 36 -10 -37 -10 -114
-51 -301 -90 -407 -93 -256 -238 -474 -427 -642 -80 -72 -98 -83 -127 -82 -32
1 -34 3 -28 27 3 14 57 77 120 139 62 63 139 149 171 191 103 137 197 343 236
521 55 251 5 615 -126 914 -81 186 -166 291 -320 398 -42 29 -110 79 -150 110
-41 32 -111 80 -156 107 -89 53 -258 125 -273 116 -5 -4 -9 -1 -9 5 0 7 -7 10
-15 7 -8 -4 -17 -2 -20 3 -7 11 -69 22 -200 35 l-50 5 45 -15z"/>
<path d="M3460 3881 c0 -5 5 -13 10 -16 6 -3 10 -2 10 4 0 5 -4 13 -10 16 -5
3 -10 2 -10 -4z"/>
<path d="M1904 3844 c-18 -14 -18 -15 4 -4 12 6 22 13 22 15 0 8 -5 6 -26 -11z"/>
<path d="M1854 3814 c-18 -14 -18 -15 4 -4 12 6 22 13 22 15 0 8 -5 6 -26 -11z"/>
<path d="M2443 3813 c9 -2 25 -2 35 0 9 3 1 5 -18 5 -19 0 -27 -2 -17 -5z"/>
<path d="M1355 3748 l-60 -63 63 60 c34 33 62 61 62 62 0 8 -10 -1 -65 -59z"/>
<path d="M3573 3794 c9 -11 17 -24 17 -28 0 -4 13 -27 30 -50 16 -24 27 -46
24 -49 -3 -3 4 -8 15 -12 12 -3 21 -12 21 -19 0 -8 7 -19 15 -26 8 -7 12 -17
8 -24 -3 -6 -3 -8 1 -4 9 8 69 -49 79 -75 3 -9 17 -22 30 -28 27 -12 61 -64
52 -78 -3 -5 -1 -12 5 -16 6 -4 8 -11 5 -16 -4 -5 1 -12 9 -15 9 -3 14 -10 11
-14 -3 -4 2 -10 10 -14 8 -3 15 -12 15 -21 0 -8 9 -24 20 -35 11 -11 20 -29
20 -40 0 -11 5 -20 10 -20 6 0 10 -7 10 -15 0 -9 8 -30 17 -48 9 -18 18 -37
19 -42 2 -13 64 -112 64 -103 0 21 -69 197 -107 273 -83 166 -226 360 -359
485 -32 30 -51 46 -41 34z"/>
<path d="M1779 3763 c-13 -16 -12 -17 4 -4 9 7 17 15 17 17 0 8 -8 3 -21 -13z"/>
<path d="M2678 3773 c7 -3 16 -2 19 1 4 3 -2 6 -13 5 -11 0 -14 -3 -6 -6z"/>
<path d="M2910 3772 c0 -6 9 -12 20 -15 11 -3 20 -3 20 -1 0 2 -9 8 -20 14
-11 6 -20 7 -20 2z"/>
<path d="M2748 3763 c7 -3 16 -2 19 1 4 3 -2 6 -13 5 -11 0 -14 -3 -6 -6z"/>
<path d="M1734 3728 l-19 -23 23 19 c21 18 27 26 19 26 -2 0 -12 -10 -23 -22z"/>
<path d="M510 3700 c-6 -11 -8 -20 -6 -20 3 0 10 9 16 20 6 11 8 20 6 20 -3 0
-10 -9 -16 -20z"/>
<path d="M1679 3683 l-24 -28 28 24 c25 23 32 31 24 31 -2 0 -14 -12 -28 -27z"/>
<path d="M1262 3645 c-72 -81 -180 -262 -237 -395 -32 -74 -105 -305 -105
-331 0 -5 4 -9 9 -9 4 0 14 28 21 62 40 203 179 496 317 666 41 51 38 56 -5 7z"/>
<path d="M480 3650 c-6 -11 -8 -20 -6 -20 3 0 10 9 16 20 6 11 8 20 6 20 -3 0
-10 -9 -16 -20z"/>
<path d="M1609 3623 l-34 -38 38 34 c34 33 42 41 34 41 -2 0 -19 -17 -38 -37z"/>
<path d="M3045 3640 c-4 -7 -2 -16 6 -21 18 -11 23 -4 11 17 -7 12 -11 13 -17
4z"/>
<path d="M2401 3620 c-183 -39 -379 -143 -523 -278 -246 -231 -381 -530 -381
-842 1 -108 20 -239 44 -293 11 -24 10 -23 -18 108 -20 93 -19 288 1 385 51
234 159 433 330 604 163 163 355 267 564 307 101 19 308 7 417 -25 259 -76
530 -274 674 -492 28 -43 51 -74 51 -70 0 24 -122 190 -188 255 -111 109 -200
173 -337 241 -167 83 -243 101 -435 105 -85 2 -175 0 -199 -5z"/>
<path d="M3223 3553 c-24 -8 -13 -30 27 -58 53 -37 183 -174 244 -257 38 -52
51 -64 61 -55 7 7 10 17 6 22 -132 181 -306 359 -338 348z"/>
<path d="M2588 3540 c13 -5 53 -14 90 -20 133 -21 260 -70 400 -156 57 -35 54
-13 -4 27 -72 49 -202 106 -294 128 -97 23 -230 37 -192 21z"/>
<path d="M1488 3503 c-87 -95 -146 -206 -233 -438 -38 -102 -85 -290 -84 -335
0 -14 11 25 24 85 49 234 160 496 274 648 54 72 59 83 19 40z"/>
<path d="M2355 3520 c-13 -6 -2 -7 30 -3 28 3 52 7 54 9 9 8 -65 2 -84 -6z"/>
<path d="M2483 3479 l-22 -24 45 1 c25 1 48 4 51 8 3 3 18 6 32 5 23 0 24 -1
6 -8 -17 -7 -16 -8 8 -13 21 -4 27 -2 23 8 -3 8 0 11 9 7 8 -3 13 -8 10 -12
-2 -4 1 -8 8 -8 7 0 20 -4 30 -8 17 -7 18 -6 6 14 -8 12 -15 17 -17 12 -2 -5
-18 -1 -37 10 -18 11 -55 22 -81 25 -43 5 -52 3 -71 -17z"/>
<path d="M2847 3427 c-4 -11 0 -20 12 -27 15 -8 20 -6 24 10 3 11 1 20 -4 20
-5 0 -9 -6 -10 -12 0 -7 -4 -4 -8 6 -7 17 -8 18 -14 3z"/>
<path d="M2380 3405 c-327 -65 -646 -363 -732 -684 -27 -102 -30 -295 -5 -399
31 -131 112 -312 139 -312 5 0 8 -5 6 -12 -7 -20 181 -201 266 -256 168 -109
342 -158 536 -149 240 11 431 103 611 295 40 42 67 67 60 54 -25 -48 -157
-175 -235 -227 -166 -110 -270 -140 -481 -140 -172 0 -239 14 -373 76 -108 50
-200 115 -286 203 -74 77 -77 68 -6 -17 93 -112 238 -205 400 -258 76 -25 119
-32 212 -36 282 -14 511 77 705 281 133 138 203 266 244 444 18 78 21 115 18
245 -3 83 -3 142 -1 129 2 -12 8 -20 13 -16 5 3 7 9 4 14 -3 4 1 13 9 19 12
10 11 23 -6 87 -19 77 -75 214 -87 214 -4 0 -7 -9 -8 -20 -1 -11 2 -18 7 -15
5 3 12 0 16 -6 4 -7 3 -9 -3 -6 -6 4 -16 1 -22 -7 -9 -11 -8 -17 2 -27 7 -8
14 -18 16 -24 9 -42 14 -55 23 -55 5 0 6 -5 2 -11 -9 -15 -76 129 -67 145 3 6
2 8 -2 3 -5 -4 -26 21 -48 55 -22 35 -76 100 -121 145 -46 45 -78 79 -73 76 6
-4 7 -1 3 6 -5 7 -10 10 -13 7 -3 -3 -24 8 -47 23 -60 41 -191 105 -266 129
-135 44 -280 53 -410 27z m238 -25 c40 -5 78 -12 84 -16 5 -4 -6 -23 -28 -45
-20 -21 -40 -36 -44 -34 -4 2 -17 -6 -29 -19 l-21 -23 86 -21 c104 -26 193
-66 268 -121 31 -23 58 -41 61 -41 3 0 5 -2 5 -5 -1 -3 23 -32 52 -64 50 -55
107 -153 123 -211 3 -14 -13 13 -36 60 -34 68 -60 103 -133 176 -75 75 -107
99 -176 132 -47 23 -114 48 -150 56 -78 18 -256 20 -266 4 -4 -7 -2 -14 6 -16
8 -3 2 -9 -14 -16 -22 -9 -6 -10 82 -8 77 3 129 -1 173 -12 63 -16 185 -71
196 -88 3 -5 -13 0 -36 11 -47 24 -70 28 -26 4 49 -26 152 -111 183 -151 52
-67 46 -68 -16 -1 -104 112 -246 187 -360 191 -69 2 -75 12 -12 19 44 5 36 6
-46 7 -99 2 -102 1 -119 -24 -21 -32 -52 -64 -63 -64 -5 0 -17 -7 -28 -15 -14
-10 -4 -10 41 4 96 30 190 35 265 16 86 -22 173 -68 229 -119 25 -24 51 -41
57 -39 12 4 77 -65 96 -102 13 -24 4 -15 -46 48 -48 61 -68 62 -22 1 77 -101
116 -218 116 -349 0 -94 -20 -180 -55 -239 -24 -40 -35 -44 -14 -5 6 11 8 25
6 32 -2 7 -15 -10 -28 -38 -48 -103 -188 -210 -299 -229 -24 -5 -16 1 26 17
74 28 106 50 165 114 99 106 144 231 137 377 -5 99 -39 196 -81 233 -17 15
-16 10 7 -28 36 -62 59 -178 51 -251 -12 -116 -66 -228 -142 -298 l-38 -35 36
40 c76 83 112 160 130 275 28 185 -94 406 -274 495 -40 20 -59 33 -42 29 17
-3 61 -24 99 -45 38 -22 71 -38 72 -36 9 9 -118 80 -168 94 -51 14 -56 18 -47
35 9 17 5 18 -54 18 -89 0 -161 -15 -236 -50 -68 -32 -93 -34 -42 -4 17 10 31
22 31 27 0 5 -12 2 -26 -8 -15 -10 -35 -14 -49 -11 -16 4 -24 1 -27 -12 -6
-23 -108 -108 -109 -90 0 9 -2 10 -6 1 -2 -7 -4 -15 -3 -19 1 -3 -6 -11 -14
-17 -22 -17 -81 -143 -97 -207 -7 -30 -13 -93 -13 -140 0 -162 60 -289 192
-411 122 -113 235 -159 394 -159 94 0 188 16 188 31 0 6 5 7 10 4 6 -3 10 -2
10 3 0 14 100 73 112 66 6 -4 8 -3 5 3 -4 5 8 23 25 39 30 28 30 28 19 4 l-12
-25 21 25 c54 65 125 180 141 230 10 32 18 45 18 32 1 -40 24 -19 38 34 7 27
13 77 13 111 0 70 -28 214 -44 225 -6 4 -7 8 -2 8 5 0 3 6 -3 14 -19 23 -24
66 -7 66 42 0 95 -121 122 -280 l13 -75 -4 90 c-3 79 -3 84 6 40 5 -27 10 -97
11 -155 1 -91 -3 -116 -26 -185 -15 -44 -43 -106 -62 -137 -31 -50 -39 -57
-64 -55 -24 2 -27 4 -15 17 36 41 108 215 120 290 10 65 -2 45 -26 -40 -37
-136 -91 -231 -182 -324 -130 -132 -224 -170 -432 -170 -88 0 -140 4 -160 14
-16 7 -36 12 -42 11 -7 -1 -13 3 -13 9 0 5 -6 10 -14 10 -7 0 -51 19 -97 42
-63 31 -103 60 -159 117 -129 130 -194 286 -204 493 -4 74 -3 92 4 63 5 -22 9
-65 10 -95 1 -30 10 -80 20 -110 11 -30 18 -44 15 -30 -3 14 -7 50 -10 80 -4
50 -4 49 9 -17 16 -85 50 -161 112 -254 50 -76 145 -167 184 -176 14 -3 36
-13 50 -22 86 -57 283 -99 349 -73 19 7 4 10 -70 15 -142 9 -234 43 -351 129
-153 113 -238 285 -238 483 0 102 17 181 59 270 25 54 105 182 122 195 3 3 11
15 18 28 7 12 16 20 21 17 5 -3 12 0 16 6 4 8 3 9 -4 5 -16 -9 -16 16 0 32 20
20 -20 26 -50 6 -44 -29 -135 -128 -170 -186 -38 -65 -69 -149 -77 -209 -4
-39 -4 -40 4 -11 5 18 12 36 16 40 5 4 5 -1 2 -11 -4 -10 -7 -62 -8 -115 l-1
-97 -14 85 c-8 47 -11 105 -8 130 13 105 108 269 201 348 l46 40 -40 11 c-22
6 -45 17 -51 24 -13 16 -19 41 -10 45 4 2 21 16 37 31 72 67 269 148 394 161
101 10 95 10 175 0z m457 -380 c27 -27 47 -50 44 -50 -3 0 -27 23 -54 50 -27
28 -47 50 -44 50 3 0 27 -22 54 -50z m-655 11 c-36 -10 -74 -22 -84 -26 -14
-6 -17 -5 -12 3 9 15 92 41 131 41 20 0 8 -6 -35 -18z m240 -79 l35 -15 -30
-7 c-16 -3 -43 -3 -60 2 -50 13 -120 9 -186 -12 -68 -21 -115 -53 -104 -69 3
-6 -12 -28 -34 -50 -21 -21 -54 -70 -73 -108 -30 -62 -33 -76 -33 -158 0 -113
23 -163 112 -253 35 -35 63 -65 63 -67 0 -2 -9 -1 -20 2 -30 8 -118 107 -143
160 -18 40 -22 66 -22 153 0 98 2 110 32 171 18 36 47 85 65 110 18 24 33 49
34 54 0 6 2 15 2 22 3 17 125 73 180 83 59 10 136 2 182 -18z m481 -9 c13 -16
12 -17 -3 -4 -17 13 -22 21 -14 21 2 0 10 -8 17 -17z m-874 -9 c4 -10 -10 -32
-39 -62 -88 -90 -134 -192 -145 -318 -5 -68 -4 -73 40 -165 72 -150 185 -245
328 -275 96 -20 229 -8 229 21 0 20 41 30 51 14 17 -27 8 -37 -53 -59 -121
-45 -232 -37 -356 26 -93 46 -168 126 -225 240 -53 106 -59 130 -58 210 2 131
53 245 148 335 55 52 70 58 80 33z m-387 -66 c-104 -223 -87 -507 41 -724 48
-82 171 -203 256 -253 287 -169 621 -134 861 92 99 94 163 206 197 345 14 61
17 101 12 225 -5 152 -20 226 -63 310 -8 15 -12 27 -9 27 15 0 66 -135 81
-215 17 -95 15 -254 -6 -343 -48 -201 -194 -388 -380 -486 -188 -99 -428 -102
-625 -8 -181 87 -323 240 -391 418 -57 151 -70 329 -34 470 19 73 73 204 84
204 3 0 -8 -28 -24 -62z m232 25 c-16 -21 -37 -53 -46 -70 -9 -18 -19 -33 -21
-33 -9 0 34 77 60 109 37 44 43 39 7 -6z m503 2 c33 -9 77 -27 98 -41 21 -14
43 -22 49 -18 6 4 8 3 5 -3 -4 -6 2 -18 13 -28 19 -17 28 -10 13 11 -5 6 9 -8
30 -30 22 -23 46 -54 54 -71 l14 -30 -20 25 c-26 32 -26 24 0 -35 29 -66 24
-218 -10 -284 -33 -63 -102 -126 -187 -167 -64 -32 -83 -37 -143 -37 -89 0
-161 33 -236 108 -101 101 -127 251 -67 380 53 113 158 205 253 224 64 13 69
13 134 -4z m817 -117 c-7 -7 -12 -8 -12 -2 0 6 3 14 7 17 3 4 9 5 12 2 2 -3
-1 -11 -7 -17z m-1401 -25 c-12 -20 -14 -14 -5 12 4 9 9 14 11 11 3 -2 0 -13
-6 -23z m1039 -28 c0 -5 -5 -3 -10 5 -5 8 -10 20 -10 25 0 6 5 3 10 -5 5 -8
10 -19 10 -25z m378 -20 c0 -16 -2 -15 -8 5 -11 34 -11 60 0 35 5 -11 8 -29 8
-40z m-350 -120 l-1 -50 -7 60 c-4 33 -10 74 -13 90 -4 20 -2 16 7 -10 8 -22
14 -62 14 -90z m109 103 c-3 -8 -6 -5 -6 6 -1 11 2 17 5 13 3 -3 4 -12 1 -19z
m-1200 -10 c-3 -8 -6 -5 -6 6 -1 11 2 17 5 13 3 -3 4 -12 1 -19z m-10 -65 c-3
-10 -5 -4 -5 12 0 17 2 24 5 18 2 -7 2 -21 0 -30z m0 -120 c-3 -10 -5 -2 -5
17 0 19 2 27 5 18 2 -10 2 -26 0 -35z m1105 -45 c2 -20 0 -34 -4 -32 -4 3 -7
26 -7 52 1 49 5 42 11 -20z m15 30 c-3 -7 -5 -2 -5 12 0 14 2 19 5 13 2 -7 2
-19 0 -25z m-1110 -40 c-3 -7 -5 -2 -5 12 0 14 2 19 5 13 2 -7 2 -19 0 -25z
m52 -125 c12 -24 19 -43 16 -43 -5 0 -45 75 -45 86 0 11 6 2 29 -43z m74 -98
c4 0 7 -4 8 -8 2 -18 -9 -16 -27 5 -11 13 -13 18 -4 12 8 -5 18 -9 23 -9z
m107 -97 c8 -2 21 -10 27 -19 25 -34 143 -71 248 -79 l100 -7 -75 -2 c-131 -2
-250 42 -335 124 -23 22 -27 28 -11 13 17 -15 38 -28 46 -30z m810 -42 c0 -2
-8 -10 -17 -17 -16 -13 -17 -12 -4 4 13 16 21 21 21 13z m-377 -248 c-2 -5
-15 -8 -29 -8 -13 0 -24 3 -24 8 0 4 13 7 29 7 16 0 27 -3 24 -7z"/>
<path d="M2528 3243 c6 -2 18 -2 25 0 6 3 1 5 -13 5 -14 0 -19 -2 -12 -5z"/>
<path d="M2315 3150 c-13 -6 -15 -9 -5 -9 8 0 22 4 30 9 18 12 2 12 -25 0z"/>
<path d="M2658 3133 c7 -3 16 -2 19 1 4 3 -2 6 -13 5 -11 0 -14 -3 -6 -6z"/>
<path d="M2705 3120 c27 -12 43 -12 25 0 -8 5 -22 9 -30 9 -10 0 -8 -3 5 -9z"/>
<path d="M2148 2983 c-17 -4 -54 -53 -40 -53 4 0 21 14 37 30 16 17 27 29 24
29 -2 -1 -12 -3 -21 -6z"/>
<path d="M2447 2856 c-183 -66 -283 -282 -206 -447 73 -155 228 -230 384 -184
166 48 268 186 252 341 -12 116 -85 217 -199 274 -50 24 -73 30 -127 30 -36
-1 -83 -7 -104 -14z m208 -47 c58 -29 130 -105 155 -165 82 -191 -86 -411
-300 -391 -68 6 -107 25 -168 80 -62 58 -92 124 -92 207 1 213 223 360 405
269z"/>
<path d="M2493 2819 c-84 -15 -166 -78 -209 -161 -22 -43 -30 -154 -14 -202
30 -93 139 -181 238 -193 102 -12 218 47 276 140 42 68 48 164 14 238 -14 30
-37 69 -52 87 -59 69 -163 106 -253 91z m153 -50 c84 -40 143 -135 144 -227 0
-126 -98 -233 -228 -249 -130 -15 -257 92 -270 228 -9 97 55 206 148 251 50
25 152 24 206 -3z"/>
<path d="M2820 2743 c13 -18 26 -30 29 -28 3 3 -8 18 -23 33 l-29 27 23 -32z"/>
<path d="M3180 3296 c0 -8 21 -32 46 -52 73 -60 171 -191 225 -299 71 -144
100 -268 102 -427 2 -105 4 -123 14 -105 17 30 16 112 -2 230 -31 203 -111
376 -252 540 -63 74 -133 133 -133 113z"/>
<path d="M4935 3288 c-4 -13 -8 -25 -9 -28 -2 -3 -8 -18 -15 -35 -7 -16 -16
-32 -21 -35 -5 -3 -1 -34 10 -70 24 -79 64 -274 82 -395 20 -140 17 -569 -5
-732 -10 -73 -15 -138 -11 -144 4 -7 3 -9 -2 -6 -5 3 -20 -44 -32 -103 -12
-60 -34 -146 -48 -191 -14 -44 -23 -83 -21 -86 7 -6 52 143 68 222 11 55 14
61 37 60 14 0 27 -5 29 -12 8 -22 -89 -285 -156 -426 -122 -256 -231 -415
-411 -601 -195 -201 -408 -355 -665 -481 -162 -79 -371 -161 -512 -199 l-88
-25 53 0 c141 -2 640 214 866 375 128 91 273 213 353 297 48 49 65 62 73 52 7
-9 7 -21 0 -41 -8 -23 2 -15 50 36 251 271 382 501 486 854 41 140 41 132 -13
164 -8 5 -8 28 2 92 7 47 20 132 29 190 37 245 42 532 15 820 -12 127 -27 198
-76 353 -36 115 -53 139 -68 95z"/>
<path d="M571 3104 c0 -11 3 -14 6 -6 3 7 2 16 -1 19 -3 4 -6 -2 -5 -13z"/>
<path d="M3627 3024 c24 -50 58 -133 73 -185 16 -52 29 -86 29 -77 2 50 -87
280 -127 328 -11 14 0 -16 25 -66z"/>
<path d="M3311 3068 c-1 -17 6 -31 18 -38 15 -8 19 -7 17 6 -1 9 -7 19 -13 22
-5 4 -13 14 -16 22 -3 9 -6 4 -6 -12z"/>
<path d="M3370 2991 c0 -6 4 -13 10 -16 6 -3 7 1 4 9 -7 18 -14 21 -14 7z"/>
<path d="M915 2889 c-4 -6 -5 -12 -2 -15 2 -3 7 2 10 11 7 17 1 20 -8 4z"/>
<path d="M1222 2783 c-20 -152 -20 -184 -6 -298 19 -151 38 -249 65 -336 29
-99 36 -70 10 44 -48 213 -63 429 -42 600 5 40 4 61 -4 67 -9 7 -15 -13 -23
-77z"/>
<path d="M901 2824 c0 -11 3 -14 6 -6 3 7 2 16 -1 19 -3 4 -6 -2 -5 -13z"/>
<path d="M4262 2810 c0 -14 2 -19 5 -12 2 6 2 18 0 25 -3 6 -5 1 -5 -13z"/>
<path d="M4273 2735 c0 -22 2 -30 4 -17 2 12 2 30 0 40 -3 9 -5 -1 -4 -23z"/>
<path d="M3591 2744 c0 -11 3 -14 6 -6 3 7 2 16 -1 19 -3 4 -6 -2 -5 -13z"/>
<path d="M3732 2715 c0 -16 2 -22 5 -12 2 9 2 23 0 30 -3 6 -5 -1 -5 -18z"/>
<path d="M3602 2700 c0 -14 2 -19 5 -12 2 6 2 18 0 25 -3 6 -5 1 -5 -13z"/>
<path d="M1163 2650 c0 -30 2 -43 4 -27 2 15 2 39 0 55 -2 15 -4 2 -4 -28z"/>
<path d="M3613 2625 c0 -27 2 -38 4 -22 2 15 2 37 0 50 -2 12 -4 0 -4 -28z"/>
<path d="M4284 2525 c0 -77 2 -107 3 -67 2 40 2 103 0 140 -2 37 -3 4 -3 -73z"/>
<path d="M1172 2529 c-5 -139 59 -372 152 -559 51 -102 159 -280 170 -280 3 0
-20 39 -51 88 -157 249 -244 500 -266 762 -3 43 -4 42 -5 -11z"/>
<path d="M1153 2525 c0 -27 2 -38 4 -22 2 15 2 37 0 50 -2 12 -4 0 -4 -28z"/>
<path d="M3617 2456 c-16 -268 -116 -511 -286 -689 -59 -62 -180 -149 -279
-200 -50 -26 -92 -50 -92 -52 0 -14 190 88 260 139 117 87 258 262 316 392 44
100 83 271 90 404 4 66 5 120 2 120 -3 0 -8 -51 -11 -114z"/>
<path d="M3846 2448 c-19 -336 -173 -679 -402 -899 -237 -226 -561 -344 -899
-326 -342 18 -628 140 -856 367 -141 141 -246 305 -315 495 -31 83 -37 88 -37
25 1 -28 35 -144 53 -180 67 -131 90 -173 116 -207 16 -20 38 -52 49 -70 26
-41 151 -169 202 -206 21 -15 65 -47 98 -70 33 -24 88 -59 122 -77 34 -19 60
-37 57 -42 -3 -4 2 -5 11 -2 8 4 29 1 46 -6 37 -16 32 -24 -6 -10 -15 6 -30 9
-32 6 -10 -9 217 -75 315 -91 128 -22 359 -17 470 10 40 9 72 19 70 21 -3 2
-38 -4 -79 -13 -115 -26 -394 -24 -519 5 -100 22 -208 55 -155 47 17 -2 73
-14 125 -25 108 -23 346 -27 488 -10 232 29 489 151 675 320 37 34 67 69 67
77 0 9 3 13 7 10 10 -10 32 13 27 27 -4 12 21 41 35 41 3 0 6 7 6 15 0 8 7 15
15 15 9 0 14 8 12 19 -2 10 1 15 7 12 5 -4 13 -1 17 5 5 8 3 9 -6 4 -8 -5 -11
-3 -8 6 3 8 10 13 16 12 7 -2 9 4 5 14 -4 10 -2 14 5 9 6 -3 14 -1 18 5 5 8 3
9 -6 4 -8 -5 -11 -3 -8 6 3 8 10 13 16 12 7 -2 9 4 5 14 -4 11 -3 14 5 9 8 -5
10 -1 5 10 -4 12 -3 15 5 10 8 -5 10 -1 5 10 -4 12 -3 15 5 10 8 -5 10 -1 5
10 -4 12 -3 15 5 10 8 -5 10 -1 5 10 -4 12 -3 15 5 10 8 -5 10 -1 5 10 -4 11
-2 15 4 11 6 -4 10 -1 9 6 0 6 14 49 31 94 56 141 84 265 90 406 3 70 4 127 1
127 -3 0 -8 -51 -12 -112z"/>
<path d="M4272 2340 c0 -19 2 -27 5 -17 2 9 2 25 0 35 -3 9 -5 1 -5 -18z"/>
<path d="M4262 2275 c0 -16 2 -22 5 -12 2 9 2 23 0 30 -3 6 -5 -1 -5 -18z"/>
<path d="M4252 2220 c0 -14 2 -19 5 -12 2 6 2 18 0 25 -3 6 -5 1 -5 -13z"/>
<path d="M1551 2170 c0 -8 4 -22 9 -30 12 -18 12 -2 0 25 -6 13 -9 15 -9 5z"/>
<path d="M4241 2164 c0 -11 3 -14 6 -6 3 7 2 16 -1 19 -3 4 -6 -2 -5 -13z"/>
<path d="M4226 2109 c-8 -42 0 -50 9 -9 4 17 5 34 2 36 -2 3 -7 -10 -11 -27z"/>
<path d="M1570 2115 c0 -5 5 -17 10 -25 5 -8 10 -10 10 -5 0 6 -5 17 -10 25
-5 8 -10 11 -10 5z"/>
<path d="M1600 2046 c0 -11 50 -106 55 -106 3 0 -7 24 -21 53 -28 55 -34 65
-34 53z"/>
<path d="M4179 1957 c-14 -40 -29 -81 -33 -92 -4 -11 2 -4 12 15 22 39 57 139
51 145 -3 2 -16 -29 -30 -68z"/>
<path d="M1526 1969 c53 -99 142 -224 200 -279 l58 -55 -58 65 c-67 75 -141
182 -179 257 -15 28 -32 55 -38 59 -7 4 1 -17 17 -47z"/>
<path d="M1663 1916 c0 -9 4 -16 9 -16 5 0 6 -5 3 -10 -3 -6 1 -13 9 -16 9 -3
14 -10 11 -14 -8 -12 139 -175 213 -235 36 -30 96 -73 132 -94 68 -41 229
-111 252 -111 7 1 -14 11 -47 24 -152 59 -275 138 -388 250 -75 74 -154 161
-156 172 -1 2 -1 7 -1 12 0 4 -9 18 -19 31 -13 17 -18 19 -18 7z"/>
<path d="M4120 1812 c0 -18 -108 -194 -170 -277 -78 -104 -242 -266 -350 -347
-69 -52 -204 -126 -258 -143 -28 -8 -19 -27 11 -21 60 11 112 30 155 56 26 16
57 34 70 40 12 5 22 14 22 20 0 5 7 10 15 10 8 0 15 4 15 8 0 4 13 15 28 24
43 26 200 183 273 273 69 86 189 266 189 284 0 6 3 11 8 11 4 0 7 16 8 35 0
19 -3 35 -8 35 -4 0 -8 -4 -8 -8z"/>
<path d="M3865 1558 c-22 -24 -47 -55 -55 -70 -20 -36 -119 -140 -199 -211
-85 -74 -216 -164 -309 -212 -78 -41 -89 -50 -71 -61 8 -4 9 -3 5 4 -4 7 -2
12 4 12 19 0 199 108 279 167 127 96 283 255 370 381 30 43 24 40 -24 -10z"/>
<path d="M1865 1550 c10 -11 20 -20 23 -20 3 0 -3 9 -13 20 -10 11 -20 20 -23
20 -3 0 3 -9 13 -20z"/>
<path d="M2325 1410 c27 -12 43 -12 25 0 -8 5 -22 9 -30 9 -10 0 -8 -3 5 -9z"/>
<path d="M2377 1399 c7 -7 15 -10 18 -7 3 3 -2 9 -12 12 -14 6 -15 5 -6 -5z"/>
<path d="M2478 1383 c7 -3 16 -2 19 1 4 3 -2 6 -13 5 -11 0 -14 -3 -6 -6z"/>
<path d="M1140 1356 c0 -2 8 -10 18 -17 15 -13 16 -12 3 4 -13 16 -21 21 -21
13z"/>
<path d="M4801 1332 c-9 -21 -22 -31 -57 -40 -24 -7 -57 -12 -73 -12 -22 0
-31 -7 -41 -30 -20 -47 -148 -231 -237 -338 -106 -127 -271 -287 -396 -381
-88 -67 -96 -76 -90 -100 3 -14 9 -30 13 -36 4 -5 6 -20 4 -33 l-4 -22 43 26
c271 169 544 443 711 714 61 97 150 270 143 276 -2 3 -10 -8 -16 -24z"/>
<path d="M1185 1280 c2 -38 -36 -68 -63 -50 -60 42 133 -127 217 -191 l105
-78 18 21 c10 12 18 26 18 33 0 7 -28 36 -62 66 -35 29 -102 93 -149 141 -81
83 -86 86 -84 58z"/>
<path d="M3304 1165 c-10 -8 -14 -15 -8 -15 6 0 17 7 24 15 16 19 9 19 -16 0z"/>
<path d="M2975 1130 c-13 -6 -15 -9 -5 -9 8 0 22 4 30 9 18 12 2 12 -25 0z"/>
<path d="M2178 1103 c7 -3 16 -2 19 1 4 3 -2 6 -13 5 -11 0 -14 -3 -6 -6z"/>
<path d="M2212 1095 c3 -3 47 -15 99 -26 131 -30 335 -30 473 0 55 12 102 24
105 28 3 3 -5 3 -19 0 -159 -36 -400 -42 -558 -14 -101 19 -108 19 -100 12z"/>
<path d="M3201 1041 c-8 -6 -9 -11 -3 -15 6 -3 14 -1 17 5 9 14 2 20 -14 10z"/>
<path d="M735 260 c10 -11 20 -20 23 -20 3 0 -3 9 -13 20 -10 11 -20 20 -23
20 -3 0 3 -9 13 -20z"/>
<path d="M4064 264 c-18 -14 -18 -15 4 -4 12 6 22 13 22 15 0 8 -5 6 -26 -11z"/>
<path d="M770 236 c0 -2 8 -10 18 -17 15 -13 16 -12 3 4 -13 16 -21 21 -21 13z"/>
<path d="M3984 214 c-18 -14 -18 -15 4 -4 12 6 22 13 22 15 0 8 -5 6 -26 -11z"/>
<path d="M810 206 c0 -2 8 -10 18 -17 15 -13 16 -12 3 4 -13 16 -21 21 -21 13z"/>
<path d="M3934 184 c-18 -14 -18 -15 4 -4 12 6 22 13 22 15 0 8 -5 6 -26 -11z"/>
<path d="M3790 110 c-52 -27 -92 -49 -87 -49 10 -1 187 88 187 94 0 7 5 9
-100 -45z"/>
<path d="M914 131 c7 -11 46 -35 46 -28 0 3 -12 12 -26 22 -15 9 -23 12 -20 6z"/>
<path d="M16 111 c-3 -4 -7 -31 -11 -60 l-6 -52 78 6 c43 3 91 7 108 8 19 2
31 9 33 19 2 13 -6 17 -35 20 -33 3 -38 7 -41 30 -2 19 -9 26 -23 25 -10 -1
-19 -4 -19 -7 0 -3 -9 -6 -20 -6 -11 0 -20 3 -20 7 0 10 -39 19 -44 10z"/>
<path d="M3660 50 c-8 -5 -10 -10 -5 -10 6 0 17 5 25 10 8 5 11 10 5 10 -5 0
-17 -5 -25 -10z"/>
</g>
</svg>