<?xml version="1.0" encoding="UTF-8" standalone="no"?>
<svg
   xmlns:dc="http://purl.org/dc/elements/1.1/"
   xmlns:cc="http://creativecommons.org/ns#"
   xmlns:rdf="http://www.w3.org/1999/02/22-rdf-syntax-ns#"
   xmlns:svg="http://www.w3.org/2000/svg"
   xmlns="http://www.w3.org/2000/svg"
   xmlns:sodipodi="http://sodipodi.sourceforge.net/DTD/sodipodi-0.dtd"
   xmlns:inkscape="http://www.inkscape.org/namespaces/inkscape"
   version="1.0"
   width="512.000000pt"
   height="512.000000pt"
   viewBox="0 0 512.000000 512.000000"
   preserveAspectRatio="xMidYMid meet"
   id="svg256"
   sodipodi:docname="warpzone-icon-v2.svg"
   inkscape:version="1.0.1 (3bc2e813f5, 2020-09-07)">
  <defs
     id="defs260" />
  <sodipodi:namedview
     pagecolor="#ffffff"
     bordercolor="#666666"
     borderopacity="1"
     objecttolerance="10"
     gridtolerance="10"
     guidetolerance="10"
     inkscape:pageopacity="0"
     inkscape:pageshadow="2"
     inkscape:window-width="1920"
     inkscape:window-height="1057"
     id="namedview258"
     showgrid="false"
     inkscape:zoom="1.3300781"
     inkscape:cx="126.64676"
     inkscape:cy="285.5167"
     inkscape:window-x="-8"
     inkscape:window-y="-8"
     inkscape:window-maximized="1"
     inkscape:current-layer="svg256" />
  <metadata
     id="metadata2">
Created by potrace 1.16, written by Peter Selinger 2001-2019
<rdf:RDF>
  <cc:Work
     rdf:about="">
    <dc:format>image/svg+xml</dc:format>
    <dc:type
       rdf:resource="http://purl.org/dc/dcmitype/StillImage" />
    <dc:title></dc:title>
  </cc:Work>
</rdf:RDF>
</metadata>
  <g
     transform="translate(0.000000,512.000000) scale(0.100000,-0.100000)"
     fill="#000000"
     stroke="none"
     id="g254">
    <path
       d="M17 5102 c-15 -16 -17 -45 -16 -203 0 -101 3 -178 6 -171 2 6 11 12 19 12 8 0 14 5 14 11 0 6 7 9 15 6 8 -4 17 -1 21 5 5 7 2 8 -7 4 -8 -4 -3 2 11 13 24 20 36 25 52 22 5 0 7 3 5 7 -3 12 66 79 90 86 13 4 30 20 40 36 9 16 25 31 36 34 10 2 16 9 12 15 -3 7 0 8 9 5 12 -4 16 0 16 15 0 24 28 40 39 23 4 -7 12 -8 21 -2 12 7 12 10 -3 16 -16 6 -15 9 10 25 15 11 34 17 41 14 7 -3 10 0 7 5 -3 6 2 10 12 10 10 0 27 7 37 15 18 13 -8 15 -226 15 -225 0 -246 -2 -261 -18z"
       id="path4" />
    <path
       d="M605 5110 c-3 -5 -2 -10 4 -10 5 0 13 5 16 10 3 6 2 10 -4 10 -5 0 -13 -4 -16 -10z"
       id="path6" />
    <path
       d="M4900 5106 c14 -8 35 -20 48 -25 24 -12 31 -27 7 -17 -20 7 -20 -24 1 -50 8 -10 13 -13 9 -6 -3 6 0 12 7 12 7 0 22 -19 33 -43 25 -53 54 -87 74 -87 14 0 14 -2 1 -10 -12 -7 -11 -10 5 -16 11 -4 23 -9 28 -11 4 -2 7 53 7 122 0 82 -4 124 -10 120 -5 -3 -10 -1 -10 6 0 8 -4 8 -15 -1 -13 -11 -14 -10 -10 1 4 12 -14 15 -97 17 -95 2 -101 2 -78 -12z m88 -41 c-3 -3 -9 2 -12 12 -6 14 -5 15 5 6 7 -7 10 -15 7 -18z"
       id="path8" />
    <path
       d="M1810 5071 c-298 -108 -619 -287 -854 -475 -111 -89 -308 -290 -398 -406 -325 -419 -491 -872 -518 -1409 -5 -97 -16 -212 -24 -256 -13 -76 -14 -302 -2 -364 58 -276 155 -572 236 -716 15 -27 51 -95 80 -149 28 -55 73 -131 98 -170 26 -38 52 -77 57 -85 6 -9 13 -18 16 -21 4 -3 21 -29 38 -58 17 -29 35 -58 41 -65 45 -55 63 -80 82 -114 30 -51 184 -190 224 -202 17 -5 70 -40 117 -79 48 -39 113 -87 147 -108 33 -20 60 -38 60 -40 0 -13 -173 75 -251 128 -35 24 -77 50 -94 58 -47 24 -262 245 -345 354 -228 302 -375 576 -481 896 l-38 115 4 -170 c2 -93 6 -188 9 -210 5 -52 125 -290 214 -425 104 -160 213 -289 393 -465 232 -227 409 -355 670 -487 148 -74 343 -148 389 -147 31 0 25 4 -45 30 -127 47 -225 91 -225 101 0 5 -4 6 -10 3 -5 -3 -10 -3 -11 2 0 4 -2 22 -5 40 -2 18 1 44 6 58 l10 26 41 -22 c143 -73 466 -174 687 -214 123 -23 233 -34 132 -14 -260 53 -511 120 -518 139 -2 5 -10 6 -19 3 -13 -5 -13 -2 2 20 16 25 16 27 -2 45 -10 10 -61 36 -113 56 -217 85 -498 253 -637 381 -141 129 -382 438 -503 645 -185 317 -290 614 -345 977 -8 57 -15 121 -15 143 0 22 -3 39 -7 39 -36 -6 -36 -5 -30 259 4 201 9 283 26 377 73 412 210 723 470 1070 123 163 313 358 451 461 245 183 537 342 820 445 58 21 98 38 90 38 -8 0 -62 -17 -120 -38z"
       id="path10" />
    <path
       d="M405 5050 c-3 -5 -1 -10 4 -10 6 0 11 5 11 10 0 6 -2 10 -4 10 -3 0 -8 -4 -11 -10z"
       id="path12" />
    <path
       d="M4573 4984 c9 -17 14 -34 12 -38 -3 -3 -3 -5 0 -3 5 4 49 -35 232 -202 110 -100 207 -212 272 -315 l31 -50 0 75 0 75 -52 50 c-29 28 -82 73 -118 101 -36 28 -83 70 -105 93 -33 34 -192 170 -269 230 -19 15 -19 14 -3 -16z"
       id="path14" />
    <path
       d="M909 4923 c-13 -16 -12 -17 4 -4 9 7 17 15 17 17 0 8 -8 3 -21 -13z"
       id="path16" />
    <path
       d="M344 4888 l-29 -33 33 29 c30 28 37 36 29 36 -2 0 -16 -15 -33 -32z"
       id="path18" />
    <path
       d="M859 4883 c-13 -16 -12 -17 4 -4 9 7 17 15 17 17 0 8 -8 3 -21 -13z"
       id="path20" />
    <path
       d="M730 4777 c-126 -113 -255 -246 -344 -359 -82 -103 -129 -168 -123 -168 2 0 31 35 63 78 125 167 277 329 454 485 36 31 63 57 60 57 -3 0 -52 -42 -110 -93z"
       id="path22" />
    <path
       d="M4420 4857 c0 -2 15 -16 33 -33 l32 -29 -29 33 c-28 30 -36 37 -36 29z"
       id="path24" />
    <path
       d="M1958 4813 c7 -3 16 -2 19 1 4 3 -2 6 -13 5 -11 0 -14 -3 -6 -6z"
       id="path26" />
    <path
       d="M1825 4776 c-413 -152 -738 -367 -1020 -676 -68 -75 -204 -252 -238 -309 -33 -55 -11 -33 36 38 126 190 352 429 540 570 216 161 428 275 697 372 58 21 98 38 90 38 -8 0 -55 -15 -105 -33z"
       id="path28" />
    <path
       d="M224 4768 l-29 -33 33 29 c30 28 37 36 29 36 -2 0 -16 -15 -33 -32z"
       id="path30" />
    <path
       d="M4535 4750 c10 -11 20 -20 23 -20 3 0 -3 9 -13 20 -10 11 -20 20 -23 20 -3 0 3 -9 13 -20z"
       id="path32" />
    <path
       d="M4630 4645 c19 -19 36 -35 39 -35 3 0 -10 16 -29 35 -19 19 -36 35 -39 35 -3 0 10 -16 29 -35z"
       id="path34" />
    <path
       d="M1740 4445 c-14 -8 -20 -14 -15 -14 6 0 21 6 35 14 14 8 21 14 15 14 -5 0 -21 -6 -35 -14z"
       id="path36" />
    <path
       d="M2390 4400 c-214 -23 -441 -87 -640 -181 -68 -33 -130 -57 -138 -54 -16 6 -163 -90 -266 -174 -74 -61 -180 -168 -256 -261 l-45 -55 45 35 c24 19 58 49 75 65 43 43 259 214 330 262 33 23 96 59 140 81 547 273 1032 311 1624 128 63 -20 116 -34 118 -32 8 7 -180 86 -272 115 -206 63 -504 93 -715 71z"
       id="path38" />
    <path
       d="M1608 4379 c-21 -11 -38 -22 -38 -24 0 -3 18 4 40 15 22 11 40 23 40 25 0 7 0 7 -42 -16z"
       id="path40" />
    <path
       d="M1482 4306 c-289 -179 -556 -455 -723 -749 -61 -108 -169 -356 -168 -387 0 -8 13 20 29 63 39 105 120 272 176 365 164 271 437 545 702 706 53 32 71 46 59 46 -2 0 -35 -20 -75 -44z"
       id="path42" />
    <path
       d="M2398 4283 c7 -3 16 -2 19 1 4 3 -2 6 -13 5 -11 0 -14 -3 -6 -6z"
       id="path44" />
    <path
       d="M2753 4283 c9 -2 23 -2 30 0 6 3 -1 5 -18 5 -16 0 -22 -2 -12 -5z"
       id="path46" />
    <path
       d="M2838 4273 c7 -3 16 -2 19 1 4 3 -2 6 -13 5 -11 0 -14 -3 -6 -6z"
       id="path48" />
    <path
       d="M243 4228 c-15 -20 -25 -38 -20 -38 3 0 12 11 21 25 17 26 16 35 -1 13z"
       id="path50" />
    <path
       d="M3600 4216 c0 -2 8 -10 18 -17 15 -13 16 -12 3 4 -13 16 -21 21 -21 13z"
       id="path52" />
    <path
       d="M2369 4179 c-423 -62 -854 -344 -1127 -737 -56 -80 -121 -208 -143 -280 -7 -23 -16 -42 -22 -42 -5 0 -7 -6 -4 -14 3 -7 2 -17 -3 -22 -12 -13 -46 -136 -67 -239 -25 -130 -25 -437 1 -555 53 -242 191 -529 359 -745 159 -203 342 -358 605 -510 35 -20 66 -43 68 -50 3 -8 12 -11 20 -8 8 3 14 0 14 -5 0 -15 164 -66 275 -87 116 -22 331 -23 445 -2 46 9 86 14 88 12 32 -32 -127 -60 -328 -59 -155 1 -276 20 -417 65 -430 138 -765 410 -1040 844 -90 143 -183 390 -229 610 -68 326 -10 691 161 1023 91 176 179 296 325 444 129 130 123 138 -9 13 -310 -295 -502 -709 -536 -1160 -11 -149 34 -423 100 -605 9 -25 27 -79 40 -120 94 -301 230 -542 413 -731 36 -37 61 -72 58 -78 -4 -7 -1 -9 8 -5 9 3 20 -3 28 -15 7 -12 19 -21 26 -21 7 0 12 -8 10 -18 -2 -14 3 -16 30 -14 26 3 39 -3 61 -27 16 -17 31 -31 34 -31 3 0 35 -18 70 -40 143 -90 418 -178 623 -201 214 -23 482 15 557 80 10 8 27 16 39 18 12 2 26 7 32 12 6 5 22 12 36 16 49 14 106 44 124 64 10 11 24 17 32 14 9 -3 14 2 14 16 l0 20 -46 -20 c-26 -11 -49 -17 -51 -15 -11 11 13 29 90 67 86 43 147 84 147 99 0 5 -42 -13 -92 -40 -116 -61 -236 -106 -353 -131 -107 -24 -382 -39 -371 -20 4 6 10 9 14 7 4 -2 7 7 7 20 0 28 -11 32 -165 59 -391 67 -721 298 -973 680 -151 230 -238 501 -253 790 -14 263 61 579 176 745 9 14 23 42 30 63 6 21 26 57 44 80 17 23 52 72 78 108 70 99 254 256 400 343 184 109 331 162 543 196 191 32 400 22 590 -26 135 -34 382 -154 490 -238 187 -145 361 -354 455 -544 27 -57 66 -124 86 -150 20 -27 33 -54 31 -64 -3 -10 -1 -16 3 -13 5 3 16 -15 25 -40 10 -24 21 -42 26 -39 5 3 6 -1 3 -9 -3 -8 2 -40 11 -72 10 -32 23 -110 31 -174 l13 -116 -5 95 c-9 184 -15 246 -29 295 -7 28 -14 40 -14 28 -1 -13 -5 -23 -9 -23 -9 0 -39 80 -34 93 1 4 -3 7 -9 7 -5 0 -7 5 -4 10 3 6 2 10 -3 10 -6 0 -17 17 -25 38 -25 61 -123 230 -185 315 -73 102 -233 270 -333 351 -423 338 -971 424 -1436 226 -340 -145 -638 -418 -790 -725 -78 -157 -140 -352 -163 -515 -29 -204 -7 -457 55 -639 26 -78 26 -92 -3 -84 -41 10 -107 195 -132 368 -36 258 35 623 172 875 42 76 88 148 110 172 7 7 25 29 39 48 15 20 53 60 85 90 31 30 82 80 113 110 159 156 250 222 414 300 190 91 382 139 582 148 180 7 411 -32 565 -95 89 -36 96 -40 196 -91 34 -18 69 -32 79 -32 9 0 28 -9 42 -20 15 -11 29 -18 32 -14 9 8 -33 37 -137 95 -176 98 -336 155 -517 184 -96 16 -322 18 -416 4z"
       id="path54" />
    <path
       d="M3640 4186 c0 -2 8 -10 18 -17 15 -13 16 -12 3 4 -13 16 -21 21 -21 13z"
       id="path56" />
    <path
       d="M3695 4144 c11 -11 65 -62 120 -114 85 -80 89 -83 30 -22 -38 41 -92 92 -120 115 -27 22 -41 32 -30 21z"
       id="path58" />
    <path
       d="M180 4130 c-6 -11 -8 -20 -6 -20 3 0 10 9 16 20 6 11 8 20 6 20 -3 0 -10 -9 -16 -20z"
       id="path60" />
    <path
       d="M1725 4090 c-3 -6 1 -7 9 -4 18 7 21 14 7 14 -6 0 -13 -4 -16 -10z"
       id="path62" />
    <path
       d="M130 4050 c-6 -11 -8 -20 -6 -20 3 0 10 9 16 20 6 11 8 20 6 20 -3 0 -10 -9 -16 -20z"
       id="path64" />
    <path
       d="M1655 4060 c-3 -6 1 -7 9 -4 18 7 21 14 7 14 -6 0 -13 -4 -16 -10z"
       id="path66" />
    <path
       d="M1539 3989 l-24 -20 28 17 c15 9 27 18 27 20 0 8 -8 4 -31 -17z"
       id="path68" />
    <path
       d="M2420 3983 c-71 -7 -232 -45 -295 -68 -183 -69 -342 -171 -476 -304 -93 -94 -149 -170 -198 -271 -17 -36 -25 -57 -19 -46 183 273 342 419 583 537 415 203 907 164 1302 -102 92 -63 175 -132 292 -244 104 -99 89 -65 -23 53 -223 234 -518 394 -807 436 -96 14 -267 19 -359 9z"
       id="path70" />
    <path
       d="M2396 3893 c-3 -4 -28 -8 -54 -10 -29 -1 -51 -8 -58 -18 -7 -9 -14 -11 -15 -6 -3 7 -14 8 -34 2 -35 -11 -34 -11 20 -17 22 -2 46 -6 53 -9 6 -2 12 0 12 5 0 5 14 7 33 3 17 -3 29 -2 25 2 -17 19 51 37 151 41 58 2 107 6 109 9 3 3 -49 5 -115 5 -66 0 -123 -3 -127 -7z"
       id="path72" />
    <path
       d="M2690 3885 c25 -8 55 -13 66 -10 18 4 23 -1 28 -25 3 -18 12 -30 21 -30 8 0 15 -4 15 -10 0 -5 -7 -10 -17 -10 -9 0 -14 -3 -10 -6 3 -4 12 -4 19 -2 17 7 34 5 31 -3 -1 -4 9 -9 22 -12 25 -4 30 5 25 43 -1 12 1 12 12 -1 17 -22 64 -37 52 -18 -6 12 -5 12 9 0 9 -7 17 -10 17 -5 0 5 4 4 8 -2 4 -5 23 -15 42 -20 19 -6 34 -16 32 -23 -1 -7 2 -10 6 -7 5 3 17 -3 27 -14 10 -11 24 -20 32 -20 18 0 76 -57 69 -68 -2 -4 8 -7 22 -6 15 0 45 -7 67 -17 21 -10 43 -15 49 -12 5 3 6 1 2 -5 -3 -6 7 -15 26 -22 18 -6 49 -26 68 -45 19 -19 39 -35 45 -35 5 0 29 -31 52 -68 24 -37 56 -83 73 -102 l29 -35 24 29 24 29 46 -75 c156 -250 256 -652 227 -906 -31 -268 -113 -480 -282 -728 -69 -103 -173 -211 -283 -295 -79 -61 -229 -150 -290 -174 -46 -17 -48 -19 -25 -25 l25 -7 -27 -13 c-32 -15 -35 -26 -11 -52 15 -17 22 -15 158 56 153 79 208 115 327 214 300 247 497 596 563 997 8 50 14 115 14 145 -1 44 -3 36 -10 -37 -10 -114 -51 -301 -90 -407 -93 -256 -238 -474 -427 -642 -80 -72 -98 -83 -127 -82 -32 1 -34 3 -28 27 3 14 57 77 120 139 62 63 139 149 171 191 103 137 197 343 236 521 55 251 5 615 -126 914 -81 186 -166 291 -320 398 -42 29 -110 79 -150 110 -41 32 -111 80 -156 107 -89 53 -258 125 -273 116 -5 -4 -9 -1 -9 5 0 7 -7 10 -15 7 -8 -4 -17 -2 -20 3 -7 11 -69 22 -200 35 l-50 5 45 -15z"
       id="path74" />
    <path
       d="M3460 3881 c0 -5 5 -13 10 -16 6 -3 10 -2 10 4 0 5 -4 13 -10 16 -5 3 -10 2 -10 -4z"
       id="path76" />
    <path
       d="M1904 3844 c-18 -14 -18 -15 4 -4 12 6 22 13 22 15 0 8 -5 6 -26 -11z"
       id="path78" />
    <path
       d="M1854 3814 c-18 -14 -18 -15 4 -4 12 6 22 13 22 15 0 8 -5 6 -26 -11z"
       id="path80" />
    <path
       d="M2443 3813 c9 -2 25 -2 35 0 9 3 1 5 -18 5 -19 0 -27 -2 -17 -5z"
       id="path82" />
    <path
       d="M1355 3748 l-60 -63 63 60 c34 33 62 61 62 62 0 8 -10 -1 -65 -59z"
       id="path84" />
    <path
       d="M3573 3794 c9 -11 17 -24 17 -28 0 -4 13 -27 30 -50 16 -24 27 -46 24 -49 -3 -3 4 -8 15 -12 12 -3 21 -12 21 -19 0 -8 7 -19 15 -26 8 -7 12 -17 8 -24 -3 -6 -3 -8 1 -4 9 8 69 -49 79 -75 3 -9 17 -22 30 -28 27 -12 61 -64 52 -78 -3 -5 -1 -12 5 -16 6 -4 8 -11 5 -16 -4 -5 1 -12 9 -15 9 -3 14 -10 11 -14 -3 -4 2 -10 10 -14 8 -3 15 -12 15 -21 0 -8 9 -24 20 -35 11 -11 20 -29 20 -40 0 -11 5 -20 10 -20 6 0 10 -7 10 -15 0 -9 8 -30 17 -48 9 -18 18 -37 19 -42 2 -13 64 -112 64 -103 0 21 -69 197 -107 273 -83 166 -226 360 -359 485 -32 30 -51 46 -41 34z"
       id="path86" />
    <path
       d="M1779 3763 c-13 -16 -12 -17 4 -4 9 7 17 15 17 17 0 8 -8 3 -21 -13z"
       id="path88" />
    <path
       d="M2678 3773 c7 -3 16 -2 19 1 4 3 -2 6 -13 5 -11 0 -14 -3 -6 -6z"
       id="path90" />
    <path
       d="M2910 3772 c0 -6 9 -12 20 -15 11 -3 20 -3 20 -1 0 2 -9 8 -20 14 -11 6 -20 7 -20 2z"
       id="path92" />
    <path
       d="M2748 3763 c7 -3 16 -2 19 1 4 3 -2 6 -13 5 -11 0 -14 -3 -6 -6z"
       id="path94" />
    <path
       d="M1734 3728 l-19 -23 23 19 c21 18 27 26 19 26 -2 0 -12 -10 -23 -22z"
       id="path96" />
    <path
       d="M510 3700 c-6 -11 -8 -20 -6 -20 3 0 10 9 16 20 6 11 8 20 6 20 -3 0 -10 -9 -16 -20z"
       id="path98" />
    <path
       d="M1679 3683 l-24 -28 28 24 c25 23 32 31 24 31 -2 0 -14 -12 -28 -27z"
       id="path100" />
    <path
       d="M1262 3645 c-72 -81 -180 -262 -237 -395 -32 -74 -105 -305 -105 -331 0 -5 4 -9 9 -9 4 0 14 28 21 62 40 203 179 496 317 666 41 51 38 56 -5 7z"
       id="path102" />
    <path
       d="M480 3650 c-6 -11 -8 -20 -6 -20 3 0 10 9 16 20 6 11 8 20 6 20 -3 0 -10 -9 -16 -20z"
       id="path104" />
    <path
       d="M1609 3623 l-34 -38 38 34 c34 33 42 41 34 41 -2 0 -19 -17 -38 -37z"
       id="path106" />
    <path
       d="M3045 3640 c-4 -7 -2 -16 6 -21 18 -11 23 -4 11 17 -7 12 -11 13 -17 4z"
       id="path108" />
    <path
       d="M2401 3620 c-183 -39 -379 -143 -523 -278 -246 -231 -381 -530 -381 -842 1 -108 20 -239 44 -293 11 -24 10 -23 -18 108 -20 93 -19 288 1 385 51 234 159 433 330 604 163 163 355 267 564 307 101 19 308 7 417 -25 259 -76 530 -274 674 -492 28 -43 51 -74 51 -70 0 24 -122 190 -188 255 -111 109 -200 173 -337 241 -167 83 -243 101 -435 105 -85 2 -175 0 -199 -5z"
       id="path110" />
    <path
       d="M3223 3553 c-24 -8 -13 -30 27 -58 53 -37 183 -174 244 -257 38 -52 51 -64 61 -55 7 7 10 17 6 22 -132 181 -306 359 -338 348z"
       id="path112" />
    <path
       d="M2588 3540 c13 -5 53 -14 90 -20 133 -21 260 -70 400 -156 57 -35 54 -13 -4 27 -72 49 -202 106 -294 128 -97 23 -230 37 -192 21z"
       id="path114" />
    <path
       d="M1488 3503 c-87 -95 -146 -206 -233 -438 -38 -102 -85 -290 -84 -335 0 -14 11 25 24 85 49 234 160 496 274 648 54 72 59 83 19 40z"
       id="path116" />
    <path
       d="M2355 3520 c-13 -6 -2 -7 30 -3 28 3 52 7 54 9 9 8 -65 2 -84 -6z"
       id="path118" />
    <path
       d="M2483 3479 l-22 -24 45 1 c25 1 48 4 51 8 3 3 18 6 32 5 23 0 24 -1 6 -8 -17 -7 -16 -8 8 -13 21 -4 27 -2 23 8 -3 8 0 11 9 7 8 -3 13 -8 10 -12 -2 -4 1 -8 8 -8 7 0 20 -4 30 -8 17 -7 18 -6 6 14 -8 12 -15 17 -17 12 -2 -5 -18 -1 -37 10 -18 11 -55 22 -81 25 -43 5 -52 3 -71 -17z"
       id="path120" />
    <path
       d="M2847 3427 c-4 -11 0 -20 12 -27 15 -8 20 -6 24 10 3 11 1 20 -4 20 -5 0 -9 -6 -10 -12 0 -7 -4 -4 -8 6 -7 17 -8 18 -14 3z"
       id="path122" />
    <path
       d="M2380 3405 c-327 -65 -646 -363 -732 -684 -27 -102 -30 -295 -5 -399 31 -131 112 -312 139 -312 5 0 8 -5 6 -12 -7 -20 181 -201 266 -256 168 -109 342 -158 536 -149 240 11 431 103 611 295 40 42 67 67 60 54 -25 -48 -157 -175 -235 -227 -166 -110 -270 -140 -481 -140 -172 0 -239 14 -373 76 -108 50 -200 115 -286 203 -74 77 -77 68 -6 -17 93 -112 238 -205 400 -258 76 -25 119 -32 212 -36 282 -14 511 77 705 281 133 138 203 266 244 444 18 78 21 115 18 245 -3 83 -3 142 -1 129 2 -12 8 -20 13 -16 5 3 7 9 4 14 -3 4 1 13 9 19 12 10 11 23 -6 87 -19 77 -75 214 -87 214 -4 0 -7 -9 -8 -20 -1 -11 2 -18 7 -15 5 3 12 0 16 -6 4 -7 3 -9 -3 -6 -6 4 -16 1 -22 -7 -9 -11 -8 -17 2 -27 7 -8 14 -18 16 -24 9 -42 14 -55 23 -55 5 0 6 -5 2 -11 -9 -15 -76 129 -67 145 3 6 2 8 -2 3 -5 -4 -26 21 -48 55 -22 35 -76 100 -121 145 -46 45 -78 79 -73 76 6 -4 7 -1 3 6 -5 7 -10 10 -13 7 -3 -3 -24 8 -47 23 -60 41 -191 105 -266 129 -135 44 -280 53 -410 27z m238 -25 c40 -5 78 -12 84 -16 5 -4 -6 -23 -28 -45 -20 -21 -40 -36 -44 -34 -4 2 -17 -6 -29 -19 l-21 -23 86 -21 c104 -26 193 -66 268 -121 31 -23 58 -41 61 -41 3 0 5 -2 5 -5 -1 -3 23 -32 52 -64 50 -55 107 -153 123 -211 3 -14 -13 13 -36 60 -34 68 -60 103 -133 176 -75 75 -107 99 -176 132 -47 23 -114 48 -150 56 -78 18 -256 20 -266 4 -4 -7 -2 -14 6 -16 8 -3 2 -9 -14 -16 -22 -9 -6 -10 82 -8 77 3 129 -1 173 -12 63 -16 185 -71 196 -88 3 -5 -13 0 -36 11 -47 24 -70 28 -26 4 49 -26 152 -111 183 -151 52 -67 46 -68 -16 -1 -104 112 -246 187 -360 191 -69 2 -75 12 -12 19 44 5 36 6 -46 7 -99 2 -102 1 -119 -24 -21 -32 -52 -64 -63 -64 -5 0 -17 -7 -28 -15 -14 -10 -4 -10 41 4 96 30 190 35 265 16 86 -22 173 -68 229 -119 25 -24 51 -41 57 -39 12 4 77 -65 96 -102 13 -24 4 -15 -46 48 -48 61 -68 62 -22 1 77 -101 116 -218 116 -349 0 -94 -20 -180 -55 -239 -24 -40 -35 -44 -14 -5 6 11 8 25 6 32 -2 7 -15 -10 -28 -38 -48 -103 -188 -210 -299 -229 -24 -5 -16 1 26 17 74 28 106 50 165 114 99 106 144 231 137 377 -5 99 -39 196 -81 233 -17 15 -16 10 7 -28 36 -62 59 -178 51 -251 -12 -116 -66 -228 -142 -298 l-38 -35 36 40 c76 83 112 160 130 275 28 185 -94 406 -274 495 -40 20 -59 33 -42 29 17 -3 61 -24 99 -45 38 -22 71 -38 72 -36 9 9 -118 80 -168 94 -51 14 -56 18 -47 35 9 17 5 18 -54 18 -89 0 -161 -15 -236 -50 -68 -32 -93 -34 -42 -4 17 10 31 22 31 27 0 5 -12 2 -26 -8 -15 -10 -35 -14 -49 -11 -16 4 -24 1 -27 -12 -6 -23 -108 -108 -109 -90 0 9 -2 10 -6 1 -2 -7 -4 -15 -3 -19 1 -3 -6 -11 -14 -17 -22 -17 -81 -143 -97 -207 -7 -30 -13 -93 -13 -140 0 -162 60 -289 192 -411 122 -113 235 -159 394 -159 94 0 188 16 188 31 0 6 5 7 10 4 6 -3 10 -2 10 3 0 14 100 73 112 66 6 -4 8 -3 5 3 -4 5 8 23 25 39 30 28 30 28 19 4 l-12 -25 21 25 c54 65 125 180 141 230 10 32 18 45 18 32 1 -40 24 -19 38 34 7 27 13 77 13 111 0 70 -28 214 -44 225 -6 4 -7 8 -2 8 5 0 3 6 -3 14 -19 23 -24 66 -7 66 42 0 95 -121 122 -280 l13 -75 -4 90 c-3 79 -3 84 6 40 5 -27 10 -97 11 -155 1 -91 -3 -116 -26 -185 -15 -44 -43 -106 -62 -137 -31 -50 -39 -57 -64 -55 -24 2 -27 4 -15 17 36 41 108 215 120 290 10 65 -2 45 -26 -40 -37 -136 -91 -231 -182 -324 -130 -132 -224 -170 -432 -170 -88 0 -140 4 -160 14 -16 7 -36 12 -42 11 -7 -1 -13 3 -13 9 0 5 -6 10 -14 10 -7 0 -51 19 -97 42 -63 31 -103 60 -159 117 -129 130 -194 286 -204 493 -4 74 -3 92 4 63 5 -22 9 -65 10 -95 1 -30 10 -80 20 -110 11 -30 18 -44 15 -30 -3 14 -7 50 -10 80 -4 50 -4 49 9 -17 16 -85 50 -161 112 -254 50 -76 145 -167 184 -176 14 -3 36 -13 50 -22 86 -57 283 -99 349 -73 19 7 4 10 -70 15 -142 9 -234 43 -351 129 -153 113 -238 285 -238 483 0 102 17 181 59 270 25 54 105 182 122 195 3 3 11 15 18 28 7 12 16 20 21 17 5 -3 12 0 16 6 4 8 3 9 -4 5 -16 -9 -16 16 0 32 20 20 -20 26 -50 6 -44 -29 -135 -128 -170 -186 -38 -65 -69 -149 -77 -209 -4 -39 -4 -40 4 -11 5 18 12 36 16 40 5 4 5 -1 2 -11 -4 -10 -7 -62 -8 -115 l-1 -97 -14 85 c-8 47 -11 105 -8 130 13 105 108 269 201 348 l46 40 -40 11 c-22 6 -45 17 -51 24 -13 16 -19 41 -10 45 4 2 21 16 37 31 72 67 269 148 394 161 101 10 95 10 175 0z m457 -380 c27 -27 47 -50 44 -50 -3 0 -27 23 -54 50 -27 28 -47 50 -44 50 3 0 27 -22 54 -50z m-655 11 c-36 -10 -74 -22 -84 -26 -14 -6 -17 -5 -12 3 9 15 92 41 131 41 20 0 8 -6 -35 -18z m240 -79 l35 -15 -30 -7 c-16 -3 -43 -3 -60 2 -50 13 -120 9 -186 -12 -68 -21 -115 -53 -104 -69 3 -6 -12 -28 -34 -50 -21 -21 -54 -70 -73 -108 -30 -62 -33 -76 -33 -158 0 -113 23 -163 112 -253 35 -35 63 -65 63 -67 0 -2 -9 -1 -20 2 -30 8 -118 107 -143 160 -18 40 -22 66 -22 153 0 98 2 110 32 171 18 36 47 85 65 110 18 24 33 49 34 54 0 6 2 15 2 22 3 17 125 73 180 83 59 10 136 2 182 -18z m481 -9 c13 -16 12 -17 -3 -4 -17 13 -22 21 -14 21 2 0 10 -8 17 -17z m-874 -9 c4 -10 -10 -32 -39 -62 -88 -90 -134 -192 -145 -318 -5 -68 -4 -73 40 -165 72 -150 185 -245 328 -275 96 -20 229 -8 229 21 0 20 41 30 51 14 17 -27 8 -37 -53 -59 -121 -45 -232 -37 -356 26 -93 46 -168 126 -225 240 -53 106 -59 130 -58 210 2 131 53 245 148 335 55 52 70 58 80 33z m-387 -66 c-104 -223 -87 -507 41 -724 48 -82 171 -203 256 -253 287 -169 621 -134 861 92 99 94 163 206 197 345 14 61 17 101 12 225 -5 152 -20 226 -63 310 -8 15 -12 27 -9 27 15 0 66 -135 81 -215 17 -95 15 -254 -6 -343 -48 -201 -194 -388 -380 -486 -188 -99 -428 -102 -625 -8 -181 87 -323 240 -391 418 -57 151 -70 329 -34 470 19 73 73 204 84 204 3 0 -8 -28 -24 -62z m232 25 c-16 -21 -37 -53 -46 -70 -9 -18 -19 -33 -21 -33 -9 0 34 77 60 109 37 44 43 39 7 -6z m503 2 c33 -9 77 -27 98 -41 21 -14 43 -22 49 -18 6 4 8 3 5 -3 -4 -6 2 -18 13 -28 19 -17 28 -10 13 11 -5 6 9 -8 30 -30 22 -23 46 -54 54 -71 l14 -30 -20 25 c-26 32 -26 24 0 -35 29 -66 24 -218 -10 -284 -33 -63 -102 -126 -187 -167 -64 -32 -83 -37 -143 -37 -89 0 -161 33 -236 108 -101 101 -127 251 -67 380 53 113 158 205 253 224 64 13 69 13 134 -4z m817 -117 c-7 -7 -12 -8 -12 -2 0 6 3 14 7 17 3 4 9 5 12 2 2 -3 -1 -11 -7 -17z m-1401 -25 c-12 -20 -14 -14 -5 12 4 9 9 14 11 11 3 -2 0 -13 -6 -23z m1039 -28 c0 -5 -5 -3 -10 5 -5 8 -10 20 -10 25 0 6 5 3 10 -5 5 -8 10 -19 10 -25z m378 -20 c0 -16 -2 -15 -8 5 -11 34 -11 60 0 35 5 -11 8 -29 8 -40z m-350 -120 l-1 -50 -7 60 c-4 33 -10 74 -13 90 -4 20 -2 16 7 -10 8 -22 14 -62 14 -90z m109 103 c-3 -8 -6 -5 -6 6 -1 11 2 17 5 13 3 -3 4 -12 1 -19z m-1200 -10 c-3 -8 -6 -5 -6 6 -1 11 2 17 5 13 3 -3 4 -12 1 -19z m-10 -65 c-3 -10 -5 -4 -5 12 0 17 2 24 5 18 2 -7 2 -21 0 -30z m0 -120 c-3 -10 -5 -2 -5 17 0 19 2 27 5 18 2 -10 2 -26 0 -35z m1105 -45 c2 -20 0 -34 -4 -32 -4 3 -7 26 -7 52 1 49 5 42 11 -20z m15 30 c-3 -7 -5 -2 -5 12 0 14 2 19 5 13 2 -7 2 -19 0 -25z m-1110 -40 c-3 -7 -5 -2 -5 12 0 14 2 19 5 13 2 -7 2 -19 0 -25z m52 -125 c12 -24 19 -43 16 -43 -5 0 -45 75 -45 86 0 11 6 2 29 -43z m74 -98 c4 0 7 -4 8 -8 2 -18 -9 -16 -27 5 -11 13 -13 18 -4 12 8 -5 18 -9 23 -9z m107 -97 c8 -2 21 -10 27 -19 25 -34 143 -71 248 -79 l100 -7 -75 -2 c-131 -2 -250 42 -335 124 -23 22 -27 28 -11 13 17 -15 38 -28 46 -30z m810 -42 c0 -2 -8 -10 -17 -17 -16 -13 -17 -12 -4 4 13 16 21 21 21 13z m-377 -248 c-2 -5 -15 -8 -29 -8 -13 0 -24 3 -24 8 0 4 13 7 29 7 16 0 27 -3 24 -7z"
       id="path124" />
    <path
       d="M2528 3243 c6 -2 18 -2 25 0 6 3 1 5 -13 5 -14 0 -19 -2 -12 -5z"
       id="path126" />
    <path
       d="M2315 3150 c-13 -6 -15 -9 -5 -9 8 0 22 4 30 9 18 12 2 12 -25 0z"
       id="path128" />
    <path
       d="M2658 3133 c7 -3 16 -2 19 1 4 3 -2 6 -13 5 -11 0 -14 -3 -6 -6z"
       id="path130" />
    <path
       d="M2705 3120 c27 -12 43 -12 25 0 -8 5 -22 9 -30 9 -10 0 -8 -3 5 -9z"
       id="path132" />
    <path
       d="M2148 2983 c-17 -4 -54 -53 -40 -53 4 0 21 14 37 30 16 17 27 29 24 29 -2 -1 -12 -3 -21 -6z"
       id="path134" />
    <path
       d="M2447 2856 c-183 -66 -283 -282 -206 -447 73 -155 228 -230 384 -184 166 48 268 186 252 341 -12 116 -85 217 -199 274 -50 24 -73 30 -127 30 -36 -1 -83 -7 -104 -14z m208 -47 c58 -29 130 -105 155 -165 82 -191 -86 -411 -300 -391 -68 6 -107 25 -168 80 -62 58 -92 124 -92 207 1 213 223 360 405 269z"
       id="path136" />
    <path
       d="M2493 2819 c-84 -15 -166 -78 -209 -161 -22 -43 -30 -154 -14 -202 30 -93 139 -181 238 -193 102 -12 218 47 276 140 42 68 48 164 14 238 -14 30 -37 69 -52 87 -59 69 -163 106 -253 91z m153 -50 c84 -40 143 -135 144 -227 0 -126 -98 -233 -228 -249 -130 -15 -257 92 -270 228 -9 97 55 206 148 251 50 25 152 24 206 -3z"
       id="path138" />
    <path
       d="M2820 2743 c13 -18 26 -30 29 -28 3 3 -8 18 -23 33 l-29 27 23 -32z"
       id="path140" />
    <path
       d="M3180 3296 c0 -8 21 -32 46 -52 73 -60 171 -191 225 -299 71 -144 100 -268 102 -427 2 -105 4 -123 14 -105 17 30 16 112 -2 230 -31 203 -111 376 -252 540 -63 74 -133 133 -133 113z"
       id="path142" />
    <path
       d="M4935 3288 c-4 -13 -8 -25 -9 -28 -2 -3 -8 -18 -15 -35 -7 -16 -16 -32 -21 -35 -5 -3 -1 -34 10 -70 24 -79 64 -274 82 -395 20 -140 17 -569 -5 -732 -10 -73 -15 -138 -11 -144 4 -7 3 -9 -2 -6 -5 3 -20 -44 -32 -103 -12 -60 -34 -146 -48 -191 -14 -44 -23 -83 -21 -86 7 -6 52 143 68 222 11 55 14 61 37 60 14 0 27 -5 29 -12 8 -22 -89 -285 -156 -426 -122 -256 -231 -415 -411 -601 -195 -201 -408 -355 -665 -481 -162 -79 -371 -161 -512 -199 l-88 -25 53 0 c141 -2 640 214 866 375 128 91 273 213 353 297 48 49 65 62 73 52 7 -9 7 -21 0 -41 -8 -23 2 -15 50 36 251 271 382 501 486 854 41 140 41 132 -13 164 -8 5 -8 28 2 92 7 47 20 132 29 190 37 245 42 532 15 820 -12 127 -27 198 -76 353 -36 115 -53 139 -68 95z"
       id="path144" />
    <path
       d="M571 3104 c0 -11 3 -14 6 -6 3 7 2 16 -1 19 -3 4 -6 -2 -5 -13z"
       id="path146" />
    <path
       d="M3627 3024 c24 -50 58 -133 73 -185 16 -52 29 -86 29 -77 2 50 -87 280 -127 328 -11 14 0 -16 25 -66z"
       id="path148" />
    <path
       d="M3311 3068 c-1 -17 6 -31 18 -38 15 -8 19 -7 17 6 -1 9 -7 19 -13 22 -5 4 -13 14 -16 22 -3 9 -6 4 -6 -12z"
       id="path150" />
    <path
       d="M3370 2991 c0 -6 4 -13 10 -16 6 -3 7 1 4 9 -7 18 -14 21 -14 7z"
       id="path152" />
    <path
       d="M915 2889 c-4 -6 -5 -12 -2 -15 2 -3 7 2 10 11 7 17 1 20 -8 4z"
       id="path154" />
    <path
       d="M1222 2783 c-20 -152 -20 -184 -6 -298 19 -151 38 -249 65 -336 29 -99 36 -70 10 44 -48 213 -63 429 -42 600 5 40 4 61 -4 67 -9 7 -15 -13 -23 -77z"
       id="path156" />
    <path
       d="M901 2824 c0 -11 3 -14 6 -6 3 7 2 16 -1 19 -3 4 -6 -2 -5 -13z"
       id="path158" />
    <path
       d="M4262 2810 c0 -14 2 -19 5 -12 2 6 2 18 0 25 -3 6 -5 1 -5 -13z"
       id="path160" />
    <path
       d="M4273 2735 c0 -22 2 -30 4 -17 2 12 2 30 0 40 -3 9 -5 -1 -4 -23z"
       id="path162" />
    <path
       d="M3591 2744 c0 -11 3 -14 6 -6 3 7 2 16 -1 19 -3 4 -6 -2 -5 -13z"
       id="path164" />
    <path
       d="M3732 2715 c0 -16 2 -22 5 -12 2 9 2 23 0 30 -3 6 -5 -1 -5 -18z"
       id="path166" />
    <path
       d="M3602 2700 c0 -14 2 -19 5 -12 2 6 2 18 0 25 -3 6 -5 1 -5 -13z"
       id="path168" />
    <path
       d="M1163 2650 c0 -30 2 -43 4 -27 2 15 2 39 0 55 -2 15 -4 2 -4 -28z"
       id="path170" />
    <path
       d="M3613 2625 c0 -27 2 -38 4 -22 2 15 2 37 0 50 -2 12 -4 0 -4 -28z"
       id="path172" />
    <path
       d="M4284 2525 c0 -77 2 -107 3 -67 2 40 2 103 0 140 -2 37 -3 4 -3 -73z"
       id="path174" />
    <path
       d="M1172 2529 c-5 -139 59 -372 152 -559 51 -102 159 -280 170 -280 3 0 -20 39 -51 88 -157 249 -244 500 -266 762 -3 43 -4 42 -5 -11z"
       id="path176" />
    <path
       d="M1153 2525 c0 -27 2 -38 4 -22 2 15 2 37 0 50 -2 12 -4 0 -4 -28z"
       id="path178" />
    <path
       d="M3617 2456 c-16 -268 -116 -511 -286 -689 -59 -62 -180 -149 -279 -200 -50 -26 -92 -50 -92 -52 0 -14 190 88 260 139 117 87 258 262 316 392 44 100 83 271 90 404 4 66 5 120 2 120 -3 0 -8 -51 -11 -114z"
       id="path180" />
    <path
       d="M3846 2448 c-19 -336 -173 -679 -402 -899 -237 -226 -561 -344 -899 -326 -342 18 -628 140 -856 367 -141 141 -246 305 -315 495 -31 83 -37 88 -37 25 1 -28 35 -144 53 -180 67 -131 90 -173 116 -207 16 -20 38 -52 49 -70 26 -41 151 -169 202 -206 21 -15 65 -47 98 -70 33 -24 88 -59 122 -77 34 -19 60 -37 57 -42 -3 -4 2 -5 11 -2 8 4 29 1 46 -6 37 -16 32 -24 -6 -10 -15 6 -30 9 -32 6 -10 -9 217 -75 315 -91 128 -22 359 -17 470 10 40 9 72 19 70 21 -3 2 -38 -4 -79 -13 -115 -26 -394 -24 -519 5 -100 22 -208 55 -155 47 17 -2 73 -14 125 -25 108 -23 346 -27 488 -10 232 29 489 151 675 320 37 34 67 69 67 77 0 9 3 13 7 10 10 -10 32 13 27 27 -4 12 21 41 35 41 3 0 6 7 6 15 0 8 7 15 15 15 9 0 14 8 12 19 -2 10 1 15 7 12 5 -4 13 -1 17 5 5 8 3 9 -6 4 -8 -5 -11 -3 -8 6 3 8 10 13 16 12 7 -2 9 4 5 14 -4 10 -2 14 5 9 6 -3 14 -1 18 5 5 8 3 9 -6 4 -8 -5 -11 -3 -8 6 3 8 10 13 16 12 7 -2 9 4 5 14 -4 11 -3 14 5 9 8 -5 10 -1 5 10 -4 12 -3 15 5 10 8 -5 10 -1 5 10 -4 12 -3 15 5 10 8 -5 10 -1 5 10 -4 12 -3 15 5 10 8 -5 10 -1 5 10 -4 12 -3 15 5 10 8 -5 10 -1 5 10 -4 11 -2 15 4 11 6 -4 10 -1 9 6 0 6 14 49 31 94 56 141 84 265 90 406 3 70 4 127 1 127 -3 0 -8 -51 -12 -112z"
       id="path182" />
    <path
       d="M4272 2340 c0 -19 2 -27 5 -17 2 9 2 25 0 35 -3 9 -5 1 -5 -18z"
       id="path184" />
    <path
       d="M4262 2275 c0 -16 2 -22 5 -12 2 9 2 23 0 30 -3 6 -5 -1 -5 -18z"
       id="path186" />
    <path
       d="M4252 2220 c0 -14 2 -19 5 -12 2 6 2 18 0 25 -3 6 -5 1 -5 -13z"
       id="path188" />
    <path
       d="M1551 2170 c0 -8 4 -22 9 -30 12 -18 12 -2 0 25 -6 13 -9 15 -9 5z"
       id="path190" />
    <path
       d="M4241 2164 c0 -11 3 -14 6 -6 3 7 2 16 -1 19 -3 4 -6 -2 -5 -13z"
       id="path192" />
    <path
       d="M4226 2109 c-8 -42 0 -50 9 -9 4 17 5 34 2 36 -2 3 -7 -10 -11 -27z"
       id="path194" />
    <path
       d="M1570 2115 c0 -5 5 -17 10 -25 5 -8 10 -10 10 -5 0 6 -5 17 -10 25 -5 8 -10 11 -10 5z"
       id="path196" />
    <path
       d="M1600 2046 c0 -11 50 -106 55 -106 3 0 -7 24 -21 53 -28 55 -34 65 -34 53z"
       id="path198" />
    <path
       d="M4179 1957 c-14 -40 -29 -81 -33 -92 -4 -11 2 -4 12 15 22 39 57 139 51 145 -3 2 -16 -29 -30 -68z"
       id="path200" />
    <path
       d="M1526 1969 c53 -99 142 -224 200 -279 l58 -55 -58 65 c-67 75 -141 182 -179 257 -15 28 -32 55 -38 59 -7 4 1 -17 17 -47z"
       id="path202" />
    <path
       d="M1663 1916 c0 -9 4 -16 9 -16 5 0 6 -5 3 -10 -3 -6 1 -13 9 -16 9 -3 14 -10 11 -14 -8 -12 139 -175 213 -235 36 -30 96 -73 132 -94 68 -41 229 -111 252 -111 7 1 -14 11 -47 24 -152 59 -275 138 -388 250 -75 74 -154 161 -156 172 -1 2 -1 7 -1 12 0 4 -9 18 -19 31 -13 17 -18 19 -18 7z"
       id="path204" />
    <path
       d="M4120 1812 c0 -18 -108 -194 -170 -277 -78 -104 -242 -266 -350 -347 -69 -52 -204 -126 -258 -143 -28 -8 -19 -27 11 -21 60 11 112 30 155 56 26 16 57 34 70 40 12 5 22 14 22 20 0 5 7 10 15 10 8 0 15 4 15 8 0 4 13 15 28 24 43 26 200 183 273 273 69 86 189 266 189 284 0 6 3 11 8 11 4 0 7 16 8 35 0 19 -3 35 -8 35 -4 0 -8 -4 -8 -8z"
       id="path206" />
    <path
       d="M3865 1558 c-22 -24 -47 -55 -55 -70 -20 -36 -119 -140 -199 -211 -85 -74 -216 -164 -309 -212 -78 -41 -89 -50 -71 -61 8 -4 9 -3 5 4 -4 7 -2 12 4 12 19 0 199 108 279 167 127 96 283 255 370 381 30 43 24 40 -24 -10z"
       id="path208" />
    <path
       d="M1865 1550 c10 -11 20 -20 23 -20 3 0 -3 9 -13 20 -10 11 -20 20 -23 20 -3 0 3 -9 13 -20z"
       id="path210" />
    <path
       d="M2325 1410 c27 -12 43 -12 25 0 -8 5 -22 9 -30 9 -10 0 -8 -3 5 -9z"
       id="path212" />
    <path
       d="M2377 1399 c7 -7 15 -10 18 -7 3 3 -2 9 -12 12 -14 6 -15 5 -6 -5z"
       id="path214" />
    <path
       d="M2478 1383 c7 -3 16 -2 19 1 4 3 -2 6 -13 5 -11 0 -14 -3 -6 -6z"
       id="path216" />
    <path
       d="M1140 1356 c0 -2 8 -10 18 -17 15 -13 16 -12 3 4 -13 16 -21 21 -21 13z"
       id="path218" />
    <path
       d="M4801 1332 c-9 -21 -22 -31 -57 -40 -24 -7 -57 -12 -73 -12 -22 0 -31 -7 -41 -30 -20 -47 -148 -231 -237 -338 -106 -127 -271 -287 -396 -381 -88 -67 -96 -76 -90 -100 3 -14 9 -30 13 -36 4 -5 6 -20 4 -33 l-4 -22 43 26 c271 169 544 443 711 714 61 97 150 270 143 276 -2 3 -10 -8 -16 -24z"
       id="path220" />
    <path
       d="M1185 1280 c2 -38 -36 -68 -63 -50 -60 42 133 -127 217 -191 l105 -78 18 21 c10 12 18 26 18 33 0 7 -28 36 -62 66 -35 29 -102 93 -149 141 -81 83 -86 86 -84 58z"
       id="path222" />
    <path
       d="M3304 1165 c-10 -8 -14 -15 -8 -15 6 0 17 7 24 15 16 19 9 19 -16 0z"
       id="path224" />
    <path
       d="M2975 1130 c-13 -6 -15 -9 -5 -9 8 0 22 4 30 9 18 12 2 12 -25 0z"
       id="path226" />
    <path
       d="M2178 1103 c7 -3 16 -2 19 1 4 3 -2 6 -13 5 -11 0 -14 -3 -6 -6z"
       id="path228" />
    <path
       d="M2212 1095 c3 -3 47 -15 99 -26 131 -30 335 -30 473 0 55 12 102 24 105 28 3 3 -5 3 -19 0 -159 -36 -400 -42 -558 -14 -101 19 -108 19 -100 12z"
       id="path230" />
    <path
       d="M3201 1041 c-8 -6 -9 -11 -3 -15 6 -3 14 -1 17 5 9 14 2 20 -14 10z"
       id="path232" />
    <path
       d="M735 260 c10 -11 20 -20 23 -20 3 0 -3 9 -13 20 -10 11 -20 20 -23 20 -3 0 3 -9 13 -20z"
       id="path234" />
    <path
       d="M4064 264 c-18 -14 -18 -15 4 -4 12 6 22 13 22 15 0 8 -5 6 -26 -11z"
       id="path236" />
    <path
       d="M770 236 c0 -2 8 -10 18 -17 15 -13 16 -12 3 4 -13 16 -21 21 -21 13z"
       id="path238" />
    <path
       d="M3984 214 c-18 -14 -18 -15 4 -4 12 6 22 13 22 15 0 8 -5 6 -26 -11z"
       id="path240" />
    <path
       d="M810 206 c0 -2 8 -10 18 -17 15 -13 16 -12 3 4 -13 16 -21 21 -21 13z"
       id="path242" />
    <path
       d="M3934 184 c-18 -14 -18 -15 4 -4 12 6 22 13 22 15 0 8 -5 6 -26 -11z"
       id="path244" />
    <path
       d="M3790 110 c-52 -27 -92 -49 -87 -49 10 -1 187 88 187 94 0 7 5 9 -100 -45z"
       id="path246" />
    <path
       d="M914 131 c7 -11 46 -35 46 -28 0 3 -12 12 -26 22 -15 9 -23 12 -20 6z"
       id="path248" />
    <path
       d="M16 111 c-3 -4 -7 -31 -11 -60 l-6 -52 78 6 c43 3 91 7 108 8 19 2 31 9 33 19 2 13 -6 17 -35 20 -33 3 -38 7 -41 30 -2 19 -9 26 -23 25 -10 -1 -19 -4 -19 -7 0 -3 -9 -6 -20 -6 -11 0 -20 3 -20 7 0 10 -39 19 -44 10z"
       id="path250" />
    <path
       d="M3660 50 c-8 -5 -10 -10 -5 -10 6 0 17 5 25 10 8 5 11 10 5 10 -5 0 -17 -5 -25 -10z"
       id="path252" />
  </g>
  <path
     style="fill:#ffffff;stroke:#000000;stroke-width:1.44804;stroke-linecap:round;stroke-linejoin:round"
     d="M 0.73447385,45.558864 C 0.45637861,42.591175 0.34651874,32.379645 0.49034082,22.866576 0.79188852,2.9207907 1.036267,2.0323624 6.4738716,1.113685 10.447219,0.44239228 65.704832,0.42044681 66.374282,1.0898958 c 0.657547,0.657547 -1.215437,1.8493264 -3.783974,2.4077427 -1.137151,0.2472239 -2.067786,0.8301148 -2.068078,1.295313 -2.93e-4,0.4651983 -0.831359,0.8936879 -1.846816,0.9521993 -2.346078,0.1351827 -7.17468,3.0866567 -7.17468,4.3855102 0,0.542298 0.564063,1.202448 1.253473,1.466999 0.955366,0.366608 1.044769,0.689708 0.375918,1.358559 -0.66885,0.66885 -1.092122,0.662988 -1.779758,-0.02465 -2.274322,-2.274322 -6.616153,0.23698 -6.616153,3.826763 0,1.044906 -0.370909,1.269326 -1.503671,0.909801 -1.050759,-0.333498 -1.503671,-0.135105 -1.503671,0.658665 0,0.624752 -1.00635,1.730378 -2.236335,2.456948 -1.229984,0.72657 -3.249834,2.732308 -4.488555,4.457197 -1.238722,1.724889 -3.425883,3.693101 -4.860359,4.373804 -3.214153,1.525215 -10.25982,7.876994 -11.679046,10.528842 -0.619555,1.157648 -1.695452,1.959199 -2.629775,1.959199 -1.878713,0 -7.3875928,4.329539 -6.7733883,5.323342 0.2349997,0.380238 -0.5714754,0.691342 -1.7921669,0.691342 -1.220692,0 -2.3961663,0.460542 -2.6121653,1.023427 C 4.4390826,49.703785 3.5823489,50.342152 2.7512289,50.559495 1.3726561,50.92 1.1957485,50.48135 0.73447385,45.558864 Z"
     id="path1087"
     transform="scale(0.74999998)" />
  <path
     style="fill:#ffffff;stroke:#000000;stroke-width:1.44804;stroke-linecap:round;stroke-linejoin:round"
     d="M 1.8837818,28.757709 C 1.8880635,8.2205967 2.3886677,3.5936691 4.7136573,2.602058 6.3332168,1.9113137 58.493784,1.1412166 60.167142,1.7833443 c 1.016381,0.3900216 1.052323,0.634699 0.216076,1.4709448 -0.551705,0.5517061 -1.845566,1.2223159 -2.875245,1.490244 -3.303783,0.8596624 -6.759074,3.4250448 -6.759074,5.0182784 0,1.1634635 -0.496022,1.5147215 -2.138981,1.5147215 -2.320124,0 -4.627539,1.997667 -4.627539,4.006337 0,0.691081 -0.499294,1.256512 -1.109542,1.256512 -0.610248,0 -3.739764,2.640814 -6.954479,5.868475 -3.214715,3.227663 -7.304927,6.841417 -9.08936,8.030565 -1.784432,1.18915 -4.844328,3.912641 -6.799769,6.052205 -1.95544,2.139563 -4.813038,4.486929 -6.350217,5.216368 -1.537181,0.72944 -3.614914,2.300817 -4.6171849,3.491949 -1.002272,1.191132 -2.5008397,2.165695 -3.3301509,2.165695 -0.8293112,0 -1.7169356,0.338326 -1.9724985,0.751835 C 2.2063043,50.630076 1.8799242,47.260845 1.8837818,28.757709 Z"
     id="path1089"
     transform="scale(0.74999998)" />
  <path
     style="fill:#ffffff;stroke:#000000;stroke-width:1.44804;stroke-linecap:round;stroke-linejoin:round"
     d="m 145.48541,185.89134 c 18.59894,-23.76592 55.91909,-54.54747 70.8493,-58.43629 2.27001,-0.59127 10.34712,-3.84448 17.94915,-7.22937 29.40233,-13.09171 55.10684,-20.386926 83.36665,-23.660334 24.36105,-2.821803 61.10072,0.164429 88.29792,7.176934 11.4841,2.96105 41.7822,14.53394 40.75071,15.56544 -0.18931,0.1893 -6.04278,-1.36002 -13.00772,-3.44295 -34.4422,-10.30025 -59.9181,-14.36697 -90.00153,-14.36697 -23.32885,0 -39.00186,1.85931 -60.8085,7.2138 -25.0652,6.1546 -58.57699,19.79434 -78.54232,31.96775 -9.87109,6.01868 -35.0922,25.68834 -50.67941,39.52431 -8.86501,7.86901 -11.09639,9.42162 -8.17425,5.68768 z"
     id="path1091"
     transform="scale(0.74999998)" />
  <path
     style="fill:#ffffff;stroke:#000000;stroke-width:1.44804;stroke-linecap:round;stroke-linejoin:round"
     d=""
     id="path1093"
     transform="scale(0.74999998)" />
  <path
     style="fill:#ffffff;stroke:#000000;stroke-width:1.44804;stroke-linecap:round;stroke-linejoin:round"
     d="m 322.63944,475.89277 c -19.79976,-2.26634 -43.56568,-13.05073 -60.62476,-27.51004 -5.27896,-4.47446 -12.7812,-12.36594 -12.7812,-13.44434 0,-0.26459 3.46784,2.60533 7.70631,6.3776 16.47345,14.6615 36.75794,25.47588 55.83345,29.76682 7.22287,1.62475 34.38915,2.30281 44.7673,1.11739 18.4153,-2.10346 33.06673,-8.16063 49.91573,-20.63608 6.84291,-5.06667 22.57175,-20.15033 25.6616,-24.60897 4.04085,-5.83096 0.89685,-3.73173 -9.26441,6.18578 -5.68915,5.55268 -13.3556,12.34794 -17.03654,15.10057 -12.2518,9.16198 -27.77759,16.1321 -43.5387,19.54622 -6.53369,1.4153 -9.98156,1.65928 -23.44856,1.65928 -13.467,0 -16.91487,-0.24398 -23.44855,-1.65928 -17.14136,-3.7131 -36.74894,-12.78061 -48.72766,-22.53407 -12.56499,-10.23083 -28.94567,-26.80267 -28.94567,-29.28348 0,-0.57971 -0.94973,-1.85318 -2.11051,-2.82991 -3.92016,-3.2986 -12.38142,-22.69306 -16.31835,-37.4041 -3.72058,-13.9026 -4.0203,-38.36742 -0.65504,-53.46819 5.93108,-26.61423 28.10349,-56.55497 55.48595,-74.92601 12.94073,-8.68201 27.48085,-14.98855 41.78885,-18.12524 10.40333,-2.28068 29.0002,-2.44205 39.84728,-0.34577 14.42936,2.78859 33.65084,10.52069 47.29647,19.02564 3.07109,1.91412 6.79587,3.90859 8.27729,4.43214 1.48142,0.52355 2.62597,1.25886 2.54343,1.63403 -0.0825,0.37516 4.12497,5.21392 9.35,10.7528 12.81748,13.58738 21.686,25.61316 24.64794,33.42281 2.49841,6.58747 6.04117,13.12154 7.11449,13.12154 1.33152,0 1.70373,-1.71494 0.51642,-2.3794 -0.66607,-0.37274 -1.58008,-2.10441 -2.03115,-3.84813 -0.45106,-1.74373 -1.49784,-4.11656 -2.32617,-5.27296 -1.78948,-2.49824 -1.59137,-4.53759 0.47894,-4.93027 0.82228,-0.15596 1.69501,-0.60029 1.93942,-0.98739 0.57632,-0.91282 6.31827,14.01721 8.64918,22.48934 2.07683,7.54861 2.19985,9.76022 0.6564,11.80085 -0.60712,0.80268 -1.10385,2.13606 -1.10385,2.96308 0,1.48486 -0.0147,1.48541 -1.17914,0.0443 -1.07742,-1.33351 -1.14546,-0.16224 -0.78873,13.5773 0.56629,21.81114 -0.84641,32.82812 -6.32692,49.34044 -2.79359,8.41688 -10.26543,22.59322 -15.73628,29.85646 -21.0878,27.99675 -45.15344,44.23119 -74.8353,50.48311 -8.64214,1.82031 -31.25229,2.64041 -41.24896,1.49616 z m 37.35762,-28.1411 c 18.73451,-4.24165 34.96497,-13.55648 48.45723,-27.81012 13.75014,-14.52607 23.31493,-33.07227 26.18998,-50.78257 1.19216,-7.34365 1.37872,-30.19687 0.30697,-37.60234 -1.73322,-11.97601 -9.72506,-33.39173 -11.71748,-31.39931 -0.30167,0.30167 0.69236,3.26306 2.20896,6.58086 5.06659,11.08389 7.2364,25.18857 7.23038,47.00043 -0.004,13.1269 -0.69789,18.16307 -3.87249,28.09087 -9.0325,28.24694 -31.25076,50.62737 -59.90611,60.34339 -17.48574,5.92878 -38.36321,6.00518 -56.88275,0.20814 -8.50484,-2.6622 -21.63561,-9.23565 -27.7967,-13.91542 -25.63711,-19.47315 -39.02759,-43.40366 -41.74254,-74.59933 -1.44619,-16.61712 1.03797,-31.99668 7.91417,-48.99696 2.17431,-5.37562 3.84181,-9.89232 3.70557,-10.03711 -1.81077,-1.92427 -10.34868,19.29415 -12.89033,32.03505 -1.71592,8.60166 -1.72422,27.16338 -0.0164,36.64523 3.58369,19.89646 10.5585,35.21329 22.59591,49.62115 15.43427,18.47362 36.79876,30.9961 60.25967,35.32031 7.60935,1.40253 28.458,0.99532 35.95594,-0.70227 z m -3.43518,-6.23625 c 0.22029,-0.66916 -0.7912,-0.9398 -3.51245,-0.9398 -2.95581,0 -3.82182,0.26488 -3.82182,1.16895 0,0.92327 0.73822,1.12078 3.51244,0.93979 1.9631,-0.12807 3.64893,-0.64369 3.82183,-1.16894 z m 7.68415,-6.91738 c 12.36012,-3.10166 21.75178,-9.00537 33.13202,-20.82719 11.69126,-12.14491 17.43663,-21.98813 23.41089,-40.10859 2.12045,-6.43149 3.4071,-9.51433 3.13787,-7.51835 -1.03658,7.68448 -10.47609,30.69373 -15.05474,36.69664 -2.23086,2.92481 -1.62015,3.87102 2.51134,3.89096 1.85144,0.009 2.94915,-0.6477 4.90759,-2.9357 3.23232,-3.77624 8.76726,-14.99851 11.90118,-24.13007 2.23279,-6.50584 2.47902,-8.13597 2.80765,-18.58804 0.36523,-11.61619 -0.81248,-27.79079 -2.11918,-29.10472 -0.44624,-0.44871 -0.73387,1.36812 -0.7737,4.88693 l -0.0634,5.60118 -1.3804,-6.10845 c -3.24049,-14.33963 -7.21615,-24.50792 -11.28546,-28.86413 -4.46089,-4.7754 -7.74862,-1.09354 -4.57623,5.12485 0.83374,1.63426 1.34747,3.13979 1.14163,3.34564 -0.20584,0.20583 0.29285,1.51645 1.1082,2.91247 1.58124,2.70735 4.15083,14.86546 5.00112,23.66294 0.59532,6.15952 -0.62962,16.84762 -2.51187,21.91709 -1.37308,3.6981 -3.15877,5.11528 -3.15877,2.50689 0,-2.99966 -1.38502,-1.53281 -3.31286,3.50857 -3.59838,9.40993 -17.32595,30.64178 -18.54075,28.6762 -0.42918,-0.69443 -1.39763,-0.14391 -3.52835,2.00565 -1.61525,1.62954 -3.24703,3.48141 -3.62618,4.11529 -0.37915,0.63388 -2.88848,2.22056 -5.57629,3.52596 -2.68782,1.30539 -6.39283,3.66254 -8.23338,5.23809 -1.84054,1.57557 -3.45117,2.77461 -3.57916,2.66457 -0.128,-0.11005 -0.99038,0.28691 -1.91641,0.88213 -2.34192,1.5053 -9.23435,2.668 -18.9759,3.20109 -23.64166,1.29376 -41.60384,-5.79293 -59.38869,-23.43086 -8.21766,-8.14976 -12.975,-14.66357 -16.83351,-23.04863 -5.16008,-11.21354 -5.73183,-14.25804 -5.69623,-30.33169 0.0311,-14.0494 0.0709,-14.39885 2.41553,-21.19876 2.95633,-8.57408 8.43797,-19.60074 11.44872,-23.02979 1.24771,-1.42107 2.26857,-3.08888 2.26857,-3.70624 0,-0.62889 0.92909,-1.3083 2.11287,-1.54505 2.37103,-0.47421 12.58852,-9.55383 13.31032,-11.82802 0.37205,-1.17224 1.1525,-1.47041 3.84871,-1.47041 1.86011,0 4.06541,-0.36574 4.90066,-0.81275 2.88784,-1.54552 2.16043,-0.15122 -1.03833,1.99029 -5.04795,3.3795 -1.73637,3.15861 6.70304,-0.4471 10.95144,-4.67896 17.14187,-6.09042 28.72504,-6.54949 l 10.06891,-0.39905 -0.37784,1.97652 c -0.45805,2.39616 0.29148,3.07715 5.52003,5.01518 2.22286,0.82394 3.11117,1.37219 1.97402,1.21833 -3.18132,-0.43044 -2.46523,0.80275 1.79037,3.08318 15.79625,8.46467 26.94952,20.06505 33.78411,35.1384 10.03297,22.12726 5.91092,47.17503 -10.99288,66.79854 -3.1468,3.65311 -5.55538,6.80809 -5.3524,7.01107 0.20298,0.20298 2.85284,-2.13235 5.88857,-5.18963 12.94053,-13.03237 20.00797,-32.84677 17.8953,-50.17155 -0.86045,-7.05603 -2.49416,-13.6647 -4.63098,-18.73311 -1.92024,-4.55471 -1.11233,-4.79846 1.14107,-0.34426 4.71896,9.32776 6.99027,22.90115 5.76823,34.47123 -1.7966,17.0099 -8.01511,29.59369 -20.99468,42.48484 -4.95727,4.9235 -7.73928,7.01383 -12.07938,9.07615 -3.10132,1.47367 -7.16123,3.42663 -9.02203,4.3399 l -3.38326,1.6605 3.75918,-0.40353 c 4.78819,-0.51398 14.90878,-5.33575 21.58024,-10.28151 6.83099,-5.06402 13.50649,-12.58387 16.89467,-19.03158 1.51908,-2.89081 2.89276,-4.86364 3.05263,-4.38404 0.15986,0.47959 -0.26232,1.94134 -0.93819,3.24833 -1.55869,3.01416 -0.72534,3.95754 1.31159,1.48477 2.84529,-3.45409 5.92888,-11.12285 7.46564,-18.56676 2.01994,-9.78438 1.65197,-27.57044 -0.75577,-36.53059 -2.09723,-7.80459 -6.66458,-17.37517 -11.76691,-24.65674 -2.29509,-3.27534 -3.91153,-5.95491 -3.59209,-5.95461 0.31943,3.1e-4 2.90048,2.87608 5.73565,6.3906 4.73213,5.86602 6.49859,7.42927 6.49859,5.75103 0,-1.00637 -4.38949,-6.93393 -7.79781,-10.53018 -1.7071,-1.80121 -4.45711,-3.88008 -6.11115,-4.6197 -1.65404,-0.73963 -4.82781,-2.91711 -7.05282,-4.83885 -8.06824,-6.96852 -16.2357,-11.52431 -27.15569,-15.14742 -5.85967,-1.94415 -7.29631,-2.11756 -17.29222,-2.0872 -9.33871,0.0284 -11.97182,0.31829 -18.36651,2.02226 -4.10569,1.09403 -7.61345,1.84058 -7.79503,1.659 -0.18158,-0.18158 0.53993,-0.54851 1.60335,-0.81541 1.78556,-0.44815 6.94949,-5.34527 9.54782,-9.0545 1.96626,-2.80692 4.01899,-3.31888 12.8934,-3.21564 4.75954,0.0554 7.37462,0.30379 5.93591,0.56388 -5.63757,1.01915 -2.4169,3.09633 4.80088,3.09633 4.61036,0 14.23478,2.63885 20.56805,5.63942 8.69745,4.12066 15.6086,9.13754 24.75295,17.96844 4.66738,4.50738 8.68237,7.999 8.92222,7.75915 1.4616,-1.4616 -12.06657,-15.5843 -20.88613,-21.80403 -4.52872,-3.19374 -5.25396,-4.25448 -1.84769,-2.70249 2.48705,1.13318 3.60447,0.17209 1.59647,-1.37311 -2.4158,-1.859 -13.66929,-6.93348 -21.02474,-9.48057 -6.6389,-2.29896 -7.15376,-2.3582 -22.84219,-2.62822 -14.54094,-0.25026 -15.89849,-0.38249 -14.43698,-1.40617 1.29058,-0.90396 1.43424,-1.34554 0.71838,-2.20811 -0.49215,-0.593 -0.64724,-1.32375 -0.34464,-1.62389 0.3026,-0.30014 7.20192,-0.50886 15.33181,-0.46382 16.77971,0.093 20.88962,0.86528 33.82684,6.3567 11.87117,5.03892 17.53923,8.99378 28.41067,19.82337 9.98164,9.94323 14.28844,15.67568 19.34354,25.74671 2.97267,5.92229 4.83056,7.95548 3.93218,4.30317 -1.59566,-6.48705 -9.97359,-20.40769 -17.25885,-28.67706 -2.27453,-2.58179 -4.57912,-5.32106 -5.12131,-6.08729 -1.61711,-2.28529 -17.27351,-12.55968 -24.02732,-15.76774 -6.80094,-3.23045 -17.13967,-6.69233 -26.40326,-8.84104 l -5.83833,-1.35421 2.41459,-2.49122 c 1.32802,-1.37018 2.95868,-2.49123 3.62367,-2.49123 1.92854,0 9.86827,-8.3692 9.61471,-10.13478 -0.26351,-1.83485 -5.92221,-3.0774 -17.50937,-3.84474 -23.31139,-1.54375 -55.12387,8.8324 -71.35408,23.27329 -3.93088,3.49752 -4.38185,4.18567 -3.92801,5.99392 0.87413,3.48281 3.77355,5.40732 11.65994,7.73937 0.64601,0.19103 -1.48247,2.77658 -5.65684,6.87162 -9.65027,9.46686 -18.20182,22.7258 -22.90336,35.51102 -1.60741,4.37112 -1.79709,6.11694 -1.79709,16.54038 0,6.4094 -0.11061,10.63847 -0.24581,9.39794 -0.13519,-1.24053 -0.5581,-2.57691 -0.93979,-2.96975 -1.08816,-1.11992 -0.83346,11.23495 0.42853,20.78734 2.31897,17.55299 8.2716,32.96089 17.51518,45.3366 5.434,7.27527 15.81993,17.39564 21.73565,21.17988 5.03745,3.22242 19.17558,10.02129 20.83908,10.02129 0.62536,0 1.49915,0.67665 1.94176,1.50367 0.46153,0.86237 1.57421,1.50367 2.60893,1.50367 0.99231,0 2.75662,0.37076 3.92069,0.82391 4.44669,1.73102 9.39635,2.09322 25.04747,1.83294 13.36013,-0.22219 17.26998,-0.54625 22.53678,-1.86791 z m -15.83291,-17.63073 c -0.1723,-0.16577 -4.7115,-0.68866 -10.08713,-1.16198 -16.48995,-1.45193 -28.54804,-4.92671 -34.709,-10.0021 -1.88233,-1.55066 -3.68594,-2.81938 -4.00803,-2.81938 -0.32208,0 -2.34528,-1.21045 -4.496,-2.68988 -2.15072,-1.47943 -4.06417,-2.5361 -4.25212,-2.34815 -0.52901,0.52901 6.37386,6.43779 11.2116,9.597 5.59204,3.6518 13.80373,7.05364 20.465,8.47798 4.62727,0.98943 26.76179,1.79909 25.87568,0.94651 z m 57.19937,-6.83806 c 0.96964,-1.03215 1.53477,-2.10484 1.25584,-2.38378 -0.5493,-0.5493 -4.2604,2.62106 -4.2604,3.63962 0,1.14793 1.22888,0.63428 3.00456,-1.25584 z m -56.38488,-0.79199 c 5.40754,-1.26446 11.93379,-3.55595 14.25366,-5.00473 1.99634,-1.24673 2.39329,-2.47417 1.5324,-4.73847 -0.57094,-1.5017 -1.23167,-1.87306 -3.33252,-1.87306 -1.46992,0 -3.04603,0.5188 -3.58983,1.18164 -2.8947,3.52832 -3.69518,3.96129 -8.96996,4.85168 -11.32104,1.911 -26.02473,-0.50213 -36.57334,-6.00232 -14.04891,-7.32531 -22.6849,-17.35424 -31.74983,-36.87094 -2.50778,-5.39923 -2.61376,-5.97412 -2.49474,-13.53304 0.2427,-15.41471 5.86009,-29.32157 17.15837,-42.47871 6.94318,-8.08551 8.0633,-10.31252 6.14948,-12.22634 -1.63835,-1.63835 -3.60066,-0.65458 -9.39515,4.7101 -8.4991,7.86866 -14.64679,17.52965 -18.17879,28.56763 -1.29253,4.03935 -1.7708,7.72358 -2.05724,15.84762 -0.4492,12.74016 0.10006,15.07791 6.58782,28.03866 11.08957,22.15388 24.47431,33.72964 45.31687,39.19215 6.75535,1.77048 18.54457,1.92777 25.3428,0.33813 z m 5.47964,-19.29898 c 15.5702,-7.52759 25.0036,-16.58213 28.81064,-27.65355 1.1784,-3.42695 1.42049,-6.32392 1.41364,-16.9163 -0.008,-11.45172 -0.18151,-13.20667 -1.67379,-16.87149 -0.91604,-2.24965 -1.54296,-4.21284 -1.39316,-4.36265 0.1498,-0.14979 0.99233,0.64292 1.87228,1.7616 0.87995,1.11868 1.761,1.87287 1.95788,1.67599 0.84595,-0.84595 -3.80283,-8.37879 -7.99263,-12.95123 -4.53453,-4.94864 -6.30282,-6.14512 -5.39244,-3.6487 0.43075,1.18118 0.31302,1.16927 -1.15134,-0.11652 -0.89715,-0.78773 -1.63116,-2.05645 -1.63116,-2.81939 0,-0.92197 -0.5469,-1.38714 -1.63084,-1.38714 -0.89696,0 -3.34983,-0.96937 -5.45081,-2.15417 -4.82407,-2.72039 -13.11725,-5.72472 -18.99433,-6.88097 -3.77275,-0.74224 -5.53652,-0.68927 -10.4699,0.31441 -9.64788,1.96284 -16.11344,5.6163 -23.97688,13.5485 -11.45166,11.55178 -16.19795,22.11009 -16.22689,36.09736 -0.0286,13.82198 4.50087,23.89061 15.25972,33.92101 10.13026,9.44437 17.80421,12.45157 31.05123,12.16808 8.18157,-0.17509 8.36878,-0.21974 15.61878,-3.72484 z m -68.77256,1.44843 c 0.15703,-0.80954 -0.70772,-1.61756 -2.55891,-2.39103 -3.64336,-1.5223 -4.09884,-0.91909 -1.41849,1.87859 2.27934,2.37912 3.58274,2.54704 3.9774,0.51244 z m 25.62487,-4.10345 c -12.56418,-13.43346 -15.07673,-16.44407 -17.09599,-20.48498 -3.23731,-6.47843 -4.07072,-11.49264 -3.73387,-22.46478 0.24516,-7.98583 0.57935,-10.14646 2.10749,-13.62586 2.90149,-6.60636 6.55721,-12.46601 11.33972,-18.17612 2.44836,-2.92323 4.50311,-5.69644 4.56609,-6.16267 0.063,-0.46624 0.14768,-1.35519 0.18821,-1.97546 0.11976,-1.83249 6.89362,-5.8434 13.48657,-7.98561 5.0036,-1.62579 7.65881,-2.00895 14.40454,-2.07868 4.54861,-0.047 10.13098,0.2045 12.40529,0.55892 2.84151,0.44282 5.19348,0.35091 7.51835,-0.2938 l 3.38326,-0.93822 -3.75918,-1.67374 c -5.44908,-2.42615 -10.76905,-3.37741 -18.88828,-3.37741 -8.18861,0 -14.21455,1.67441 -24.33063,6.76067 -5.72075,2.87633 -7.52998,4.57574 -7.52998,7.07288 0,0.63316 -2.16469,4.46157 -4.81041,8.50758 -6.17799,9.44774 -10.7276,18.51943 -11.80326,23.53506 -1.22313,5.70325 -0.49806,27.21778 1.05683,31.35855 1.85993,4.95313 7.00472,12.06285 13.34102,18.43633 4.90863,4.93744 6.17417,5.82672 8.29195,5.82672 h 2.49923 z m -34.50816,-5.46957 c 0,-1.41018 -5.26961,-11.25877 -6.02414,-11.25877 -1.26682,0 -0.83993,1.47406 1.98217,6.84454 2.47907,4.71768 4.04197,6.42451 4.04197,4.41423 z M 413.88546,360.2232 c 0,-4.55176 -0.72821,-8.36417 -1.59765,-8.36417 -0.75934,0 -0.8801,6.21918 -0.18796,9.67988 0.71726,3.58628 1.78561,2.79907 1.78561,-1.31571 z m -145.85609,-1.59765 c 0,-1.24053 -0.33833,-2.25551 -0.75184,-2.25551 -0.41351,0 -0.75183,1.01498 -0.75183,2.25551 0,1.24053 0.33832,2.25551 0.75183,2.25551 0.41351,0 0.75184,-1.01498 0.75184,-2.25551 z m 148.1116,-5.26285 c 0,-1.24053 -0.33833,-2.2555 -0.75184,-2.2555 -0.41351,0 -0.75183,1.01497 -0.75183,2.2555 0,1.24053 0.33832,2.25551 0.75183,2.25551 0.41351,0 0.75184,-1.01498 0.75184,-2.25551 z M 266.5257,350.6869 c 0,-2.09363 -0.29261,-3.24678 -0.75184,-2.96296 -1.29354,0.79945 -0.85502,6.3906 0.50123,6.3906 0.13783,0 0.25061,-1.54244 0.25061,-3.42764 z m 145.44328,-20.44314 c -0.69181,-2.58444 -1.59479,-4.69897 -2.00663,-4.69897 -0.41182,0 -0.57459,0.45391 -0.3617,1.00869 0.21289,0.55478 1.01031,5.54509 1.77207,11.08957 l 1.38499,10.08089 0.23456,-6.39061 c 0.15694,-4.27608 -0.18165,-7.94539 -1.02329,-11.08957 z m -145.44328,4.6546 c 0,-1.59241 -0.30441,-2.48766 -0.75184,-2.21114 -0.41351,0.25557 -0.75183,1.45968 -0.75183,2.6758 0,1.21613 0.33832,2.21114 0.75183,2.21114 0.41351,0 0.75184,-1.20411 0.75184,-2.6758 z m 1.50367,-7.47398 c 0,-1.03378 -0.33833,-1.87959 -0.75184,-1.87959 -0.41351,0 -0.75183,0.84581 -0.75183,1.87959 0,1.03377 0.33832,1.87958 0.75183,1.87958 0.41351,0 0.75184,-0.84581 0.75184,-1.87958 z m 160.14097,-1.50368 c 0,-1.03377 -0.33833,-1.87958 -0.75184,-1.87958 -0.41351,0 -0.75183,0.84581 -0.75183,1.87958 0,1.03378 0.33832,1.87959 0.75183,1.87959 0.41351,0 0.75184,-0.84581 0.75184,-1.87959 z m 31.2323,-5.36133 c -0.74457,-3.96894 -2.20102,-3.15981 -1.64283,0.91267 0.25975,1.89509 0.72823,3.84046 1.04106,4.32306 0.80266,1.23822 1.18774,-2.11223 0.60177,-5.23573 z m -50.02819,0.6181 c 0,-1.71941 -1.95453,-4.45446 -2.67115,-3.73784 -0.65953,0.65952 1.0909,5.09781 2.01053,5.09781 0.36334,0 0.66062,-0.61198 0.66062,-1.35997 z m -138.0098,-3.38576 c 0.73587,-2.08204 0.11103,-3.5553 -0.99524,-2.34658 -0.35323,0.38594 -0.86983,1.66522 -1.14801,2.84284 -0.65737,2.78288 1.13059,2.36889 2.14325,-0.49626 z m 187.17472,-3.72111 c 0.93529,-1.48274 0.21434,-2.41542 -1.39094,-1.79941 -1.3422,0.51505 -1.61056,3.77517 -0.27409,3.32968 0.48734,-0.16244 1.23661,-0.85107 1.66503,-1.53027 z M 274.6429,311.19003 c 0.70441,-1.27897 3.39525,-5.42346 5.97965,-9.20999 4.72655,-6.92509 5.23947,-9.50569 0.96756,-4.86804 -4.40867,4.78613 -10.80029,16.40342 -9.02485,16.40342 0.43829,0 1.37323,-1.04643 2.07764,-2.32539 z m 144.38653,-18.72601 c -1.5027,-2.03251 -3.6403,-3.05429 -3.6403,-1.74008 0,0.95709 3.26138,3.99559 4.28866,3.99559 0.71364,0 0.51926,-0.67622 -0.64836,-2.25551 z m -2.88846,-3.58781 c 0,-1.07961 -12.73057,-13.25382 -13.28243,-12.70196 -0.30107,0.30107 2.3031,3.41278 5.78704,6.91492 5.954,5.98509 7.49539,7.17516 7.49539,5.78704 z m -96.04699,-6.48969 c 9.14353,-2.85196 11.80098,-4.80388 5.26285,-3.86561 -7.80396,1.11993 -15.97651,4.23564 -15.97651,6.09091 0,0.68707 0.42181,1.08578 0.9398,0.88835 0.51688,-0.19702 4.91512,-1.59816 9.77386,-3.11365 z"
     id="path1095"
     transform="scale(0.74999998)" />
  <path
     style="fill:#ffffff;stroke:#000000;stroke-width:1.44804;stroke-linecap:round;stroke-linejoin:round"
     d="m 332.31131,428.4763 c -9.69892,-1.25952 -20.04836,-4.34274 -28.56975,-8.51125 -4.54861,-2.2251 -9.96182,-4.81977 -12.02937,-5.76593 -5.10518,-2.33626 -17.66863,-15.00011 -23.06036,-23.24464 -7.75394,-11.85661 -11.67949,-20.80178 -14.20317,-32.36487 -0.8484,-3.88726 -1.73938,-7.24562 -1.97995,-7.46304 -0.24057,-0.21741 -0.25676,2.48048 -0.036,5.99531 0.38189,6.07968 0.35352,6.23787 -0.58309,3.25146 -1.15862,-3.69428 -2.64717,-15.11898 -2.52975,-19.41592 0.0698,-2.55525 0.22035,-2.24428 1.00132,2.06853 0.50552,2.79174 1.14424,5.30099 1.41937,5.57611 0.27513,0.27514 0.52493,-4.3773 0.55512,-10.33872 0.0302,-5.96143 0.32599,-12.69976 0.65734,-14.97406 0.68155,-4.67798 0.39346,-5.53662 -1.14962,-3.42634 -1.63695,2.23867 -1.29881,0.20711 1.21379,-7.29251 3.41475,-10.19235 8.34593,-19.07871 15.03234,-27.08941 9.05841,-10.85251 15.65767,-16.31557 19.71549,-16.32109 2.41013,-0.003 2.47129,0.18575 0.85713,2.64926 -0.66573,1.01604 -1.02542,2.32944 -0.79931,2.91867 0.22611,0.58924 -0.0596,1.25198 -0.63499,1.47277 -0.57535,0.22078 -1.82271,1.54449 -2.77191,2.94157 -9.37673,13.80119 -13.11244,19.62556 -15.94291,24.85669 -8.49958,15.70848 -11.72459,33.24932 -9.44932,51.39493 3.30517,26.35925 17.00175,46.36736 41.75369,60.99424 10.20472,6.03036 21.59853,9.17977 37.3606,10.327 4.03172,0.29345 7.3304,0.82551 7.3304,1.18237 0,0.35685 -0.80353,0.64883 -1.78561,0.64883 -0.98209,0 -2.7583,0.13803 -3.94714,0.30674 -1.18884,0.16871 -4.52981,-7.5e-4 -7.42437,-0.3767 z"
     id="path1097"
     transform="scale(0.74999998)" />
  <path
     style="fill:#ffffff;stroke:#000000;stroke-width:1.44804;stroke-linecap:round;stroke-linejoin:round"
     d="M 212.76946,679.3668 C 181.93363,669.12191 147.95767,651.18637 121.40103,631.1344 104.05862,618.03976 75.221401,590.83617 58.074169,571.39501 38.206835,548.86984 21.172279,522.59827 8.1062201,494.33186 2.4458645,482.08655 2.0440321,480.21254 1.5455512,463.73492 1.304072,455.75266 0.93474893,445.16182 0.72483321,440.19971 l -0.38166495,-9.02203 4.79294804,13.90896 c 11.9744047,34.74928 25.1961107,61.8244 44.4460687,91.0157 16.931752,25.67588 25.871616,36.70887 46.632532,57.55079 10.137393,10.17694 16.530823,15.98021 19.567953,17.76168 2.48106,1.45529 8.85896,5.38772 14.17312,8.73872 13.94234,8.79178 33.61874,18.27013 31.79217,15.31467 -0.27329,-0.44219 -4.29908,-3.32016 -8.94621,-6.39551 -4.64713,-3.07534 -12.84505,-9.02314 -18.2176,-13.21734 -5.37256,-4.1942 -12.06275,-8.83153 -14.86709,-10.30516 -10.06119,-5.28701 -25.61879,-19.50973 -32.176104,-29.41533 -2.136334,-3.22718 -5.495866,-7.89756 -7.46563,-10.37862 -1.969764,-2.48106 -5.398698,-7.45003 -7.619842,-11.04216 C 70.234336,551.12196 66.006548,544.69376 63.0604,540.42921 55.333468,529.24447 50.515079,521.08026 39.473051,500.46315 23.479365,470.60055 15.689878,449.39841 5.0410758,406.74302 L 1.5687421,392.83407 1.5472366,372.53451 c -0.016045,-15.14509 0.3065877,-22.68589 1.2706061,-29.69751 0.7106616,-5.16886 1.6360947,-14.04992 2.056518,-19.73568 l 1.528812,-20.67548 C 10.132553,251.99013 23.313786,207.70243 47.126071,165.60076 62.971843,137.58441 81.459576,114.15623 108.39051,87.964758 c 13.4825,-13.112299 23.30299,-21.28028 37.63902,-31.305433 10.31431,-7.212769 31.61603,-20.233536 32.17964,-19.669932 0.21598,0.215984 -2.91519,2.358937 -6.95816,4.762119 C 147.73273,55.731003 129.19704,69.740197 112.14534,86.423334 90.728806,107.37698 77.121417,123.59825 62.149152,146.02348 37.207905,183.3801 22.623987,219.08079 13.998314,263.89427 c -3.073472,15.9678 -3.79292,24.72707 -4.538805,55.25992 -0.813047,33.28209 -0.4904892,37.14478 3.025041,36.22545 1.135438,-0.29693 1.375959,0.42979 1.786752,5.39854 1.60886,19.45997 6.461822,45.67688 12.094242,65.33612 14.625296,51.04772 39.04225,95.34817 79.135946,143.57887 15.37233,18.49214 28.44105,30.85409 44.11378,41.72807 15.82353,10.9786 42.13867,25.5953 57.89134,32.15563 12.68506,5.28281 20.54858,9.16031 22.25016,10.97155 l 1.625,1.72974 -1.59984,2.71153 c -2.0142,3.41381 -2.02497,4.36551 -0.0423,3.73623 0.9386,-0.29789 2.05899,-0.0516 2.81939,0.6197 2.48369,2.19279 26.35814,8.91742 53.5144,15.07321 6.60854,1.49803 3.21483,1.53354 -4.61592,0.0483 -27.92393,-5.29625 -69.76069,-18.47818 -88.57975,-27.90971 -4.66114,-2.33601 -6.51241,-2.94124 -6.93455,-2.2671 -2.35368,3.75883 -2.24019,16.70821 0.14645,16.70821 0.61457,0 1.74966,0.57009 2.52244,1.26686 1.57872,1.42346 14.69281,7.16585 27.16471,11.89486 4.5486,1.72472 8.41116,3.27506 8.58346,3.44522 1.11162,1.0978 -5.24205,-0.12937 -11.5908,-2.23867 z"
     id="path1099"
     transform="scale(0.74999998)" />
  <path
     style="fill:#ffffff;stroke:#000000;stroke-width:1.44804;stroke-linecap:round;stroke-linejoin:round"
     d="m 183.30706,547.11928 c -11.01149,-8.3227 -33.07413,-27.08155 -32.11754,-27.30807 0.37469,-0.0887 1.6055,-0.36498 2.73513,-0.6139 2.28086,-0.50259 4.33673,-3.71864 4.33673,-6.78406 0,-1.0543 0.25903,-1.91692 0.57563,-1.91692 0.3166,0 4.63025,4.08646 9.5859,9.08102 4.95565,4.99456 13.14224,12.80842 18.19243,17.36415 5.05018,4.55572 9.39393,8.95039 9.65277,9.76592 0.30703,0.96737 -0.24152,2.51042 -1.57809,4.43908 -1.12679,1.62596 -2.08727,2.94323 -2.13441,2.92726 -0.0471,-0.016 -4.20899,-3.14548 -9.24855,-6.95448 z"
     id="path1101"
     transform="scale(0.74999998)" />
  <path
     style="fill:#ffffff;stroke:#000000;stroke-width:1.44804;stroke-linecap:round;stroke-linejoin:round"
     d="m 309.00441,579.96545 c -32.80366,-4.62297 -62.45659,-14.16738 -85.12309,-27.39862 -4.45749,-2.602 -9.28866,-5.80218 -10.73595,-7.11152 -5.40417,-4.88909 -6.81481,-5.6374 -10.62709,-5.6374 -3.40041,0 -3.65778,-0.13225 -3.65778,-1.87958 0,-1.03378 -0.33735,-1.87959 -0.74967,-1.87959 -0.41232,0 -2.06038,-1.18414 -3.66234,-2.63143 -1.60197,-1.44728 -3.38115,-2.63142 -3.95373,-2.63142 -0.57259,0 -1.45553,-0.93636 -1.96211,-2.0808 -0.50657,-1.14443 -4.18392,-5.62725 -8.17189,-9.96182 -15.25088,-16.57638 -26.24686,-32.52658 -36.27265,-52.61524 -8.11503,-16.26006 -11.1545,-23.95965 -20.18191,-51.12481 -17.74772,-53.4062 -20.26066,-83.09096 -10.6276,-125.5412 8.07632,-35.5901 23.64869,-68.11846 46.0781,-96.25029 5.77533,-7.24363 25.95646,-28.08282 26.58619,-27.4531 0.18883,0.18884 -4.08099,4.92475 -9.48849,10.52425 -12.03437,12.46166 -17.88475,19.64631 -26.3417,32.34938 -18.44658,27.70835 -31.1588,59.56779 -36.18309,90.6823 -5.62499,34.83451 -2.56018,65.54702 10.34419,103.65929 7.10695,20.98994 13.89934,35.84167 22.73467,49.70993 33.90654,53.22092 77.82248,89.58282 130.23044,107.82935 24.99676,8.70295 42.91357,11.38688 71.127,10.65479 22.91016,-0.59447 35.36542,-2.95831 36.08658,-6.84875 0.24248,-1.3081 -0.1023,-1.39051 -4.13509,-0.9884 -2.4198,0.24128 -7.95205,1.00399 -12.29391,1.69493 -9.61463,1.53 -35.79378,1.74633 -46.98972,0.38828 -15.94413,-1.934 -44.73421,-10.21047 -44.73421,-12.86004 0,-0.39416 -0.81004,-0.71666 -1.80008,-0.71666 -0.99004,0 -2.82635,-0.95868 -4.08068,-2.1304 -1.25433,-1.17173 -5.60377,-4.09764 -9.66542,-6.50205 -35.08363,-20.76874 -60.39019,-42.66681 -80.96244,-70.05776 -24.44014,-32.54084 -44.03363,-77.05501 -47.05557,-106.90486 -1.01599,-10.0357 -1.01747,-42.03598 -0.002,-52.09326 1.20329,-11.9223 6.90391,-35.78853 9.95827,-41.69133 0.66261,-1.28055 1.01424,-3.05676 0.7814,-3.94714 -0.23284,-0.89037 -0.0969,-1.61886 0.30199,-1.61886 0.76808,0 1.88388,-2.36191 5.15011,-10.90162 11.74123,-30.698 40.86344,-66.04305 74.74633,-90.71814 25.89045,-18.85462 54.04176,-31.60967 83.71766,-37.93155 7.99201,-1.70254 11.49406,-1.99439 28.00976,-2.33422 21.17679,-0.43574 31.72976,0.31698 45.69936,3.25967 11.38833,2.39894 28.28593,7.93249 39.44307,12.91663 14.3662,6.4177 37.82091,19.83296 36.67631,20.97755 -0.21481,0.21482 -1.41346,-0.33779 -2.66365,-1.22801 -1.2502,-0.89021 -4.05097,-2.14655 -6.22392,-2.79185 -2.17297,-0.6453 -8.86647,-3.63151 -14.87447,-6.63602 -19.1749,-9.58909 -32.78894,-14.43162 -50.88038,-18.09823 -34.17483,-6.92625 -68.12198,-4.91788 -99.88465,5.90933 -23.63118,8.05536 -44.71482,19.47192 -60.99951,33.03058 -6.88552,5.73291 -34.50917,32.27934 -40.89614,39.30137 -17.16544,18.87218 -30.19403,42.47465 -37.9653,68.77754 -12.29562,41.61621 -12.73338,77.2195 -1.37014,111.43535 3.82512,11.51782 7.13966,17.74881 10.22903,19.22951 4.42523,2.12095 4.65587,-1.23891 0.89258,-13.00259 -5.85144,-18.29106 -8.25084,-35.62561 -8.16927,-59.01909 0.0595,-17.07259 1.39895,-29.28898 4.41009,-40.2232 1.48654,-5.39797 1.36984,-2.73714 -0.28027,6.3906 -2.52883,13.98845 -3.29683,24.99219 -2.83293,40.58934 1.28124,43.07729 15.0103,83.3349 40.25793,118.04796 32.45856,44.62737 72.29962,71.29179 120.27368,80.49553 21.52728,4.12997 24.94364,5.24577 24.94364,8.14669 0,0.76705 -0.76123,1.9064 -1.69163,2.53191 -0.93039,0.6255 -1.40755,1.428 -1.06036,1.78333 0.98779,1.01092 23.33109,0.44643 34.83657,-0.88012 21.99222,-2.53565 38.22539,-7.66442 62.05747,-19.60669 16.83848,-8.43778 11.80448,-3.47055 -6.51213,6.42576 -12.03043,6.49993 -14.79742,8.52169 -13.47402,9.84509 0.7799,0.77991 4.90069,-0.26218 10.29436,-2.60329 2.87258,-1.24685 2.8758,-1.24626 2.63143,0.47704 -0.16254,1.14621 -0.83767,1.80936 -2.01116,1.97548 -0.97156,0.13753 -3.33985,1.45943 -5.26285,2.93755 -3.46982,2.66708 -10.04102,5.96349 -15.2113,7.63064 -1.4811,0.47758 -4.0055,1.53753 -5.60977,2.35544 -1.60429,0.8179 -3.37136,1.4871 -3.92685,1.4871 -0.55548,0 -3.27205,1.36434 -6.03684,3.03186 -11.23562,6.77652 -26.74989,9.8234 -51.65434,10.14451 -9.51072,0.12262 -18.3072,0.0799 -19.54772,-0.0949 z"
     id="path1103"
     transform="scale(0.74999998)" />
  <path
     style="fill:#ffffff;stroke:#000000;stroke-width:1.44804;stroke-linecap:round;stroke-linejoin:round"
     d="m 316.32431,524.0185 c -3.41723,-0.35384 -11.66088,-1.72135 -18.31922,-3.0389 -9.38309,-1.85672 -12.23601,-2.1853 -12.68375,-1.46084 -0.43187,0.69877 -1.12151,0.73679 -2.73219,0.15059 -1.18497,-0.43126 -1.73159,-0.81083 -1.2147,-0.84347 1.66784,-0.10534 1.00059,-1.49298 -1.28664,-2.67575 -1.22454,-0.63323 -3.59758,-1.20506 -5.27342,-1.27073 -1.67585,-0.0656 -3.42617,-0.57626 -3.88959,-1.13465 -0.46343,-0.55841 -4.60317,-3.25978 -9.19941,-6.00306 -33.76292,-20.15152 -55.0943,-42.25733 -71.44317,-74.0369 -4.10029,-7.9703 -7.15375,-15.08022 -8.67313,-20.19525 -2.44351,-8.22606 -3.74702,-16.54382 -2.59138,-16.5356 0.36904,0.003 2.14923,3.80879 3.95597,8.45815 7.06414,18.17842 14.93594,32.54805 25.84171,47.1729 6.85564,9.19354 24.46035,26.75639 33.76837,33.68806 25.9826,19.34922 54.98983,30.03552 90.10346,33.19422 42.13449,3.79029 84.2914,-8.43335 115.85214,-33.59198 13.73485,-10.94874 22.91288,-21.14074 35.41533,-39.32798 l 1.27628,-1.85659 0.0394,2.06755 c 0.0238,1.2461 -0.36068,2.06754 -0.96764,2.06754 -0.55389,0 -1.45659,0.9304 -2.00599,2.06755 -0.97524,2.01855 -1.14861,2.58386 -1.38344,4.51102 -0.063,0.51688 -0.63262,0.93979 -1.26586,0.93979 -0.63325,0 -1.35644,0.59207 -1.60711,1.31571 -0.25068,0.72364 -1.58539,2.33069 -2.96603,3.57122 -1.38064,1.24053 -2.67031,3.21523 -2.86593,4.38823 -0.43865,2.63025 -1.73675,4.28687 -2.98408,3.80822 -0.51639,-0.19815 -1.32993,0.498 -1.80789,1.547 -2.2374,4.91058 -15.69734,16.84214 -28.58428,25.33854 -20.18217,13.30618 -42.75612,22.56656 -64.79398,26.58006 -8.18495,1.49063 -46.84298,2.23102 -57.71387,1.10535 z"
     id="path1105"
     transform="scale(0.74999998)" />
  <path
     style="fill:#ffffff;stroke:#000000;stroke-width:1.44804;stroke-linecap:round;stroke-linejoin:round"
     d="m 428.92217,681.24717 c 1.03378,-0.37369 7.46197,-2.43631 14.28488,-4.58358 34.62481,-10.89698 69.81857,-27.40903 96.98678,-45.50381 27.62471,-18.39882 55.75241,-44.84712 75.23812,-70.74592 18.007,-23.93343 36.08234,-60.0938 47.78507,-95.5958 4.51005,-13.68191 4.37626,-15.22041 -1.32361,-15.22041 -1.79718,0 -2.43657,0.47454 -3.29234,2.44347 -0.58412,1.3439 -1.07443,1.93597 -1.08957,1.31571 -0.0412,-1.68768 3.70052,-15.29716 4.33349,-15.76188 0.30159,-0.22142 0.62557,-2.6017 0.71996,-5.28952 0.0944,-2.68781 0.68063,-9.28517 1.30275,-14.66079 2.44404,-21.11844 3.28527,-58.43209 1.88574,-83.644 -0.95054,-17.12345 -4.70983,-38.87288 -10.94804,-63.33985 -1.42331,-5.58238 -2.58788,-10.68177 -2.58795,-11.33198 -7e-5,-0.65021 0.97097,-3.01849 2.15786,-5.26285 1.18689,-2.24435 2.77619,-5.85686 3.53178,-8.02778 0.75559,-2.17093 1.62611,-3.94714 1.93448,-3.94714 1.33846,0 3.18928,4.12584 6.68393,14.89974 6.9961,21.56878 9.1059,32.20942 10.83488,54.64505 3.21912,41.77179 2.01527,72.27572 -4.51517,114.40905 -1.42111,9.16874 -2.58383,18.51233 -2.58383,20.76353 0,3.94236 0.11075,4.16639 3.00734,6.08326 3.80476,2.51786 3.82594,3.49731 0.33786,15.62119 -10.845,37.69515 -23.92128,65.03181 -43.68693,91.32989 -6.36279,8.46566 -19.12257,23.42472 -24.27277,28.45641 l -3.83527,3.74704 0.48589,-2.42946 c 0.47401,-2.37003 -0.55068,-4.68869 -2.07208,-4.68869 -0.37563,0 -4.98619,4.10844 -10.24568,9.12986 -16.53937,15.79074 -34.75759,30.68288 -50.16183,41.00384 -29.58611,19.82293 -88.4828,45.31177 -107.51248,46.52839 -3.67767,0.23513 -4.69671,0.13183 -3.38326,-0.34297 z"
     id="path1107"
     transform="scale(0.74999998)" />
  <path
     style="fill:#ffffff;stroke:#000000;stroke-width:1.44804;stroke-linecap:round;stroke-linejoin:round"
     d="m 523.42988,632.87141 c -0.20746,-1.76503 -0.80558,-4.59524 -1.32917,-6.28936 -0.52358,-1.69411 -0.75004,-3.60643 -0.50323,-4.2496 0.2468,-0.64317 6.30695,-5.8509 13.46698,-11.57274 14.04454,-11.2235 36.52609,-32.70495 47.42088,-45.31136 11.7276,-13.57005 30.41658,-39.55663 35.08129,-48.77967 1.8575,-3.67263 3.02056,-4.25632 9.84012,-4.9383 2.69376,-0.26938 6.48964,-1.27919 8.45815,-2.25009 1.96417,-0.96876 3.57122,-1.58891 3.57122,-1.37812 0,0.92567 -10.48597,20.08879 -15.29771,27.95657 -11.54624,18.87949 -23.84126,34.5195 -40.71125,51.78713 -19.31427,19.76954 -38.39457,35.3939 -56.87752,46.57552 l -2.74258,1.65917 z"
     id="path1109"
     transform="scale(0.74999998)" />
  <path
     style="fill:#ffffff;stroke:#000000;stroke-width:1.44804;stroke-linecap:round;stroke-linejoin:round"
     d="m 539.24283,274.65202 c -3.05761,-5.10221 -8.07102,-16.09169 -8.07102,-17.69181 0,-0.60833 -0.67666,-1.88624 -1.50367,-2.8398 -0.82702,-0.95356 -1.50368,-2.29908 -1.50368,-2.99004 0,-0.69096 -1.18414,-2.92181 -2.63142,-4.95745 -1.44728,-2.03563 -2.63142,-4.2824 -2.63142,-4.99282 0,-0.71041 -0.67666,-1.65379 -1.50368,-2.0964 -0.82701,-0.44261 -1.50367,-1.28842 -1.50367,-1.87959 0,-0.59117 -0.67665,-1.43698 -1.50367,-1.87959 -0.86399,-0.46239 -1.50367,-1.57421 -1.50367,-2.6135 0,-0.99482 -0.32355,-2.00873 -0.719,-2.25313 -0.39545,-0.24441 -0.541,-0.90822 -0.32345,-1.47515 0.60528,-1.57733 -2.38507,-6.82369 -5.01916,-8.80578 -3.42762,-2.5792 -6.09149,-5.31487 -8.22326,-8.44487 -1.03378,-1.51785 -3.19402,-3.75077 -4.80054,-4.96204 -2.92379,-2.20446 -3.93204,-3.54352 -6.08355,-8.07954 -0.63274,-1.33402 -2.12462,-2.92925 -3.31528,-3.54497 -1.19066,-0.61571 -2.36265,-1.90766 -2.60443,-2.87098 -0.24178,-0.96333 -1.81998,-3.88723 -3.50711,-6.49754 -1.68713,-2.61032 -2.95573,-5.08138 -2.81911,-5.49124 0.37591,-1.12773 13.50524,12.86838 22.06857,23.52552 13.50478,16.80679 24.4882,34.50953 31.70614,51.10297 4.63372,10.65251 9.4027,23.31538 8.95098,23.7671 -0.18579,0.18578 -1.51549,-1.62743 -2.9549,-4.02935 z"
     id="path1111"
     transform="scale(0.74999998)" />
  <path
     style="fill:#ffffff;stroke:#000000;stroke-width:1.44804;stroke-linecap:round;stroke-linejoin:round"
     d="m 476.28781,480.79268 c 0,-0.21014 2.04416,-2.81664 4.54257,-5.79222 12.83572,-15.28725 28.18565,-42.18907 35.66816,-62.51094 3.73053,-10.13181 7.47445,-25.1293 9.34982,-37.45378 6.23732,-40.99004 -6.89771,-95.27709 -32.88036,-135.89452 l -2.62781,-4.10792 -3.27391,3.71683 -3.27391,3.71683 -2.24992,-2.63142 c -1.23745,-1.44729 -5.31063,-7.08659 -9.05152,-12.53178 -3.74089,-5.44519 -8.05396,-10.83396 -9.5846,-11.97503 -1.53064,-1.14108 -4.21324,-3.3678 -5.96132,-4.94826 -1.74809,-1.58046 -5.04677,-3.78993 -7.3304,-4.90992 -2.28363,-1.12 -4.15205,-2.47337 -4.15205,-3.00749 0,-0.53413 -0.63637,-0.97114 -1.41416,-0.97114 -0.77779,0 -3.66128,-0.84581 -6.40777,-1.87959 -2.74648,-1.03377 -6.14243,-1.87958 -7.54655,-1.87958 -2.10071,0 -2.83755,-0.46051 -4.15963,-2.59968 -1.98634,-3.21397 -5.38964,-6.13281 -8.8237,-7.56765 -2.35146,-0.98251 -5.366,-3.07634 -8.48814,-5.89568 -1.54246,-1.39287 -10.84305,-5.74022 -12.28044,-5.74022 -0.64012,0 -1.37295,-0.33833 -1.62851,-0.75184 -0.73218,-1.18468 -1.88018,-0.87635 -1.39964,0.37592 0.23802,0.62026 0.2106,1.12775 -0.0609,1.12775 -0.9888,0 -4.68885,-2.18674 -5.64073,-3.33369 -1.53318,-1.84737 -2.29665,-1.39459 -2.29665,1.36204 0,1.39666 -0.51751,2.96886 -1.15002,3.4938 -1.17718,0.97698 -1.21258,0.96669 -6.49808,-1.88839 -0.75566,-0.40819 -1.37392,-1.17779 -1.37392,-1.71024 0,-0.53244 -0.81034,-1.27617 -1.80074,-1.65272 -1.19695,-0.45508 -2.16231,-1.77232 -2.87908,-3.92853 l -1.07832,-3.24388 -5.37555,-0.423 c -2.95654,-0.23264 -5.63629,-0.69721 -5.95499,-1.03237 -1.45327,-1.52832 23.40329,2.11408 25.98909,3.80837 0.97833,0.64102 2.44159,0.99216 3.25169,0.78032 0.87025,-0.22758 1.64082,0.0524 1.88328,0.68421 0.22943,0.59787 1.41118,1.0694 2.68018,1.0694 4.85702,0 28.17176,10.73824 40.30709,18.56452 5.60431,3.61433 16.08317,11.19304 40.60778,29.36908 16.28305,12.06795 27.73386,27.01628 37.00004,48.30135 11.90596,27.3488 18.65376,56.2165 19.94662,85.33333 1.25629,28.29331 -4.4186,52.17733 -19.46409,81.91892 -7.16941,14.17231 -13.62043,23.55326 -24.96751,36.30722 -8.9585,10.06922 -10.15137,11.28327 -10.15137,10.33159 z"
     id="path1113"
     transform="scale(0.74999998)" />
  <path
     style="fill:#ffffff;stroke:#000000;stroke-width:1.44804;stroke-linecap:round;stroke-linejoin:round"
     d="m 195.10132,235.7958 c 0,-0.79049 2.93916,-6.40354 5.15902,-9.85241 14.69378,-22.82895 39.47464,-44.21199 66.64128,-57.50376 12.6072,-6.1683 18.5297,-8.33555 31.95301,-11.69271 18.78666,-4.69853 22.78725,-5.19327 41.72687,-5.16027 9.51072,0.0166 20.67548,0.4468 24.81057,0.95604 36.36808,4.4788 71.73542,21.3625 102.06495,48.72386 7.66846,6.91799 20.40658,20.47729 19.80361,21.08027 -0.19245,0.19244 -5.32146,-4.26698 -11.39781,-9.90982 -21.25223,-19.73601 -35.37706,-29.91687 -54.83492,-39.52377 -25.86337,-12.76948 -48.97916,-18.22327 -77.43906,-18.27047 -28.80789,-0.0478 -50.18025,4.88136 -75.93539,17.51307 -12.8257,6.29042 -24.27282,13.42361 -33.49241,20.87057 -8.58411,6.93365 -23.6897,22.92299 -31.51816,33.36214 -8.02466,10.70076 -7.54156,10.09814 -7.54156,9.40726 z"
     id="path1115"
     transform="scale(0.74999998)" />
  <path
     style="fill:#ffffff;stroke:#000000;stroke-width:0.511958;stroke-linecap:round;stroke-linejoin:round"
     d="m 470.92797,256.93595 c -0.82625,-0.8444 -2.75756,-3.20525 -4.29182,-5.24634 -9.64875,-12.83618 -23.8027,-27.84186 -32.9868,-34.97182 -3.53287,-2.74269 -4.61184,-3.82596 -5.19365,-5.21433 -0.43852,-1.04644 -0.25374,-1.5806 0.72119,-2.08475 1.06052,-0.54842 1.43115,-0.4972 3.19146,0.44104 5.02272,2.67708 16.68872,14.11552 28.02592,27.47926 6.64832,7.83671 14.48361,18.06286 14.48361,18.90312 0,0.52367 -0.66792,1.66954 -1.18075,2.02567 -0.65212,0.45285 -1.3524,0.11605 -2.76916,-1.33185 z"
     id="path1123"
     transform="scale(0.74999998)" />
  <path
     style="fill:#ffffff;stroke:#000000;stroke-width:0.511958;stroke-linecap:round;stroke-linejoin:round"
     d="m 357.521,224.43185 c -0.73099,-0.28706 -2.07667,-0.66099 -2.99041,-0.83095 -1.52639,-0.28392 -1.66166,-0.36466 -1.6654,-0.99406 -0.006,-0.95057 -0.25982,-1.26483 -1.41247,-1.74644 -1.28142,-0.53541 -1.60247,-0.32156 -1.43145,0.95347 0.19944,1.48698 -0.15616,1.55447 -3.86382,0.73328 -0.69444,-0.15381 -1.26261,-0.3759 -1.26261,-0.49354 0,-0.11764 0.65789,-0.48657 1.46197,-0.81984 0.80409,-0.33328 1.46198,-0.70129 1.46198,-0.8178 0,-0.77077 -5.10477,-0.57379 -6.9533,0.26832 -1.46876,0.66909 -6.13214,1.17456 -9.72503,1.05409 l -2.45728,-0.0824 1.85897,-2.03624 c 1.1284,-1.236 2.34137,-2.26976 3.08644,-2.63044 1.13922,-0.55149 1.46885,-0.58255 4.58551,-0.43213 4.91283,0.2371 8.27791,1.14559 13.34569,3.60299 2.77448,1.34537 4.33408,1.68755 4.93818,1.08345 0.34068,-0.34067 1.68823,1.10998 2.48878,2.67918 0.62591,1.22688 0.48593,1.2755 -1.46575,0.50905 z"
     id="path1125"
     transform="scale(0.74999998)" />
  <path
     style="fill:#ffffff;stroke:#000000;stroke-width:0.511958;stroke-linecap:round;stroke-linejoin:round"
     d="m 413.55168,235.62721 c -0.90803,-0.42957 -3.59939,-1.94826 -5.98081,-3.37485 -5.00345,-2.99733 -15.09669,-8.16723 -19.785,-10.13415 -10.74814,-4.50924 -19.09486,-6.89804 -32.25847,-9.23227 -2.11987,-0.3759 -5.17009,-0.99363 -6.77826,-1.37274 -5.96474,-1.40609 -5.37049,-1.98506 1.36031,-1.32531 5.30725,0.52021 13.93715,1.92357 19.19154,3.12086 13.48223,3.07212 32.97706,11.70708 42.3201,18.7451 2.52773,1.90411 3.98027,3.38124 3.98027,4.04764 0,0.44375 -0.21363,0.39432 -2.04968,-0.47428 z"
     id="path1129"
     transform="scale(0.74999998)" />
  <path
     style="fill:#ffffff;stroke:#000000;stroke-width:0.511958;stroke-linecap:round;stroke-linejoin:round"
     d="m 204.73827,385.92691 c -1.79591,-5.26592 -3.34283,-13.70936 -4.35823,-23.78822 -0.57781,-5.73537 -0.65636,-20.18047 -0.13732,-25.25233 3.3011,-32.25707 15.28504,-60.10619 36.83116,-85.59079 4.3621,-5.15947 13.77814,-14.62701 18.50745,-18.6087 17.6803,-14.88533 39.34801,-26.21085 60.29887,-31.51768 3.78388,-0.95845 5.3744,-1.22231 8.86824,-1.47122 5.0764,-0.36164 29.30289,-0.16681 34.76617,0.27959 16.80056,1.37279 26.92046,4.42502 45.4807,13.71728 15.3771,7.69861 25.95811,14.85164 37.7104,25.49319 8.8441,8.00823 16.32789,16.58904 24.45105,28.03524 4.26456,6.0091 7.47655,11.25136 7.11525,11.61268 -0.12777,0.12775 -3.1929,-4.16204 -7.04877,-9.86507 -5.3241,-7.87462 -10.41052,-13.89587 -18.30688,-21.6715 -8.14157,-8.0171 -14.70121,-13.46942 -23.8786,-19.84765 -14.23754,-9.89502 -30.59192,-18.03136 -45.3537,-22.56356 -7.44568,-2.28599 -17.4836,-3.88564 -29.13522,-4.64302 -5.60957,-0.36463 -21.37188,-0.19444 -24.6597,0.26626 -3.42859,0.48042 -9.60343,1.79736 -13.72031,2.9262 -19.91048,5.4594 -37.89325,15.01764 -54.72395,29.08696 -4.39861,3.67694 -12.91023,11.92794 -16.75753,16.24444 -18.28873,20.51913 -30.02972,42.79894 -36.56046,69.37746 -2.32847,9.4763 -2.90452,15.61803 -2.90452,30.96733 0,15.57018 0.25459,18.12071 3.18137,31.87176 0.82156,3.85998 1.45713,7.20827 1.41238,7.44066 -0.0448,0.23238 -0.52979,-0.89231 -1.07785,-2.49931 z"
     id="path1131"
     transform="scale(0.74999998)" />
  <path
     style="fill:#ffffff;stroke:#000000;stroke-width:0.511958;stroke-linecap:round;stroke-linejoin:round"
     d="m 474.64706,361.03455 c -0.33927,-0.89236 -0.5362,-4.32091 -0.83738,-14.57889 -0.26267,-8.94661 -0.65154,-13.88354 -1.55985,-19.80314 -2.6834,-17.48801 -9.71211,-35.02409 -20.56264,-51.3021 -7.06314,-10.59615 -14.014,-18.82635 -21.22351,-25.12981 -3.36313,-2.94046 -6.35627,-6.19503 -6.35627,-6.91143 0,-2.56861 10.52823,6.70459 18.57088,16.35712 18.77086,22.52819 28.87947,44.98746 32.84144,72.96703 1.79123,12.64971 1.98404,22.45801 0.52602,26.75936 -0.23938,0.70621 -0.59544,1.51334 -0.79124,1.79362 -0.34294,0.49089 -0.36523,0.48532 -0.60745,-0.15176 z"
     id="path1139"
     transform="scale(0.74999998)" />
  <path
     style="fill:#ffffff;stroke:#000000;stroke-width:0.362009;stroke-linecap:round;stroke-linejoin:round"
     d="m 333.251,387.43936 c -14.47152,-1.64183 -27.3617,-11.35666 -34.20878,-25.78181 -1.74154,-3.66902 -2.92973,-7.85458 -3.39585,-11.96238 -0.28326,-2.4962 -0.12673,-8.5152 0.28387,-10.91642 1.64436,-9.61618 6.3662,-18.78849 13.25745,-25.75293 4.51663,-4.56461 10.12187,-8.29896 15.88709,-10.58439 4.08334,-1.61869 13.39694,-2.69717 19.05974,-2.20703 3.79772,0.32871 5.74302,0.79687 9.22808,2.22085 4.32124,1.76563 9.87164,5.04194 13.44831,7.93831 2.44645,1.98113 6.08529,5.76403 7.9585,8.27359 6.39046,8.56138 9.35663,18.09724 8.82827,28.38179 -0.93008,18.10395 -14.40711,33.47961 -34.18222,38.99777 -5.07604,1.41645 -11.25923,1.94916 -16.16446,1.39265 z m 11.31229,-5.4505 c 8.17028,-1.38544 15.57815,-5.24164 21.47595,-11.17941 9.30706,-9.37013 13.39017,-22.47595 10.71644,-34.39726 -1.00185,-4.46691 -2.52554,-8.02399 -5.06787,-11.83095 -2.02127,-3.02672 -3.43132,-4.74278 -6.38277,-7.76795 -4.18828,-4.29288 -7.98864,-7.19839 -11.82831,-9.04313 -13.48637,-6.47944 -29.79438,-3.45806 -41.29649,7.65099 -3.46703,3.34855 -5.7947,6.49744 -7.95704,10.76436 -2.92486,5.77158 -4.24093,11.34194 -4.24093,17.95007 0,11.48645 4.28954,20.62877 13.4178,28.59744 5.82723,5.08699 10.27653,7.5701 15.73026,8.77892 1.86638,0.41368 3.11174,0.59124 6.65811,0.94926 1.65752,0.16734 6.55818,-0.0965 8.77485,-0.47234 z"
     id="path1141"
     transform="scale(0.74999998)" />
  <path
     style="fill:#ffffff;stroke:#000000;stroke-width:0.362009;stroke-linecap:round;stroke-linejoin:round"
     d="m 334.6099,380.86183 c -7.6744,-0.89237 -16.48285,-5.52579 -23.04142,-12.12024 -5.20768,-5.23617 -8.40028,-10.75641 -9.44773,-16.33582 -0.53807,-2.86608 -0.48613,-11.15128 0.0937,-14.94273 0.94861,-6.20325 1.9646,-8.9649 4.87054,-13.23907 6.01055,-8.84058 15.12681,-15.163 24.85032,-17.2345 2.61053,-0.55615 8.63775,-0.60878 11.5514,-0.10088 10.29929,1.79537 19.25224,7.08117 24.0889,14.22203 2.51871,3.71863 5.37697,9.07785 6.42467,12.04621 3.46798,9.82551 2.08344,21.55594 -3.54189,30.00865 -5.56009,8.35467 -15.07064,14.78796 -25.178,17.03135 -3.66961,0.81449 -7.39059,1.04639 -10.67046,0.665 z m 8.227,-4.02842 c 5.40281,-0.86971 10.70529,-3.00553 15.03671,-6.05671 2.30232,-1.62182 6.48793,-5.80344 8.13493,-8.12717 1.50477,-2.12306 3.66884,-6.37904 4.44415,-8.74009 1.26612,-3.8557 1.85891,-8.68729 1.51517,-12.34956 -1.04467,-11.13042 -7.38586,-21.27225 -16.8572,-26.96069 -3.03662,-1.82378 -6.22891,-2.91594 -10.48815,-3.58824 -3.20814,-0.50639 -10.16874,-0.45399 -13.09928,0.0986 -4.19867,0.79174 -6.57714,1.76409 -10.13548,4.14351 -7.71858,5.1613 -13.41862,13.6517 -15.41544,22.96179 -0.35684,1.66378 -0.42455,2.56365 -0.43133,5.73275 -0.009,4.21656 0.28733,6.14614 1.50504,9.79946 4.02737,12.08279 14.9171,21.40867 27.05079,23.1661 1.91771,0.27776 6.79564,0.23324 8.74009,-0.0798 z"
     id="path1143"
     transform="scale(0.74999998)" />
  <path
     style="fill:#ffffff;stroke:#000000;stroke-width:0.362009;stroke-linecap:round;stroke-linejoin:round"
     d="m 265.33324,338.002 c -0.53328,-0.30998 -0.8753,-1.34584 -0.87415,-2.64746 10e-4,-1.50649 0.25588,-2.41316 0.82849,-2.9511 1.00326,-0.94251 1.80261,0.15348 1.80084,2.46913 -10e-4,1.68462 -0.26129,2.67756 -0.79991,3.05482 -0.48036,0.33646 -0.50192,0.33814 -0.95527,0.0746 z m 0.62847,-2.91063 c 0,-0.26541 -0.0818,-0.41935 -0.18795,-0.35374 -0.10338,0.0639 -0.18796,0.32762 -0.18796,0.58607 0,0.2654 0.0818,0.41934 0.18796,0.35373 0.10337,-0.0639 0.18795,-0.32762 0.18795,-0.58606 z"
     id="path1145"
     transform="scale(0.74999998)" />
  <path
     style="fill:#ffffff;stroke:#000000;stroke-width:0.362009;stroke-linecap:round;stroke-linejoin:round"
     d="m 266.59049,329.49745 c -0.45686,-0.39297 -0.52893,-0.60617 -0.59396,-1.75705 -0.14478,-2.56229 1.3567,-3.78331 2.33232,-1.89668 0.46849,0.90595 0.3009,2.99187 -0.29099,3.62191 -0.55747,0.5934 -0.78859,0.59848 -1.44737,0.0318 z m 0.8749,-2.09021 c 0,-0.25845 -0.0846,-0.4699 -0.18796,-0.4699 -0.10338,0 -0.18796,0.21145 -0.18796,0.4699 0,0.25844 0.0846,0.4699 0.18796,0.4699 0.10337,0 0.18796,-0.21146 0.18796,-0.4699 z"
     id="path1147"
     transform="scale(0.74999998)" />
  <path
     style="fill:#ffffff;stroke:#000000;stroke-width:0.362009;stroke-linecap:round;stroke-linejoin:round"
     d="m 265.53047,354.37616 c -0.30316,-0.23847 -0.61281,-0.77287 -0.78627,-1.35698 -0.37668,-1.26842 -0.37367,-3.86432 0.006,-4.81216 0.56559,-1.41355 1.75913,-1.45538 2.14246,-0.0751 0.10732,0.38645 0.19436,1.80219 0.19341,3.1461 -0.002,3.24282 -0.38981,4.01482 -1.55518,3.09814 z m 0.25466,-4.75961 c -0.14047,-0.14046 -0.19933,0.08 -0.19933,0.74673 0,1.22999 0.26459,1.49598 0.34029,0.3421 0.0321,-0.48923 -0.0313,-0.9792 -0.14096,-1.08883 z"
     id="path1149"
     transform="scale(0.74999998)" />
  <path
     style="fill:#ffffff;stroke:#000000;stroke-width:0.362009;stroke-linecap:round;stroke-linejoin:round"
     d="m 266.83691,361.30891 c -0.53925,-0.31346 -0.8752,-1.35006 -0.8752,-2.7005 0,-1.39312 0.34476,-2.40695 0.92389,-2.71688 0.94575,-0.50616 1.70754,0.70593 1.70754,2.71688 0,1.38327 -0.34419,2.40665 -0.91153,2.71028 -0.45181,0.2418 -0.41108,0.24227 -0.8447,-0.01 z m 0.62848,-2.60652 c 0,-0.31013 -0.0846,-0.56387 -0.18796,-0.56387 -0.10338,0 -0.18796,0.25374 -0.18796,0.56387 0,0.31013 0.0846,0.56388 0.18796,0.56388 0.10337,0 0.18796,-0.25375 0.18796,-0.56388 z"
     id="path1153"
     transform="scale(0.74999998)" />
  <path
     style="fill:#ffffff;stroke:#000000;stroke-width:0.255979;stroke-linecap:round;stroke-linejoin:round"
     d="m 307.39292,171.14793 c -1.03474,-0.32705 -3.31557,-0.6894 -7.00164,-1.11236 -3.76046,-0.4315 -5.03701,-0.62146 -5.34877,-0.79592 -0.28465,-0.1593 0.58541,-0.55935 2.43779,-1.1209 3.03883,-0.92123 4.06918,-0.93095 4.88961,-0.0461 0.6506,0.70166 0.91604,0.6285 2.13219,-0.58765 1.46375,-1.46375 3.10663,-2.07206 6.39305,-2.36715 5.1924,-0.46622 7.5759,-0.84394 8.42283,-1.33479 0.84872,-0.49188 2.99262,-0.70151 9.60588,-0.93926 6.74361,-0.24244 20.63137,-0.0147 22.39483,0.36724 l 0.39872,0.0864 -0.39872,0.11006 c -1.05271,0.2906 -6.81764,0.7582 -12.02809,0.97562 -6.0768,0.25356 -9.41996,0.53112 -13.02488,1.08138 -7.15688,1.09243 -10.55941,2.69829 -9.35639,4.41585 0.1171,0.16719 0.17823,0.33867 0.13583,0.38107 -0.21123,0.21123 -1.59549,0.17333 -3.42793,-0.0939 -2.84853,-0.41534 -4.36361,-0.23245 -4.36361,0.52674 0,0.32524 -0.49122,0.6729 -0.92669,0.65587 -0.18476,-0.007 -0.60506,-0.0982 -0.93401,-0.20217 z"
     id="path1155"
     transform="scale(0.74999998)" />
  <path
     style="fill:#ffffff;stroke:#000000;stroke-width:1.44804;stroke-linecap:round;stroke-linejoin:round"
     d="M 679.3579,93.134049 C 668.21256,75.060784 653.23793,59.061363 620.60271,30.357969 614.776,25.233256 611.93914,22.16943 611.00109,19.98819 c -0.73229,-1.70278 -1.23022,-3.197171 -1.10652,-3.320867 0.37189,-0.371893 21.303,17.255808 31.63257,26.640224 5.3058,4.820318 14.26624,12.640021 19.91209,17.377117 5.64585,4.737097 12.73996,10.996128 15.76469,13.908958 l 5.4995,5.296055 -0.2251,8.969713 -0.2251,8.969714 z"
     id="path1163"
     transform="scale(0.74999998)" />
</svg>
